# Blender 4.5.4 LTS
# www.blender.org
mtllib car.mtl
o Cube.001
v -0.203831 -0.064777 0.349041
v -0.217794 -0.049019 0.333283
v -0.203831 0.049157 0.349041
v -0.217794 0.033399 0.333283
v -0.217794 -0.049019 0.250865
v -0.203831 -0.064777 0.235107
v -0.203831 0.049157 0.235107
v -0.217794 0.033399 0.250865
v -0.139599 -0.049019 0.333283
v -0.153561 -0.064777 0.349041
v -0.153561 0.049157 0.349041
v -0.139599 0.033399 0.333283
v -0.139599 -0.049019 0.250865
v -0.153561 -0.064777 0.235107
v -0.139599 0.033399 0.250865
v -0.153561 0.049157 0.235107
v -0.215524 -0.061183 0.238701
v -0.203831 -0.086139 0.292074
v -0.215524 -0.061183 0.345447
v -0.217947 -0.057842 0.292074
v -0.203831 -0.007810 0.370403
v -0.215524 0.045563 0.345447
v -0.217947 -0.007810 0.342106
v -0.203831 0.070519 0.292074
v -0.215524 0.045563 0.238701
v -0.217947 0.042222 0.292074
v -0.203831 -0.007810 0.213745
v -0.217947 -0.007810 0.242042
v -0.141868 0.045563 0.238701
v -0.139446 -0.007810 0.242042
v -0.141868 -0.061183 0.238701
v -0.153561 -0.007810 0.213745
v -0.141868 -0.061183 0.345447
v -0.153561 -0.086139 0.292074
v -0.139446 -0.057842 0.292074
v -0.153561 0.070519 0.292074
v -0.141868 0.045563 0.345447
v -0.139446 0.042222 0.292074
v -0.153561 -0.007810 0.370403
v -0.139446 -0.007810 0.342106
v -0.178696 -0.065282 0.234602
v -0.178696 -0.065282 0.349546
v -0.178696 0.049662 0.349546
v -0.178696 0.049662 0.234602
v -0.215539 -0.081209 0.292074
v -0.215539 -0.007810 0.365474
v -0.215539 0.065590 0.292074
v -0.215539 -0.007810 0.218675
v -0.141853 -0.007810 0.218675
v -0.141853 -0.081209 0.292074
v -0.141853 0.065590 0.292074
v -0.141853 -0.007810 0.365474
v -0.178696 -0.086834 0.292074
v -0.218268 -0.007810 0.292074
v -0.178696 -0.007810 0.371098
v -0.178696 0.071214 0.292074
v -0.178696 -0.007810 0.213050
v -0.139125 -0.007810 0.292074
v 0.177396 0.095466 -0.493280
v 0.177396 -0.044091 -0.500598
v 0.177396 0.125553 0.515141
v 0.177396 -0.044091 0.515141
v -0.179216 0.095466 -0.493280
v -0.179216 -0.044091 -0.500598
v -0.179216 0.125553 0.515141
v -0.179216 -0.044091 0.515141
v -0.179216 -0.044091 -0.297450
v -0.179216 -0.044091 -0.094303
v -0.179216 -0.044091 0.108845
v -0.179216 -0.044091 0.311993
v 0.177396 0.273549 -0.250287
v 0.177396 0.275176 -0.094303
v 0.177396 0.275176 0.108845
v 0.177396 0.125553 0.311993
v -0.179216 0.125553 0.311993
v -0.179216 0.275176 0.108845
v -0.179216 0.275176 -0.094303
v -0.179216 0.273549 -0.250287
v 0.177396 -0.044091 0.311993
v 0.177396 -0.044091 0.108845
v 0.177396 -0.044091 -0.094303
v 0.177396 -0.044091 -0.297450
v -0.203831 -0.064777 -0.237551
v -0.217794 -0.049019 -0.253308
v -0.203831 0.049157 -0.237551
v -0.217794 0.033399 -0.253308
v -0.217794 -0.049019 -0.335727
v -0.203831 -0.064777 -0.351484
v -0.203831 0.049157 -0.351484
v -0.217794 0.033399 -0.335727
v -0.139599 -0.049019 -0.253308
v -0.153561 -0.064777 -0.237551
v -0.153561 0.049157 -0.237551
v -0.139599 0.033399 -0.253308
v -0.139599 -0.049019 -0.335727
v -0.153561 -0.064777 -0.351484
v -0.139599 0.033399 -0.335727
v -0.153561 0.049157 -0.351484
v -0.215524 -0.061183 -0.347891
v -0.203831 -0.086139 -0.294518
v -0.215524 -0.061183 -0.241144
v -0.217947 -0.057842 -0.294518
v -0.203831 -0.007810 -0.216188
v -0.215524 0.045563 -0.241144
v -0.217947 -0.007810 -0.244485
v -0.203831 0.070519 -0.294518
v -0.215524 0.045563 -0.347891
v -0.217947 0.042222 -0.294518
v -0.203831 -0.007810 -0.372847
v -0.217947 -0.007810 -0.344550
v -0.141868 0.045563 -0.347891
v -0.139446 -0.007810 -0.344550
v -0.141868 -0.061183 -0.347891
v -0.153561 -0.007810 -0.372847
v -0.141868 -0.061183 -0.241144
v -0.153561 -0.086139 -0.294518
v -0.139446 -0.057842 -0.294518
v -0.153561 0.070519 -0.294518
v -0.141868 0.045563 -0.241144
v -0.139446 0.042222 -0.294518
v -0.153561 -0.007810 -0.216188
v -0.139446 -0.007810 -0.244485
v -0.178696 -0.065282 -0.351990
v -0.178696 -0.065282 -0.237046
v -0.178696 0.049662 -0.237046
v -0.178696 0.049662 -0.351990
v -0.215539 -0.081209 -0.294518
v -0.215539 -0.007810 -0.221118
v -0.215539 0.065590 -0.294518
v -0.215539 -0.007810 -0.367917
v -0.141853 -0.007810 -0.367917
v -0.141853 -0.081209 -0.294518
v -0.141853 0.065590 -0.294518
v -0.141853 -0.007810 -0.221118
v -0.178696 -0.086834 -0.294518
v -0.218268 -0.007810 -0.294518
v -0.178696 -0.007810 -0.215494
v -0.178696 0.071214 -0.294518
v -0.178696 -0.007810 -0.373542
v -0.139125 -0.007810 -0.294518
v 0.153749 -0.064777 0.349041
v 0.139786 -0.049019 0.333283
v 0.153749 0.049157 0.349041
v 0.139786 0.033399 0.333283
v 0.139786 -0.049019 0.250865
v 0.153749 -0.064777 0.235107
v 0.153749 0.049157 0.235107
v 0.139786 0.033399 0.250865
v 0.217982 -0.049019 0.333283
v 0.204019 -0.064777 0.349041
v 0.204019 0.049157 0.349041
v 0.217982 0.033399 0.333283
v 0.217982 -0.049019 0.250865
v 0.204019 -0.064777 0.235107
v 0.217982 0.033399 0.250865
v 0.204019 0.049157 0.235107
v 0.142056 -0.061183 0.238701
v 0.153749 -0.086139 0.292074
v 0.142056 -0.061183 0.345447
v 0.139634 -0.057842 0.292074
v 0.153749 -0.007810 0.370403
v 0.142056 0.045563 0.345447
v 0.139634 -0.007810 0.342106
v 0.153749 0.070519 0.292074
v 0.142056 0.045563 0.238701
v 0.139634 0.042222 0.292074
v 0.153749 -0.007810 0.213745
v 0.139634 -0.007810 0.242042
v 0.215712 0.045563 0.238701
v 0.218135 -0.007810 0.242042
v 0.215712 -0.061183 0.238701
v 0.204019 -0.007810 0.213745
v 0.215712 -0.061183 0.345447
v 0.204019 -0.086139 0.292074
v 0.218135 -0.057842 0.292074
v 0.204019 0.070519 0.292074
v 0.215712 0.045563 0.345447
v 0.218135 0.042222 0.292074
v 0.204019 -0.007810 0.370403
v 0.218135 -0.007810 0.342106
v 0.178884 -0.065282 0.234602
v 0.178884 -0.065282 0.349546
v 0.178884 0.049662 0.349546
v 0.178884 0.049662 0.234602
v 0.142041 -0.081209 0.292074
v 0.142041 -0.007810 0.365474
v 0.142041 0.065590 0.292074
v 0.142041 -0.007810 0.218675
v 0.215727 -0.007810 0.218675
v 0.215727 -0.081209 0.292074
v 0.215727 0.065590 0.292074
v 0.215727 -0.007810 0.365474
v 0.178884 -0.086834 0.292074
v 0.139313 -0.007810 0.292074
v 0.178884 -0.007810 0.371098
v 0.178884 0.071214 0.292074
v 0.178884 -0.007810 0.213050
v 0.218456 -0.007810 0.292074
v 0.153749 -0.064777 -0.237551
v 0.139786 -0.049019 -0.253308
v 0.153749 0.049157 -0.237551
v 0.139786 0.033399 -0.253308
v 0.139786 -0.049019 -0.335727
v 0.153749 -0.064777 -0.351484
v 0.153749 0.049157 -0.351484
v 0.139786 0.033399 -0.335727
v 0.217982 -0.049019 -0.253308
v 0.204019 -0.064777 -0.237551
v 0.204019 0.049157 -0.237551
v 0.217982 0.033399 -0.253308
v 0.217982 -0.049019 -0.335727
v 0.204019 -0.064777 -0.351484
v 0.217982 0.033399 -0.335727
v 0.204019 0.049157 -0.351484
v 0.142056 -0.061183 -0.347891
v 0.153749 -0.086139 -0.294518
v 0.142056 -0.061183 -0.241144
v 0.139634 -0.057842 -0.294518
v 0.153749 -0.007810 -0.216188
v 0.142056 0.045563 -0.241144
v 0.139634 -0.007810 -0.244485
v 0.153749 0.070519 -0.294518
v 0.142056 0.045563 -0.347891
v 0.139634 0.042222 -0.294518
v 0.153749 -0.007810 -0.372847
v 0.139634 -0.007810 -0.344550
v 0.215712 0.045563 -0.347891
v 0.218135 -0.007810 -0.344550
v 0.215712 -0.061183 -0.347891
v 0.204019 -0.007810 -0.372847
v 0.215712 -0.061183 -0.241144
v 0.204019 -0.086139 -0.294518
v 0.218135 -0.057842 -0.294518
v 0.204019 0.070519 -0.294518
v 0.215712 0.045563 -0.241144
v 0.218135 0.042222 -0.294518
v 0.204019 -0.007810 -0.216188
v 0.218135 -0.007810 -0.244485
v 0.178884 -0.065282 -0.351990
v 0.178884 -0.065282 -0.237046
v 0.178884 0.049662 -0.237046
v 0.178884 0.049662 -0.351990
v 0.142041 -0.081209 -0.294518
v 0.142041 -0.007810 -0.221118
v 0.142041 0.065590 -0.294518
v 0.142041 -0.007810 -0.367917
v 0.215727 -0.007810 -0.367917
v 0.215727 -0.081209 -0.294518
v 0.215727 0.065590 -0.294518
v 0.215727 -0.007810 -0.221118
v 0.178884 -0.086834 -0.294518
v 0.139313 -0.007810 -0.294518
v 0.178884 -0.007810 -0.215494
v 0.178884 0.071214 -0.294518
v 0.178884 -0.007810 -0.373542
v 0.218456 -0.007810 -0.294518
vn -0.3679 -0.8707 -0.3265
vn -0.3667 -0.8710 0.3269
vn -0.9944 -0.1025 0.0256
vn -0.9897 -0.1341 -0.0506
vn -0.3679 -0.3265 0.8707
vn -0.3667 0.3269 0.8710
vn -0.9944 0.0256 0.1025
vn -0.9897 -0.0506 0.1341
vn -0.3679 0.8707 0.3265
vn -0.3667 0.8710 -0.3269
vn -0.9944 0.1025 -0.0256
vn -0.9897 0.1341 0.0506
vn -0.3679 0.3265 -0.8707
vn -0.3667 -0.3269 -0.8710
vn -0.9944 -0.0256 -0.1025
vn -0.9897 0.0506 -0.1341
vn 0.9897 0.0506 -0.1341
vn 0.9944 -0.0256 -0.1025
vn 0.3667 -0.3269 -0.8710
vn 0.3679 0.3265 -0.8707
vn 0.3679 -0.8707 0.3265
vn 0.3667 -0.8710 -0.3269
vn 0.9944 -0.1025 -0.0256
vn 0.9897 -0.1341 0.0506
vn 0.3679 0.8707 -0.3265
vn 0.3667 0.8710 0.3269
vn 0.9944 0.1025 0.0256
vn 0.9897 0.1341 -0.0506
vn 0.3679 0.3265 0.8707
vn 0.3667 -0.3269 0.8710
vn 0.9944 -0.0256 0.1025
vn 0.9897 0.0506 0.1341
vn -0.0259 -0.9360 -0.3510
vn 0.0259 -0.9360 -0.3510
vn 0.0259 -0.9360 0.3510
vn -0.0259 -0.9360 0.3510
vn -1.0000 -0.0064 0.0051
vn -1.0000 0.0051 0.0064
vn -1.0000 0.0051 -0.0064
vn -1.0000 -0.0064 -0.0051
vn 0.0259 -0.3510 0.9360
vn 0.0259 0.3510 0.9360
vn -0.0259 0.3510 0.9360
vn -0.0259 -0.3510 0.9360
vn 0.0259 0.9360 -0.3510
vn -0.0259 0.9360 -0.3510
vn -0.0259 0.9360 0.3510
vn 0.0259 0.9360 0.3510
vn -0.0259 -0.3510 -0.9360
vn -0.0259 0.3510 -0.9360
vn 0.0259 0.3510 -0.9360
vn 0.0259 -0.3510 -0.9360
vn 1.0000 -0.0064 -0.0051
vn 1.0000 0.0051 -0.0064
vn 1.0000 0.0051 0.0064
vn 1.0000 -0.0064 0.0051
vn -0.0000 1.0000 -0.0000
vn -0.0000 -0.0000 1.0000
vn -1.0000 -0.0000 -0.0000
vn -0.0000 -1.0000 -0.0000
vn 1.0000 -0.0000 -0.0000
vn -0.0000 0.0524 -0.9986
vn -0.0000 0.8066 -0.5911
vn -0.0000 0.9999 -0.0104
vn -0.0000 0.8052 0.5930
vn -0.3667 -0.8710 -0.3269
vn -0.3679 -0.8707 0.3265
vn -0.9897 -0.1341 0.0506
vn -0.9944 -0.1025 -0.0256
vn -0.3667 -0.3269 0.8710
vn -0.3679 0.3265 0.8707
vn -0.9897 0.0506 0.1341
vn -0.9944 -0.0256 0.1025
vn -0.3667 0.8710 0.3269
vn -0.3679 0.8707 -0.3265
vn -0.9897 0.1341 -0.0506
vn -0.9944 0.1025 0.0256
vn -0.3667 0.3269 -0.8710
vn -0.3679 -0.3265 -0.8707
vn -0.9897 -0.0506 -0.1341
vn -0.9944 0.0256 -0.1025
vn 0.9944 0.0256 -0.1025
vn 0.9897 -0.0506 -0.1341
vn 0.3679 -0.3265 -0.8707
vn 0.3667 0.3269 -0.8710
vn 0.3667 -0.8710 0.3269
vn 0.3679 -0.8707 -0.3265
vn 0.9897 -0.1341 -0.0506
vn 0.9944 -0.1025 0.0256
vn 0.3667 0.8710 -0.3269
vn 0.3679 0.8707 0.3265
vn 0.9897 0.1341 0.0506
vn 0.9944 0.1025 -0.0256
vn 0.3667 0.3269 0.8710
vn 0.3679 -0.3265 0.8707
vn 0.9897 -0.0506 0.1341
vn 0.9944 0.0256 0.1025
vn -1.0000 -0.0051 0.0064
vn -1.0000 0.0064 0.0051
vn -1.0000 0.0064 -0.0051
vn -1.0000 -0.0051 -0.0064
vn 1.0000 -0.0051 -0.0064
vn 1.0000 0.0064 -0.0051
vn 1.0000 0.0064 0.0051
vn 1.0000 -0.0051 0.0064
vt 0.239794 0.916056
vt 0.241092 0.918436
vt 0.239794 0.919845
vt 0.241092 0.913583
vt 0.240292 0.915998
vt 0.241713 0.914196
vt 0.241339 0.915957
vt 0.241713 0.917732
vt 0.243460 0.912267
vt 0.239794 0.912267
vt 0.256383 0.832772
vt 0.266402 0.838339
vt 0.256383 0.834895
vt 0.263774 0.840933
vt 0.256383 0.839320
vt 0.243460 0.912769
vt 0.271891 0.848800
vt 0.271891 0.832772
vt 0.266402 0.858870
vt 0.269785 0.848554
vt 0.263774 0.855889
vt 0.265357 0.848382
vt 0.256383 0.868409
vt 0.271891 0.864827
vt 0.243460 0.920691
vt 0.243460 0.919316
vt 0.243460 0.918099
vt 0.256383 0.862592
vt 0.560308 0.564692
vt 0.500000 0.511696
vt 0.583214 0.541785
vt 0.286792 0.848897
vt 0.301048 0.836369
vt 0.301048 0.845879
vt 0.281378 0.843482
vt 0.301048 0.825614
vt 0.500000 0.466196
vt 0.629383 0.495617
vt 0.263523 0.863153
vt 0.281378 0.882823
vt 0.270464 0.893737
vt 0.274266 0.863153
vt 0.283774 0.863153
vt 0.286792 0.877409
vt 0.658747 0.625000
vt 0.583214 0.708214
vt 0.613298 0.625000
vt 0.560309 0.685309
vt 0.573074 0.625000
vt 0.500000 0.783747
vt 0.629383 0.754383
vt 0.301048 0.900678
vt 0.301048 0.889935
vt 0.301048 0.880427
vt 0.500000 0.738299
vt 0.232719 0.926932
vt 0.236101 0.930598
vt 0.232719 0.930598
vt 0.270464 0.832569
vt 0.241735 0.863153
vt 0.242470 0.833087
vt 0.242470 0.893219
vt 0.210944 0.925825
vt 0.243460 0.915943
vt 0.256383 0.848323
vt 0.256383 0.857445
vt 0.301048 0.922466
vt 0.270982 0.921731
vt 0.500000 0.875916
vt 0.256383 0.941448
vt 0.271891 0.955755
vt 0.256383 0.955755
vt 0.240874 0.955755
vt 0.240602 0.941062
vt 0.750916 0.625000
vt 0.301821 0.894808
vt 0.287514 0.910316
vt 0.287128 0.894536
vt 0.301821 0.925825
vt 0.287128 0.926097
vt 0.243460 0.923322
vt 0.239730 0.923324
vt 0.256383 0.879539
vt 0.500000 0.376932
vt 0.301048 0.804513
vt 0.270982 0.804526
vt 0.301048 0.863153
vt 0.048096 0.857132
vt 0.044931 0.860296
vt 0.044931 0.856462
vt 0.500000 0.625000
vt 0.500000 0.698075
vt 0.064606 0.864231
vt 0.051490 0.866854
vt 0.051490 0.864231
vt 0.038373 0.879971
vt 0.038373 0.866854
vt 0.038373 0.837998
vt 0.051490 0.840621
vt 0.038373 0.840621
vt 0.038373 0.864231
vt 0.018999 0.870614
vt 0.018999 0.866710
vt 0.038373 0.853738
vt 0.051490 0.853738
vt 0.038373 0.856361
vt 0.051490 0.856361
vt 0.038373 0.858984
vt 0.051490 0.858984
vt 0.038373 0.861607
vt 0.375000 0.650000
vt 0.625000 0.700000
vt 0.375000 0.700000
vt 0.018999 0.855001
vt 0.018999 0.851097
vt 0.018999 0.858904
vt 0.018999 0.862807
vt 0.625000 0.000000
vt 0.375000 0.050000
vt 0.375000 0.000000
vt 0.625000 0.050000
vt 0.375000 0.100000
vt 0.625000 0.100000
vt 0.375000 0.150000
vt 0.625000 0.200000
vt 0.375000 0.200000
vt 0.064606 0.853738
vt 0.064606 0.856361
vt 0.064606 0.858984
vt 0.051490 0.861607
vt 0.130138 0.883557
vt 0.017500 0.986253
vt 0.017500 0.883557
vt 0.500000 0.551926
vt 0.268165 0.854425
vt 0.274163 0.865430
vt 0.268165 0.871939
vt 0.274163 0.842993
vt 0.270467 0.854156
vt 0.277035 0.845828
vt 0.275305 0.853969
vt 0.277035 0.862172
vt 0.285112 0.836911
vt 0.268165 0.836911
vt 0.500000 0.000000
vt 0.580758 0.044863
vt 0.500000 0.017109
vt 0.559578 0.065770
vt 0.500000 0.052776
vt 0.285112 0.839230
vt 0.625000 0.129179
vt 0.580758 0.210345
vt 0.608020 0.127199
vt 0.559578 0.186319
vt 0.572334 0.125816
vt 0.500000 0.287227
vt 0.625000 0.258357
vt 0.285112 0.875853
vt 0.285112 0.869497
vt 0.285112 0.863872
vt 0.500000 0.240347
vt 0.251639 0.896047
vt 0.242188 0.887742
vt 0.255228 0.892457
vt 0.232737 0.896047
vt 0.242188 0.894046
vt 0.229147 0.892457
vt 0.242188 0.880611
vt 0.262463 0.885222
vt 0.217310 0.905497
vt 0.229147 0.918538
vt 0.221912 0.925773
vt 0.224433 0.905497
vt 0.230736 0.905497
vt 0.232737 0.914948
vt 0.267065 0.905497
vt 0.255228 0.918538
vt 0.259943 0.905497
vt 0.251639 0.914948
vt 0.253639 0.905497
vt 0.242188 0.930375
vt 0.262463 0.925773
vt 0.242188 0.923252
vt 0.242188 0.916949
vt 0.235458 0.904701
vt 0.251093 0.921649
vt 0.235458 0.921649
vt 0.221912 0.885222
vt 0.202867 0.905497
vt 0.203354 0.885565
vt 0.203354 0.925430
vt 0.235458 0.938596
vt 0.285112 0.853904
vt 0.500000 0.125335
vt 0.500000 0.198856
vt 0.242188 0.944818
vt 0.222255 0.944331
vt 0.625000 0.991234
vt 0.500000 0.991234
vt 0.285112 0.955668
vt 0.268165 0.971303
vt 0.267868 0.955247
vt 0.281508 0.905497
vt 0.866234 0.500000
vt 0.747809 0.497809
vt 0.866234 0.750000
vt 0.747809 0.752192
vt 0.285112 0.888016
vt 0.267868 0.888023
vt 0.242188 0.866623
vt 0.222255 0.866631
vt 0.242188 0.905497
vt 0.044931 0.827505
vt 0.049168 0.829858
vt 0.044931 0.828402
vt 0.048057 0.830955
vt 0.044931 0.830273
vt 0.051490 0.834282
vt 0.051490 0.827505
vt 0.049169 0.838540
vt 0.050599 0.834178
vt 0.048057 0.837280
vt 0.048727 0.834106
vt 0.044931 0.842574
vt 0.051490 0.841060
vt 0.044931 0.840115
vt 0.044931 0.834080
vt 0.044931 0.837938
vt 0.044931 0.873460
vt 0.051490 0.879511
vt 0.044931 0.879511
vt 0.064146 0.853738
vt 0.058096 0.860296
vt 0.057933 0.853623
vt 0.044931 0.847281
vt 0.243460 0.913815
vt 0.236193 0.926867
vt 0.225637 0.926097
vt 0.627192 0.872809
vt 0.272163 0.941062
vt 0.301821 0.910316
vt 0.272163 0.879545
vt 0.627192 0.376987
vt 0.051490 0.879971
vt 0.625000 0.250000
vt 0.051490 0.830128
vt 0.051490 0.832751
vt 0.038373 0.832751
vt 0.625000 0.150000
vt 0.064606 0.861607
vt 0.130138 0.986253
vt 0.285112 0.844066
vt 0.251514 0.904404
vt 0.251514 0.938894
vt 0.262120 0.944331
vt 0.285112 0.971303
vt 0.281022 0.885565
vt 0.866234 0.625000
vt 0.281022 0.925430
vt 0.262120 0.866631
vt 0.064146 0.860296
vt 0.064146 0.866854
vt 0.051605 0.847284
s 0
usemtl 
f 18/1/1 17/2/1 6/3/1
f 18/1/2 19/4/2 45/5/2
f 45/5/3 2/6/3 20/7/3
f 45/5/4 5/8/4 17/2/4
f 21/9/5 19/4/5 1/10/5
f 21/11/6 22/12/6 46/13/6
f 46/13/7 4/14/7 23/15/7
f 46/16/8 2/6/8 19/4/8
f 24/17/9 22/12/9 3/18/9
f 24/17/10 25/19/10 47/20/10
f 47/20/11 8/21/11 26/22/11
f 47/20/12 4/14/12 22/12/12
f 27/23/13 25/19/13 7/24/13
f 27/25/14 17/2/14 48/26/14
f 48/26/15 5/8/15 28/27/15
f 48/28/16 8/21/16 25/19/16
f 15/29/17 49/30/17 29/31/17
f 13/32/18 49/33/18 30/34/18
f 31/35/19 32/36/19 49/33/19
f 29/31/20 32/37/20 16/38/20
f 34/39/21 33/40/21 10/41/21
f 34/39/22 31/35/22 50/42/22
f 50/42/23 13/32/23 35/43/23
f 50/42/24 9/44/24 33/40/24
f 36/45/25 29/31/25 16/38/25
f 36/45/26 37/46/26 51/47/26
f 51/47/27 12/48/27 38/49/27
f 51/47/28 15/29/28 29/31/28
f 39/50/29 37/46/29 11/51/29
f 39/52/30 33/40/30 52/53/30
f 52/53/31 9/44/31 40/54/31
f 52/55/32 12/48/32 37/46/32
f 6/56/33 53/57/33 18/58/33
f 14/59/34 53/60/34 41/61/34
f 53/60/35 10/41/35 42/62/35
f 53/57/36 1/63/36 18/58/36
f 2/6/37 54/64/37 20/7/37
f 4/14/38 54/65/38 23/15/38
f 54/65/39 8/21/39 28/66/39
f 54/64/40 5/8/40 20/7/40
f 10/41/41 55/67/41 42/68/41
f 11/51/42 55/69/42 39/50/42
f 55/70/43 3/71/43 21/72/43
f 55/70/44 1/73/44 42/74/44
f 16/38/45 56/75/45 36/45/45
f 7/76/46 56/77/46 44/78/46
f 56/77/47 3/79/47 43/80/47
f 56/75/48 11/51/48 36/45/48
f 6/3/49 57/81/49 41/82/49
f 7/24/50 57/83/50 27/23/50
f 57/84/51 16/38/51 32/37/51
f 57/85/52 14/59/52 41/86/52
f 13/32/53 58/87/53 35/43/53
f 15/88/54 58/89/54 30/90/54
f 58/91/55 12/48/55 40/92/55
f 58/87/56 9/44/56 35/43/56
f 100/1/1 99/2/1 88/3/1
f 100/1/2 101/4/2 127/5/2
f 127/5/3 84/6/3 102/7/3
f 127/5/4 87/8/4 99/2/4
f 103/9/5 101/4/5 83/10/5
f 103/11/6 104/12/6 128/13/6
f 128/13/7 86/14/7 105/15/7
f 128/16/8 84/6/8 101/4/8
f 106/17/9 104/12/9 85/18/9
f 106/17/10 107/19/10 129/20/10
f 129/20/11 90/21/11 108/22/11
f 129/20/12 86/14/12 104/12/12
f 109/23/13 107/19/13 89/24/13
f 109/25/14 99/2/14 130/26/14
f 130/26/15 87/8/15 110/27/15
f 130/28/16 90/21/16 107/19/16
f 97/29/17 131/30/17 111/31/17
f 95/32/18 131/33/18 112/34/18
f 113/35/19 114/36/19 131/33/19
f 111/31/20 114/37/20 98/38/20
f 116/39/21 115/40/21 92/41/21
f 116/39/22 113/35/22 132/42/22
f 132/42/23 95/32/23 117/43/23
f 132/42/24 91/44/24 115/40/24
f 118/45/25 111/31/25 98/38/25
f 118/45/26 119/46/26 133/47/26
f 133/47/27 94/48/27 120/49/27
f 133/47/28 97/29/28 111/31/28
f 121/50/29 119/46/29 93/51/29
f 121/52/30 115/40/30 134/53/30
f 134/53/31 91/44/31 122/54/31
f 134/55/32 94/48/32 119/46/32
f 88/56/33 135/57/33 100/58/33
f 96/59/34 135/60/34 123/61/34
f 135/60/35 92/41/35 124/62/35
f 135/57/36 83/63/36 100/58/36
f 84/6/37 136/64/37 102/7/37
f 86/14/38 136/65/38 105/15/38
f 136/65/39 90/21/39 110/66/39
f 136/64/40 87/8/40 102/7/40
f 92/41/41 137/67/41 124/68/41
f 93/51/42 137/69/42 121/50/42
f 137/70/43 85/71/43 103/72/43
f 137/70/44 83/73/44 124/74/44
f 98/38/45 138/75/45 118/45/45
f 89/76/46 138/77/46 126/78/46
f 138/77/47 85/79/47 125/80/47
f 138/75/48 93/51/48 118/45/48
f 88/3/49 139/81/49 123/82/49
f 89/24/50 139/83/50 109/23/50
f 139/84/51 98/38/51 114/37/51
f 139/85/52 96/59/52 123/86/52
f 95/32/53 140/87/53 117/43/53
f 97/29/54 140/91/54 112/134/54
f 140/91/55 94/48/55 122/92/55
f 140/87/56 91/44/56 117/43/56
f 158/135/1 157/136/1 146/137/1
f 158/135/2 159/138/2 185/139/2
f 185/139/3 142/140/3 160/141/3
f 185/139/4 145/142/4 157/136/4
f 161/143/5 159/138/5 141/144/5
f 161/145/6 162/146/6 186/147/6
f 186/147/7 144/148/7 163/149/7
f 186/150/8 142/140/8 159/138/8
f 164/151/9 162/146/9 143/118/9
f 164/151/10 165/152/10 187/153/10
f 187/153/11 148/154/11 166/155/11
f 187/153/12 144/148/12 162/146/12
f 167/156/13 165/152/13 147/157/13
f 167/158/14 157/136/14 188/159/14
f 188/159/15 145/142/15 168/160/15
f 188/161/16 148/154/16 165/152/16
f 155/162/17 189/163/17 169/164/17
f 153/165/18 189/163/18 170/166/18
f 171/167/19 172/168/19 189/163/19
f 169/164/20 172/168/20 156/169/20
f 174/170/21 173/171/21 150/172/21
f 174/170/22 171/167/22 190/173/22
f 190/173/23 153/165/23 175/174/23
f 190/173/24 149/175/24 173/171/24
f 176/176/25 169/164/25 156/169/25
f 176/176/26 177/177/26 191/178/26
f 191/178/27 152/179/27 178/180/27
f 191/178/28 155/162/28 169/164/28
f 179/181/29 177/177/29 151/182/29
f 179/181/30 173/171/30 192/183/30
f 192/183/31 149/175/31 180/184/31
f 192/183/32 152/179/32 177/177/32
f 146/185/33 193/186/33 158/187/33
f 154/188/34 193/189/34 181/190/34
f 193/189/35 150/172/35 182/191/35
f 193/186/36 141/192/36 158/187/36
f 142/140/37 194/193/37 160/141/37
f 144/148/38 194/194/38 163/149/38
f 194/194/39 148/154/39 168/195/39
f 194/193/40 145/142/40 160/141/40
f 150/172/41 195/196/41 182/197/41
f 151/182/42 195/196/42 179/181/42
f 195/69/43 143/198/43 161/199/43
f 195/200/44 141/201/44 182/202/44
f 156/169/45 196/203/45 176/176/45
f 147/204/46 196/75/46 184/205/46
f 196/75/47 143/206/47 183/207/47
f 196/203/48 151/182/48 176/176/48
f 146/137/49 197/208/49 181/209/49
f 147/157/50 197/84/50 167/156/50
f 197/210/51 156/169/51 172/168/51
f 197/210/52 154/188/52 181/211/52
f 153/165/53 198/212/53 175/174/53
f 155/162/54 198/212/54 170/166/54
f 198/212/55 152/179/55 180/184/55
f 198/212/56 149/175/56 175/174/56
f 216/135/1 215/136/1 204/137/1
f 216/135/2 217/138/2 243/139/2
f 243/139/3 200/140/3 218/141/3
f 243/139/4 203/142/4 215/136/4
f 219/143/5 217/138/5 199/144/5
f 219/213/6 220/214/6 244/215/6
f 244/215/7 202/216/7 221/217/7
f 244/150/8 200/140/8 217/138/8
f 222/218/9 220/214/9 201/219/9
f 222/218/10 223/220/10 245/221/10
f 245/221/11 206/222/11 224/223/11
f 245/221/12 202/216/12 220/214/12
f 225/224/13 223/220/13 205/225/13
f 225/158/14 215/136/14 246/159/14
f 246/159/15 203/142/15 226/160/15
f 246/226/16 206/222/16 223/220/16
f 213/162/17 247/163/17 227/164/17
f 211/165/18 247/163/18 228/166/18
f 229/167/19 230/168/19 247/163/19
f 227/164/20 230/168/20 214/169/20
f 232/170/21 231/171/21 208/172/21
f 232/170/22 229/167/22 248/173/22
f 248/173/23 211/165/23 233/174/23
f 248/173/24 207/175/24 231/171/24
f 234/176/25 227/164/25 214/169/25
f 234/176/26 235/177/26 249/178/26
f 249/178/27 210/179/27 236/180/27
f 249/178/28 213/162/28 227/164/28
f 237/181/29 235/177/29 209/182/29
f 237/181/30 231/171/30 250/183/30
f 250/183/31 207/175/31 238/184/31
f 250/183/32 210/179/32 235/177/32
f 204/185/33 251/186/33 216/187/33
f 212/188/34 251/189/34 239/190/34
f 251/189/35 208/172/35 240/191/35
f 251/186/36 199/192/36 216/187/36
f 200/140/37 252/193/37 218/141/37
f 202/216/38 252/227/38 221/217/38
f 252/227/39 206/222/39 226/228/39
f 252/193/40 203/142/40 218/141/40
f 208/172/41 253/196/41 240/197/41
f 209/182/42 253/196/42 237/181/42
f 253/229/43 201/230/43 219/231/43
f 253/200/44 199/201/44 240/202/44
f 214/169/45 254/203/45 234/176/45
f 205/232/46 254/233/46 242/234/46
f 254/75/47 201/206/47 241/207/47
f 254/203/48 209/182/48 234/176/48
f 204/137/49 255/208/49 239/209/49
f 205/225/50 255/235/50 225/224/50
f 255/210/51 214/169/51 230/168/51
f 255/210/52 212/188/52 239/211/52
f 211/165/53 256/212/53 233/174/53
f 213/162/54 256/212/54 228/166/54
f 256/212/55 210/179/55 238/184/55
f 256/212/56 207/175/56 233/174/56
f 18/1/66 45/5/66 17/2/66
f 18/1/67 1/10/67 19/4/67
f 45/5/68 19/4/68 2/6/68
f 45/5/69 20/7/69 5/8/69
f 21/9/70 46/16/70 19/4/70
f 21/11/71 3/18/71 22/12/71
f 46/13/72 22/12/72 4/14/72
f 46/16/73 23/236/73 2/6/73
f 24/17/74 47/20/74 22/12/74
f 24/17/75 7/24/75 25/19/75
f 47/20/76 25/19/76 8/21/76
f 47/20/77 26/22/77 4/14/77
f 27/23/78 48/28/78 25/19/78
f 27/25/79 6/3/79 17/2/79
f 48/26/80 17/2/80 5/8/80
f 48/28/81 28/66/81 8/21/81
f 15/29/82 30/134/82 49/30/82
f 13/32/83 31/35/83 49/33/83
f 31/35/84 14/59/84 32/36/84
f 29/31/85 49/30/85 32/37/85
f 34/39/86 50/42/86 33/40/86
f 34/39/87 14/59/87 31/35/87
f 50/42/88 31/35/88 13/32/88
f 50/42/89 35/43/89 9/44/89
f 36/45/90 51/47/90 29/31/90
f 36/45/91 11/51/91 37/46/91
f 51/47/92 37/46/92 12/48/92
f 51/47/93 38/49/93 15/29/93
f 39/50/94 52/55/94 37/46/94
f 39/52/95 10/41/95 33/40/95
f 52/53/96 33/40/96 9/44/96
f 52/55/97 40/92/97 12/48/97
f 6/56/33 41/237/33 53/57/33
f 14/59/34 34/39/34 53/60/34
f 53/60/35 34/39/35 10/41/35
f 53/57/36 42/238/36 1/63/36
f 2/6/98 23/236/98 54/64/98
f 4/14/99 26/22/99 54/65/99
f 54/65/100 26/22/100 8/21/100
f 54/64/101 28/27/101 5/8/101
f 10/41/41 39/52/41 55/67/41
f 11/51/42 43/239/42 55/69/42
f 55/70/43 43/240/43 3/71/43
f 55/70/44 21/72/44 1/73/44
f 16/38/45 44/205/45 56/75/45
f 7/76/46 24/241/46 56/77/46
f 56/77/47 24/241/47 3/79/47
f 56/75/48 43/207/48 11/51/48
f 6/3/49 27/25/49 57/81/49
f 7/24/50 44/242/50 57/83/50
f 57/84/51 44/243/51 16/38/51
f 57/85/52 32/36/52 14/59/52
f 13/32/102 30/34/102 58/87/102
f 15/29/103 38/49/103 58/91/103
f 58/91/104 38/49/104 12/48/104
f 58/87/105 40/54/105 9/44/105
f 100/1/66 127/5/66 99/2/66
f 100/1/67 83/10/67 101/4/67
f 127/5/68 101/4/68 84/6/68
f 127/5/69 102/7/69 87/8/69
f 103/9/70 128/16/70 101/4/70
f 103/11/71 85/18/71 104/12/71
f 128/13/72 104/12/72 86/14/72
f 128/16/73 105/236/73 84/6/73
f 106/17/74 129/20/74 104/12/74
f 106/17/75 89/24/75 107/19/75
f 129/20/76 107/19/76 90/21/76
f 129/20/77 108/22/77 86/14/77
f 109/23/78 130/28/78 107/19/78
f 109/25/79 88/3/79 99/2/79
f 130/26/80 99/2/80 87/8/80
f 130/28/81 110/66/81 90/21/81
f 97/29/82 112/134/82 131/30/82
f 95/32/83 113/35/83 131/33/83
f 113/35/84 96/59/84 114/36/84
f 111/31/85 131/30/85 114/37/85
f 116/39/86 132/42/86 115/40/86
f 116/39/87 96/59/87 113/35/87
f 132/42/88 113/35/88 95/32/88
f 132/42/89 117/43/89 91/44/89
f 118/45/90 133/47/90 111/31/90
f 118/45/91 93/51/91 119/46/91
f 133/47/92 119/46/92 94/48/92
f 133/47/93 120/49/93 97/29/93
f 121/50/94 134/55/94 119/46/94
f 121/52/95 92/41/95 115/40/95
f 134/53/96 115/40/96 91/44/96
f 134/55/97 122/92/97 94/48/97
f 88/56/33 123/237/33 135/57/33
f 96/59/34 116/39/34 135/60/34
f 135/60/35 116/39/35 92/41/35
f 135/57/36 124/238/36 83/63/36
f 84/6/98 105/236/98 136/64/98
f 86/14/99 108/22/99 136/65/99
f 136/65/100 108/22/100 90/21/100
f 136/64/101 110/27/101 87/8/101
f 92/41/41 121/52/41 137/67/41
f 93/51/42 125/239/42 137/69/42
f 137/70/43 125/240/43 85/71/43
f 137/70/44 103/72/44 83/73/44
f 98/38/45 126/205/45 138/75/45
f 89/76/46 106/241/46 138/77/46
f 138/77/47 106/241/47 85/79/47
f 138/75/48 125/207/48 93/51/48
f 88/3/49 109/25/49 139/81/49
f 89/24/50 126/242/50 139/83/50
f 139/84/51 126/243/51 98/38/51
f 139/85/52 114/36/52 96/59/52
f 95/32/102 112/34/102 140/87/102
f 97/29/103 120/49/103 140/91/103
f 140/91/104 120/49/104 94/48/104
f 140/87/105 122/54/105 91/44/105
f 158/135/66 185/139/66 157/136/66
f 158/135/67 141/144/67 159/138/67
f 185/139/68 159/138/68 142/140/68
f 185/139/69 160/141/69 145/142/69
f 161/143/70 186/150/70 159/138/70
f 161/145/71 143/118/71 162/146/71
f 186/147/72 162/146/72 144/148/72
f 186/150/73 163/252/73 142/140/73
f 164/151/74 187/153/74 162/146/74
f 164/151/75 147/157/75 165/152/75
f 187/153/76 165/152/76 148/154/76
f 187/153/77 166/155/77 144/148/77
f 167/156/78 188/161/78 165/152/78
f 167/158/79 146/137/79 157/136/79
f 188/159/80 157/136/80 145/142/80
f 188/161/81 168/195/81 148/154/81
f 155/162/82 170/166/82 189/163/82
f 153/165/83 171/167/83 189/163/83
f 171/167/84 154/188/84 172/168/84
f 169/164/85 189/163/85 172/168/85
f 174/170/86 190/173/86 173/171/86
f 174/170/87 154/188/87 171/167/87
f 190/173/88 171/167/88 153/165/88
f 190/173/89 175/174/89 149/175/89
f 176/176/90 191/178/90 169/164/90
f 176/176/91 151/182/91 177/177/91
f 191/178/92 177/177/92 152/179/92
f 191/178/93 178/180/93 155/162/93
f 179/181/94 192/183/94 177/177/94
f 179/181/95 150/172/95 173/171/95
f 192/183/96 173/171/96 149/175/96
f 192/183/97 180/184/97 152/179/97
f 146/185/33 181/253/33 193/186/33
f 154/188/34 174/170/34 193/189/34
f 193/189/35 174/170/35 150/172/35
f 193/186/36 182/254/36 141/192/36
f 142/140/98 163/252/98 194/193/98
f 144/148/99 166/155/99 194/194/99
f 194/194/100 166/155/100 148/154/100
f 194/193/101 168/160/101 145/142/101
f 150/172/41 179/181/41 195/196/41
f 151/182/42 183/255/42 195/196/42
f 195/69/43 183/239/43 143/198/43
f 195/200/44 161/256/44 141/201/44
f 156/169/45 184/257/45 196/203/45
f 147/204/46 164/258/46 196/75/46
f 196/75/47 164/258/47 143/206/47
f 196/203/48 183/259/48 151/182/48
f 146/137/49 167/158/49 197/208/49
f 147/157/50 184/243/50 197/84/50
f 197/210/51 184/260/51 156/169/51
f 197/210/52 172/168/52 154/188/52
f 153/165/102 170/166/102 198/212/102
f 155/162/103 178/180/103 198/212/103
f 198/212/104 178/180/104 152/179/104
f 198/212/105 180/184/105 149/175/105
f 216/135/66 243/139/66 215/136/66
f 216/135/67 199/144/67 217/138/67
f 243/139/68 217/138/68 200/140/68
f 243/139/69 218/141/69 203/142/69
f 219/143/70 244/150/70 217/138/70
f 219/213/71 201/219/71 220/214/71
f 244/215/72 220/214/72 202/216/72
f 244/150/73 221/252/73 200/140/73
f 222/218/74 245/221/74 220/214/74
f 222/218/75 205/225/75 223/220/75
f 245/221/76 223/220/76 206/222/76
f 245/221/77 224/223/77 202/216/77
f 225/224/78 246/226/78 223/220/78
f 225/158/79 204/137/79 215/136/79
f 246/159/80 215/136/80 203/142/80
f 246/226/81 226/228/81 206/222/81
f 213/162/82 228/166/82 247/163/82
f 211/165/83 229/167/83 247/163/83
f 229/167/84 212/188/84 230/168/84
f 227/164/85 247/163/85 230/168/85
f 232/170/86 248/173/86 231/171/86
f 232/170/87 212/188/87 229/167/87
f 248/173/88 229/167/88 211/165/88
f 248/173/89 233/174/89 207/175/89
f 234/176/90 249/178/90 227/164/90
f 234/176/91 209/182/91 235/177/91
f 249/178/92 235/177/92 210/179/92
f 249/178/93 236/180/93 213/162/93
f 237/181/94 250/183/94 235/177/94
f 237/181/95 208/172/95 231/171/95
f 250/183/96 231/171/96 207/175/96
f 250/183/97 238/184/97 210/179/97
f 204/185/33 239/253/33 251/186/33
f 212/188/34 232/170/34 251/189/34
f 251/189/35 232/170/35 208/172/35
f 251/186/36 240/254/36 199/192/36
f 200/140/98 221/252/98 252/193/98
f 202/216/99 224/223/99 252/227/99
f 252/227/100 224/223/100 206/222/100
f 252/193/101 226/160/101 203/142/101
f 208/172/41 237/181/41 253/196/41
f 209/182/42 241/255/42 253/196/42
f 253/69/43 241/239/43 201/198/43
f 253/200/44 219/256/44 199/201/44
f 214/169/45 242/257/45 254/203/45
f 205/232/46 222/261/46 254/233/46
f 254/233/47 222/261/47 201/262/47
f 254/203/48 241/259/48 209/182/48
f 204/137/49 225/158/49 255/208/49
f 205/225/50 242/263/50 255/235/50
f 255/210/51 242/260/51 214/169/51
f 255/210/52 230/168/52 212/188/52
f 211/165/102 228/166/102 256/212/102
f 213/162/103 236/180/103 256/212/103
f 256/212/104 236/180/104 210/179/104
f 256/212/105 238/184/105 207/175/105
usemtl Material
f 75/93/57 61/94/57 74/95/57
f 61/94/58 66/96/58 62/97/58
f 67/98/59 63/99/59 64/100/59
f 79/101/60 66/102/60 70/103/60
f 74/95/61 62/97/61 79/101/61
f 63/99/62 60/104/62 64/100/62
f 59/105/61 82/106/61 60/104/61
f 71/107/61 81/108/61 82/106/61
f 72/109/61 80/110/61 81/108/61
f 80/111/61 74/112/61 79/113/61
f 60/104/60 67/114/60 64/115/60
f 82/106/60 68/116/60 67/114/60
f 81/108/60 69/117/60 68/116/60
f 80/110/60 70/103/60 69/117/60
f 65/118/59 70/119/59 66/120/59
f 75/121/59 69/122/59 70/119/59
f 76/123/59 68/124/59 69/122/59
f 68/124/59 78/125/59 67/126/59
f 63/127/63 71/107/63 59/105/63
f 78/128/64 72/109/64 71/107/64
f 77/129/57 73/130/57 72/109/57
f 76/131/65 74/132/65 73/133/65
f 75/93/57 65/219/57 61/94/57
f 61/94/58 65/244/58 66/96/58
f 67/126/59 78/125/59 63/245/59
f 79/101/60 62/97/60 66/102/60
f 74/95/61 61/94/61 62/97/61
f 63/99/62 59/105/62 60/104/62
f 59/105/61 71/107/61 82/106/61
f 71/107/61 72/109/61 81/108/61
f 72/109/61 73/130/61 80/110/61
f 80/110/61 73/130/61 74/95/61
f 60/104/60 82/106/60 67/114/60
f 82/106/60 81/108/60 68/116/60
f 81/108/60 80/110/60 69/117/60
f 80/110/60 79/101/60 70/103/60
f 65/118/59 75/121/59 70/119/59
f 75/246/59 76/247/59 69/248/59
f 76/123/59 77/249/59 68/124/59
f 68/124/59 77/249/59 78/125/59
f 63/127/63 78/128/63 71/107/63
f 78/128/64 77/129/64 72/109/64
f 77/129/57 76/250/57 73/130/57
f 76/131/65 75/251/65 74/132/65
