# Blender 4.5.4 LTS
# www.blender.org
mtllib non_priority_sign.mtl
o Plane
v 0.046478 0.954774 -0.120664
v 0.046478 0.958639 0.111583
v 0.042988 0.743357 0.004130
v 0.035759 0.954774 -0.120664
v 0.035759 0.958639 0.111583
v 0.032269 0.743357 0.004130
v 0.042988 0.706553 0.001615
v 0.032269 0.704676 -0.008730
v 0.032269 0.703287 0.011608
v 0.032269 0.706553 0.001615
v 0.046478 0.976714 0.143750
v 0.035759 0.969093 0.150988
v 0.035759 0.986860 0.141005
v 0.035759 0.976714 0.143750
v 0.046478 0.970342 -0.145300
v 0.035759 0.982151 -0.141988
v 0.035759 0.962281 -0.154544
v 0.035759 0.970342 -0.145300
v 0.042988 0.705245 0.005617
v 0.037488 0.703287 0.011608
v 0.042988 0.703662 0.006121
v 0.037488 0.704676 -0.008730
v 0.042988 0.705809 -0.002484
v 0.042988 0.704301 -0.003243
v 0.046478 0.980598 0.142699
v 0.040977 0.986860 0.141005
v 0.040977 0.969093 0.150988
v 0.046478 0.973681 0.146631
v 0.046478 0.966520 -0.149682
v 0.040977 0.962281 -0.154544
v 0.040977 0.982151 -0.141988
v 0.046478 0.975830 -0.143761
v 0.026817 0.960007 -0.010479
v 0.026817 -0.000925 -0.010479
v 0.028679 0.960007 -0.010296
v 0.028679 -0.000925 -0.010296
v 0.030469 0.960007 -0.009753
v 0.030469 -0.000925 -0.009753
v 0.032120 0.960007 -0.008871
v 0.032120 -0.000925 -0.008871
v 0.033566 0.960007 -0.007684
v 0.033566 -0.000925 -0.007684
v 0.034753 0.960007 -0.006237
v 0.034753 -0.000925 -0.006237
v 0.035635 0.960007 -0.004587
v 0.035635 -0.000925 -0.004587
v 0.036178 0.960007 -0.002797
v 0.036178 -0.000925 -0.002797
v 0.036362 0.960007 -0.000935
v 0.036362 -0.000925 -0.000935
v 0.036178 0.960007 0.000927
v 0.036178 -0.000925 0.000927
v 0.035635 0.960007 0.002717
v 0.035635 -0.000925 0.002717
v 0.034753 0.960007 0.004367
v 0.034753 -0.000925 0.004368
v 0.033566 0.960007 0.005814
v 0.033566 -0.000925 0.005814
v 0.032120 0.960007 0.007001
v 0.032120 -0.000925 0.007001
v 0.030469 0.960007 0.007883
v 0.030469 -0.000925 0.007883
v 0.028679 0.960007 0.008426
v 0.028679 -0.000925 0.008426
v 0.026817 0.960007 0.008609
v 0.026817 -0.000925 0.008609
v 0.024955 0.960007 0.008426
v 0.024955 -0.000925 0.008426
v 0.023165 0.960007 0.007883
v 0.023165 -0.000925 0.007883
v 0.021514 0.960007 0.007001
v 0.021514 -0.000925 0.007001
v 0.020068 0.960007 0.005814
v 0.020068 -0.000925 0.005814
v 0.018882 0.960007 0.004367
v 0.018882 -0.000925 0.004368
v 0.017999 0.960007 0.002717
v 0.017999 -0.000925 0.002717
v 0.017456 0.960007 0.000927
v 0.017456 -0.000925 0.000927
v 0.017273 0.960007 -0.000935
v 0.017273 -0.000925 -0.000935
v 0.017456 0.960007 -0.002797
v 0.017456 -0.000925 -0.002797
v 0.017999 0.960007 -0.004587
v 0.017999 -0.000925 -0.004587
v 0.018882 0.960007 -0.006237
v 0.018882 -0.000925 -0.006237
v 0.020068 0.960007 -0.007684
v 0.020068 -0.000925 -0.007684
v 0.021514 0.960007 -0.008871
v 0.021514 -0.000925 -0.008871
v 0.023165 0.960007 -0.009753
v 0.023165 -0.000925 -0.009753
v 0.024955 0.960007 -0.010296
v 0.024955 -0.000925 -0.010296
v 0.034312 0.926098 -0.022856
v 0.034312 0.919143 -0.022856
v 0.034312 0.926098 0.018582
v 0.034312 0.919143 0.018582
v 0.030616 0.926298 0.018199
v 0.030616 0.919342 0.018199
v 0.027114 0.926519 0.017038
v 0.027114 0.919564 0.017038
v 0.023930 0.926748 0.015142
v 0.023930 0.919793 0.015142
v 0.021168 0.926965 0.012582
v 0.021168 0.920010 0.012582
v 0.018912 0.927149 0.009458
v 0.018912 0.920194 0.009458
v 0.017219 0.927278 0.005886
v 0.017219 0.920322 0.005886
v 0.016123 0.927325 0.002003
v 0.016123 0.920370 0.002003
v 0.015725 0.927325 -0.002039
v 0.015725 0.920370 -0.002039
v 0.016123 0.927325 -0.006081
v 0.016123 0.920370 -0.006081
v 0.017219 0.927278 -0.009972
v 0.017219 0.920322 -0.009972
v 0.018912 0.927149 -0.013564
v 0.018912 0.920194 -0.013564
v 0.021168 0.926965 -0.016718
v 0.021168 0.920010 -0.016718
v 0.023930 0.926748 -0.019312
v 0.023930 0.919793 -0.019312
v 0.027114 0.926519 -0.021245
v 0.027114 0.919564 -0.021245
v 0.030616 0.926298 -0.022442
v 0.030616 0.919342 -0.022442
v 0.034358 0.925573 -0.054088
v 0.034358 0.918618 -0.054088
v 0.030316 0.918618 -0.053690
v 0.030316 0.925573 -0.053690
v 0.034358 0.918618 0.049730
v 0.034358 0.925573 0.049730
v 0.030316 0.925573 0.049332
v 0.030316 0.918618 0.049332
v 0.034312 0.808016 -0.022856
v 0.034312 0.801060 -0.022856
v 0.034312 0.808016 0.018582
v 0.034312 0.801060 0.018582
v 0.030616 0.808215 0.018199
v 0.030616 0.801260 0.018199
v 0.027114 0.808436 0.017038
v 0.027114 0.801481 0.017038
v 0.023930 0.808665 0.015142
v 0.023930 0.801710 0.015142
v 0.021168 0.808883 0.012583
v 0.021168 0.801927 0.012583
v 0.018912 0.809067 0.009458
v 0.018912 0.802112 0.009458
v 0.017219 0.809195 0.005886
v 0.017219 0.802240 0.005886
v 0.016123 0.809243 0.002003
v 0.016123 0.802287 0.002003
v 0.015725 0.809243 -0.002039
v 0.015725 0.802287 -0.002039
v 0.016123 0.809243 -0.006081
v 0.016123 0.802287 -0.006081
v 0.017219 0.809195 -0.009972
v 0.017219 0.802240 -0.009972
v 0.018912 0.809067 -0.013564
v 0.018912 0.802112 -0.013564
v 0.021168 0.808883 -0.016718
v 0.021168 0.801927 -0.016718
v 0.023930 0.808665 -0.019312
v 0.023930 0.801710 -0.019312
v 0.027114 0.808436 -0.021245
v 0.027114 0.801481 -0.021245
v 0.030616 0.808215 -0.022442
v 0.030616 0.801260 -0.022442
v 0.034358 0.807491 -0.054088
v 0.034358 0.800535 -0.054088
v 0.030316 0.800535 -0.053690
v 0.030316 0.807491 -0.053690
v 0.034358 0.800535 0.049730
v 0.034358 0.807491 0.049730
v 0.030316 0.807491 0.049332
v 0.030316 0.800535 0.049332
v 0.033212 0.805307 -0.049388
v 0.027103 0.806526 -0.049388
v 0.033212 0.803108 -0.049388
v 0.027103 0.801888 -0.049388
v 0.028858 0.803043 -0.049388
v 0.028858 0.805372 -0.049388
v 0.033212 0.804207 -0.050487
v 0.027103 0.804207 -0.051707
v 0.033212 0.804207 -0.048288
v 0.027103 0.804207 -0.047069
v 0.028858 0.804207 -0.048223
v 0.028858 0.804207 -0.050552
v 0.027103 0.804207 -0.049388
v 0.033212 0.804207 -0.049388
v 0.033212 0.803108 -0.049940
v 0.033212 0.803656 -0.050487
v 0.027103 0.802442 -0.051707
v 0.027103 0.801888 -0.051153
v 0.033212 0.804759 -0.050487
v 0.033212 0.805307 -0.049940
v 0.027103 0.806526 -0.051153
v 0.027103 0.805972 -0.051707
v 0.033212 0.803656 -0.048288
v 0.033212 0.803108 -0.048836
v 0.027103 0.801888 -0.047623
v 0.027103 0.802442 -0.047069
v 0.033212 0.805307 -0.048836
v 0.033212 0.804759 -0.048288
v 0.027103 0.805972 -0.047069
v 0.027103 0.806526 -0.047623
v 0.028858 0.803593 -0.050552
v 0.028858 0.803043 -0.050002
v 0.028858 0.804822 -0.050552
v 0.028858 0.805372 -0.050002
v 0.028858 0.805372 -0.048773
v 0.028858 0.804822 -0.048223
v 0.028858 0.803593 -0.048223
v 0.028858 0.803043 -0.048773
v 0.033212 0.805307 0.035114
v 0.027103 0.806526 0.035114
v 0.033212 0.803108 0.035114
v 0.027103 0.801888 0.035114
v 0.028858 0.803043 0.035114
v 0.028858 0.805372 0.035114
v 0.033212 0.804207 0.034014
v 0.027103 0.804207 0.032795
v 0.033212 0.804207 0.036214
v 0.027103 0.804207 0.037433
v 0.028858 0.804207 0.036278
v 0.028858 0.804207 0.033949
v 0.027103 0.804207 0.035114
v 0.033212 0.804207 0.035114
v 0.033212 0.803108 0.034562
v 0.033212 0.803656 0.034014
v 0.027103 0.802442 0.032795
v 0.027103 0.801888 0.033349
v 0.033212 0.804759 0.034014
v 0.033212 0.805307 0.034562
v 0.027103 0.806526 0.033349
v 0.027103 0.805972 0.032795
v 0.033212 0.803656 0.036214
v 0.033212 0.803108 0.035665
v 0.027103 0.801888 0.036878
v 0.027103 0.802442 0.037433
v 0.033212 0.805307 0.035665
v 0.033212 0.804759 0.036214
v 0.027103 0.805972 0.037433
v 0.027103 0.806526 0.036878
v 0.028858 0.803593 0.033949
v 0.028858 0.803043 0.034499
v 0.028858 0.804822 0.033949
v 0.028858 0.805372 0.034499
v 0.028858 0.805372 0.035728
v 0.028858 0.804822 0.036278
v 0.028858 0.803593 0.036278
v 0.028858 0.803043 0.035728
v 0.033212 0.923452 -0.041711
v 0.027103 0.924671 -0.041711
v 0.033212 0.921252 -0.041711
v 0.027103 0.920033 -0.041711
v 0.028858 0.921187 -0.041711
v 0.028858 0.923517 -0.041711
v 0.033212 0.922352 -0.042811
v 0.027103 0.922352 -0.044030
v 0.033212 0.922352 -0.040612
v 0.027103 0.922352 -0.039392
v 0.028858 0.922352 -0.040547
v 0.028858 0.922352 -0.042876
v 0.027103 0.922352 -0.041711
v 0.033212 0.922352 -0.041711
v 0.033212 0.921252 -0.042263
v 0.033212 0.921800 -0.042811
v 0.027103 0.920587 -0.044030
v 0.027103 0.920033 -0.043476
v 0.033212 0.922904 -0.042811
v 0.033212 0.923452 -0.042263
v 0.027103 0.924671 -0.043476
v 0.027103 0.924117 -0.044030
v 0.033212 0.921800 -0.040612
v 0.033212 0.921252 -0.041159
v 0.027103 0.920033 -0.039946
v 0.027103 0.920587 -0.039392
v 0.033212 0.923452 -0.041159
v 0.033212 0.922904 -0.040612
v 0.027103 0.924117 -0.039392
v 0.027103 0.924671 -0.039946
v 0.028858 0.921737 -0.042876
v 0.028858 0.921187 -0.042326
v 0.028858 0.922966 -0.042876
v 0.028858 0.923517 -0.042326
v 0.028858 0.923517 -0.041097
v 0.028858 0.922966 -0.040547
v 0.028858 0.921737 -0.040547
v 0.028858 0.921187 -0.041097
v 0.033212 0.923452 0.031631
v 0.027103 0.924671 0.031631
v 0.033212 0.921252 0.031631
v 0.027103 0.920033 0.031631
v 0.028858 0.921187 0.031631
v 0.028858 0.923517 0.031631
v 0.033212 0.922352 0.030531
v 0.027103 0.922352 0.029312
v 0.033212 0.922352 0.032731
v 0.027103 0.922352 0.033950
v 0.028858 0.922352 0.032796
v 0.028858 0.922352 0.030467
v 0.027103 0.922352 0.031631
v 0.033212 0.922352 0.031631
v 0.033212 0.921252 0.031080
v 0.033212 0.921800 0.030531
v 0.027103 0.920587 0.029312
v 0.027103 0.920033 0.029866
v 0.033212 0.922904 0.030531
v 0.033212 0.923452 0.031080
v 0.027103 0.924671 0.029866
v 0.027103 0.924117 0.029312
v 0.033212 0.921800 0.032731
v 0.033212 0.921252 0.032183
v 0.027103 0.920033 0.033396
v 0.027103 0.920587 0.033950
v 0.033212 0.923452 0.032183
v 0.033212 0.922904 0.032731
v 0.027103 0.924117 0.033950
v 0.027103 0.924671 0.033396
v 0.028858 0.921737 0.030467
v 0.028858 0.921187 0.031017
v 0.028858 0.922966 0.030467
v 0.028858 0.923517 0.031017
v 0.028858 0.923517 0.032246
v 0.028858 0.922966 0.032796
v 0.028858 0.921737 0.032796
v 0.028858 0.921187 0.032246
v 0.033212 0.515624 -0.050487
v 0.033212 0.514524 -0.049940
v 0.033212 0.515072 -0.050487
v 0.033212 0.515624 0.034014
v 0.033212 0.515624 0.036214
v 0.027103 0.515624 0.037433
v 0.028858 0.515624 0.036278
v 0.033212 0.516176 0.034014
v 0.033212 0.516723 0.034562
v 0.033212 0.515072 0.036214
v 0.033212 0.514524 0.035665
v 0.028858 0.516238 0.036278
v 0.028858 0.515009 0.036278
vn 0.9999 -0.0163 0.0003
vn 0.9998 -0.0202 -0.0064
vn 0.9999 -0.0172 -0.0012
vn -0.9999 0.0163 -0.0003
vn -0.9999 0.0167 0.0004
vn -0.9998 0.0183 0.0030
vn -1.0000 -0.0000 -0.0000
vn 0.6811 0.2217 0.6979
vn 0.6777 0.3308 -0.6567
vn 0.2677 0.4775 0.8369
vn 0.2692 0.4750 0.8378
vn 0.2777 0.4706 0.8375
vn 0.7481 -0.3158 0.5836
vn 0.3225 0.5057 -0.8002
vn 0.3171 0.5084 -0.8006
vn 0.3152 0.5093 -0.8008
vn 0.7528 0.6581 -0.0110
vn 0.7527 0.6583 -0.0110
vn 0.7353 -0.3414 -0.5855
vn 0.9998 -0.0168 0.0072
vn 1.0000 -0.0000 -0.0000
vn -0.0000 -0.9977 -0.0682
vn -0.0000 -0.4644 0.8856
vn -0.0000 -0.4926 -0.8703
vn 0.9998 -0.0032 0.0181
vn -0.0000 0.4899 0.8718
vn -0.0000 0.9999 -0.0166
vn -0.0000 0.5342 -0.8454
vn -0.9997 0.0044 0.0236
vn -0.9999 0.0152 -0.0040
vn -0.9998 0.0190 0.0042
vn -0.9999 0.0050 -0.0151
vn 0.2665 0.4762 0.8379
vn 0.7381 -0.3213 0.5933
vn 0.3231 0.5055 -0.8000
vn 0.7551 -0.3300 -0.5665
vn 0.9995 -0.0012 -0.0301
vn -0.0000 -0.9977 -0.0681
vn 0.9997 -0.0217 -0.0088
vn -0.0980 -0.0000 0.9952
vn -0.2903 -0.0000 0.9569
vn -0.4711 -0.0000 0.8821
vn -0.4712 -0.0000 0.8820
vn -0.4715 -0.0000 0.8819
vn -0.6344 -0.0000 0.7730
vn -0.7730 -0.0000 0.6344
vn -0.8817 -0.0000 0.4717
vn -0.8818 -0.0000 0.4716
vn -0.9569 -0.0000 0.2903
vn -0.9952 -0.0000 0.0983
vn -0.9952 -0.0000 0.0979
vn -0.9952 -0.0000 -0.0983
vn -0.9952 -0.0000 -0.0979
vn -0.9569 -0.0000 -0.2903
vn -0.8818 -0.0000 -0.4716
vn -0.8817 -0.0000 -0.4717
vn -0.7730 -0.0000 -0.6344
vn -0.6344 -0.0000 -0.7730
vn -0.4712 -0.0000 -0.8820
vn -0.4711 -0.0000 -0.8821
vn -0.4715 -0.0000 -0.8819
vn -0.2903 -0.0000 -0.9569
vn -0.0980 -0.0000 -0.9952
vn 0.0979 -0.0000 -0.9952
vn 0.2903 -0.0000 -0.9569
vn 0.4715 -0.0000 -0.8819
vn 0.4711 -0.0000 -0.8821
vn 0.4712 -0.0000 -0.8820
vn 0.6345 -0.0000 -0.7729
vn 0.6341 -0.0000 -0.7732
vn 0.7730 -0.0000 -0.6344
vn 0.8820 -0.0000 -0.4712
vn 0.8821 -0.0000 -0.4711
vn 0.9569 -0.0000 -0.2903
vn 0.9952 -0.0000 -0.0980
vn 0.9952 -0.0000 0.0980
vn 0.9569 -0.0000 0.2903
vn 0.8821 -0.0000 0.4711
vn 0.8820 -0.0000 0.4712
vn 0.7730 -0.0000 0.6344
vn 0.6345 -0.0000 0.7729
vn 0.4712 -0.0000 0.8820
vn 0.4715 -0.0000 0.8819
vn 0.4711 -0.0000 0.8821
vn -0.0000 1.0000 -0.0000
vn 0.2903 -0.0000 0.9569
vn 0.0979 -0.0000 0.9952
vn -0.0000 -1.0000 -0.0000
vn -0.0017 0.9999 0.0168
vn 0.3147 -0.0000 -0.9492
vn 0.5117 -0.0000 -0.8592
vn 0.6797 -0.0000 -0.7335
vn 0.8108 -0.0000 -0.5854
vn 0.9037 -0.0000 -0.4282
vn 0.9624 -0.0000 -0.2717
vn 0.9625 -0.0000 0.2712
vn 0.9046 -0.0000 0.4263
vn 0.8133 -0.0000 0.5818
vn 0.8134 -0.0000 0.5818
vn 0.6847 -0.0000 0.7289
vn 0.6846 -0.0000 0.7289
vn 0.5189 -0.0000 0.8549
vn 0.3233 -0.0000 0.9463
vn 0.0513 0.9984 -0.0236
vn 0.0980 -0.0000 0.9952
vn 1.0000 -0.0000 -0.0096
vn -1.0000 -0.0000 -0.0015
vn 0.0017 -0.9999 0.0168
vn 0.0980 -0.0000 -0.9952
vn -1.0000 -0.0000 0.0015
vn 1.0000 -0.0000 0.0096
vn -0.0515 -0.9984 -0.0237
vn 0.6805 -0.5182 -0.5181
vn 0.6806 -0.5183 -0.5179
vn 0.6806 -0.5183 -0.5178
vn 0.0207 0.7070 -0.7069
vn 0.0208 0.7072 0.7067
vn 0.0207 0.7067 0.7072
vn 0.0206 0.7067 0.7073
vn 0.0207 -0.7069 0.7070
vn 0.0207 -0.7070 0.7069
vn 0.0208 -0.7072 -0.7067
vn 0.0207 -0.7071 -0.7068
vn 0.0207 -0.7070 -0.7069
vn 0.6806 0.5181 -0.5181
vn 0.6806 0.5181 -0.5180
vn 0.6806 0.5181 0.5180
vn 0.6806 0.5182 0.5179
vn 0.6806 0.5181 0.5181
vn 0.6805 -0.5181 0.5182
vn 0.6805 -0.5181 0.5181
vn 0.6808 -0.5181 0.5178
vn 0.0150 -0.0000 -0.9999
vn 0.0149 -0.9999 -0.0000
vn 0.5496 -0.0000 -0.8354
vn 0.5496 -0.8354 -0.0000
vn 0.0149 0.9999 -0.0000
vn 0.0149 -0.0000 -0.9999
vn 0.5496 0.8354 -0.0000
vn 0.0148 -0.0000 0.9999
vn 0.5496 -0.0000 0.8354
vn 0.0206 0.7067 0.7072
vn 0.0208 -0.7073 0.7066
vn 0.6806 0.5180 0.5182
vn 0.6806 -0.5183 0.5179
vn 0.6805 -0.5182 0.5181
vn 0.5498 -0.0000 0.8353
vn 0.5495 -0.0000 0.8355
vn 0.6806 -0.5181 -0.5181
vn 0.6806 -0.5182 -0.5180
vn 0.6806 -0.5181 -0.5180
vn 0.0207 0.7069 -0.7070
vn 0.0208 0.7072 -0.7067
vn 0.0206 0.7066 -0.7073
vn 0.0207 0.7069 0.7070
vn 0.0207 0.7070 0.7069
vn 0.0206 -0.7067 -0.7072
vn 0.0208 -0.7073 -0.7066
vn 0.6806 0.5180 -0.5182
vn 0.6806 -0.5181 0.5180
vn 0.6806 -0.5181 0.5181
vn 0.0148 -0.0000 -0.9999
vn 0.0150 -0.0000 0.9999
vn 0.0149 -0.0000 0.9999
vn 0.6807 -0.5180 -0.5180
vn 0.6806 -0.5179 -0.5183
vn 0.6806 -0.5178 -0.5184
vn 0.0207 -0.7067 -0.7072
vn 0.6806 0.5180 -0.5181
vn 0.6807 0.5180 -0.5180
vn 0.5498 -0.0000 -0.8353
vn -0.8820 -0.0000 -0.4713
vn -0.0000 -1.0000 -0.0003
vn -0.0000 -1.0000 -0.0001
vn -0.0000 -1.0000 0.0002
vn -0.0000 -1.0000 0.0001
vn -0.0000 -1.0000 0.0003
vn -0.0000 -1.0000 -0.0002
vn 0.0515 0.9984 0.0237
vn -0.0017 0.9999 -0.0168
vn -0.0513 -0.9984 0.0237
vn 0.0017 -0.9999 -0.0169
vn 0.9037 -0.0000 -0.4283
vn -0.0513 -0.9984 0.0236
vn 0.0017 -0.9999 -0.0168
vn 0.6805 -0.5181 -0.5182
vn 0.0208 0.7073 0.7066
vn 0.6805 0.5179 0.5183
vn 0.0206 -0.7067 -0.7073
vn 0.6806 0.5182 -0.5180
vn 0.6806 0.5180 0.5181
vn 0.6807 -0.5181 -0.5180
vn 0.6806 0.5178 -0.5184
vt 0.082172 0.335024
vt 0.082172 0.441401
vt 0.001021 0.388212
vt 0.901926 0.787293
vt 0.977198 0.836629
vt 0.901926 0.885965
vt 0.911039 0.786261
vt 0.879104 0.769009
vt 0.897252 0.773598
vt 0.883076 0.732090
vt 0.915000 0.714844
vt 0.901218 0.727503
vt 0.891182 0.775713
vt 0.895130 0.774715
vt 0.948610 0.660121
vt 0.948610 0.701970
vt 0.942364 0.681045
vt 0.989849 0.832075
vt 0.988489 0.836629
vt 0.898132 0.901296
vt 0.895132 0.898540
vt 0.002346 0.594320
vt 0.002346 0.607883
vt 0.000000 0.596019
vt 0.421454 0.594320
vt 0.429778 0.586673
vt 0.430070 0.589665
vt 0.453533 0.566876
vt 0.458900 0.579749
vt 0.453768 0.585589
vt 0.421904 0.658618
vt 0.427096 0.390128
vt 0.427096 0.657306
vt 0.491817 0.441206
vt 0.496868 0.433983
vt 0.496868 0.439511
vt 0.311376 0.858002
vt 0.626407 0.661331
vt 0.313825 0.866208
vt 0.170522 0.456055
vt 0.600300 0.724641
vt 0.591975 0.732287
vt 0.541905 0.402842
vt 0.541934 0.787030
vt 0.515779 0.440880
vt 0.463785 0.755500
vt 0.463666 0.754270
vt 0.465912 0.752207
vt 0.487025 0.701108
vt 0.491817 0.701108
vt 0.496868 0.703508
vt 0.482279 0.429434
vt 0.487025 0.429374
vt 0.487025 0.441206
vt 0.533283 0.791688
vt 0.243448 0.601684
vt 0.515779 0.749007
vt 0.243487 0.588336
vt 0.533413 0.398308
vt 0.463744 0.516233
vt 0.468883 0.518976
vt 0.465914 0.518226
vt 0.448787 0.566936
vt 0.487025 0.708867
vt 0.449022 0.585649
vt 0.288285 0.639297
vt 0.288309 0.631220
vt 0.289502 0.635218
vt 0.491817 0.429374
vt 0.891182 0.897542
vt 0.898130 0.771960
vt 0.989849 0.841182
vt 0.458803 0.572444
vt 0.421883 0.388810
vt 0.620175 0.655606
vt 0.173807 0.445050
vt 0.536994 0.788279
vt 0.536998 0.401601
vt 0.468901 0.751451
vt 0.469831 0.752234
vt 0.496868 0.707605
vt 0.487025 0.710006
vt 0.491817 0.710006
vt 0.245460 0.594944
vt 0.280721 0.594944
vt 0.482279 0.708927
vt 0.958167 1.009843
vt 0.926917 0.509843
vt 0.958167 0.509843
vt 0.972099 0.765533
vt 0.968620 0.709859
vt 0.972099 0.709859
vt 0.968620 0.765533
vt 0.965140 0.709859
vt 0.965140 0.765533
vt 0.961661 0.709859
vt 0.961661 0.765533
vt 0.958181 0.709859
vt 0.843750 1.000000
vt 0.812500 0.500000
vt 0.843750 0.500000
vt 0.954701 0.765533
vt 0.951222 0.709859
vt 0.954701 0.709859
vt 0.951222 0.765533
vt 0.947742 0.709859
vt 0.947742 0.765533
vt 0.944263 0.709859
vt 0.944263 0.765533
vt 0.940783 0.709859
vt 0.940783 0.765533
vt 0.937303 0.709859
vt 0.937303 0.765533
vt 0.933824 0.709859
vt 0.933824 0.765533
vt 0.930344 0.709859
vt 0.930344 0.765533
vt 0.926864 0.709859
vt 0.926864 0.765533
vt 0.923385 0.709859
vt 0.923385 0.765533
vt 0.919905 0.709859
vt 0.967177 0.777573
vt 0.966793 0.771421
vt 0.967177 0.771421
vt 0.973058 0.785997
vt 0.972471 0.776593
vt 0.973058 0.776593
vt 0.972471 0.785997
vt 0.971883 0.776593
vt 0.971883 0.785997
vt 0.971295 0.776593
vt 0.971295 0.785997
vt 0.970707 0.776593
vt 0.970707 0.785997
vt 0.970120 0.776593
vt 0.970120 0.785997
vt 0.969532 0.776593
vt 0.969532 0.785997
vt 0.968944 0.776593
vt 0.968944 0.785997
vt 0.968356 0.776593
vt 0.968356 0.785997
vt 0.967769 0.776593
vt 0.967769 0.785997
vt 0.967181 0.776593
vt 0.967181 0.785997
vt 0.966593 0.776593
vt 0.966593 0.785997
vt 0.966006 0.776593
vt 0.966006 0.785997
vt 0.965418 0.776593
vt 0.897292 0.592874
vt 0.970185 0.623067
vt 0.939992 0.695959
vt 0.965418 0.785997
vt 0.964830 0.776593
vt 0.898664 0.841767
vt 0.893345 0.756664
vt 0.898664 0.756664
vt 0.915389 0.616978
vt 0.856769 0.656147
vt 0.895938 0.714766
vt 0.000000 0.000000
vt 0.887512 0.663865
vt 0.932812 0.680442
vt 0.886656 0.666750
vt 0.931956 0.683327
vt 0.885800 0.669635
vt 0.931100 0.686212
vt 0.884945 0.672519
vt 0.930245 0.689097
vt 0.884089 0.675404
vt 0.929389 0.691981
vt 0.883233 0.678289
vt 0.928533 0.694866
vt 0.882377 0.681173
vt 0.881522 0.684058
vt 0.927677 0.697751
vt 0.880666 0.686943
vt 0.926821 0.700635
vt 0.879810 0.689828
vt 0.925966 0.703520
vt 0.878954 0.692712
vt 0.925110 0.706405
vt 0.878098 0.695597
vt 0.924254 0.709290
vt 0.877243 0.698482
vt 0.923398 0.712174
vt 0.876387 0.701367
vt 0.922542 0.715059
vt 0.875531 0.704251
vt 0.031250 1.000000
vt 0.000000 0.500000
vt 0.031250 0.500000
vt 0.921687 0.717944
vt 0.910483 0.887003
vt 0.890951 0.770851
vt 0.898059 0.770851
vt 0.933668 0.677558
vt 0.917326 0.748232
vt 0.913873 0.803481
vt 0.913873 0.748232
vt 0.910420 0.803481
vt 0.910420 0.748232
vt 0.906967 0.803481
vt 0.906967 0.748232
vt 0.903514 0.803481
vt 0.903514 0.748232
vt 0.900061 0.803481
vt 0.900061 0.748232
vt 0.896608 0.803481
vt 0.896608 0.748232
vt 0.893155 0.748232
vt 0.893155 0.803481
vt 0.889702 0.748232
vt 0.889702 0.803481
vt 0.886249 0.748232
vt 0.886249 0.803481
vt 0.882796 0.748232
vt 0.882796 0.803481
vt 0.879342 0.748232
vt 0.879342 0.803481
vt 0.875889 0.748232
vt 0.875889 0.803481
vt 0.872436 0.748232
vt 0.872436 0.803481
vt 0.868983 0.748232
vt 0.941740 0.958167
vt 0.876039 0.635343
vt 0.907289 0.635343
vt 0.868983 0.803481
vt 0.905605 0.897617
vt 0.935882 0.762311
vt 0.940964 0.762311
vt 0.917326 0.803481
vt 0.938645 0.623204
vt 0.919125 0.644692
vt 0.918672 0.623204
vt 0.919125 0.735669
vt 0.859774 0.768465
vt 0.919125 0.692693
vt 0.850323 0.704035
vt 0.919125 0.783671
vt 0.919125 0.826647
vt 0.930905 0.813168
vt 0.850323 0.759511
vt 0.930905 0.760941
vt 0.859774 0.643025
vt 0.859774 0.580745
vt 0.943795 0.725050
vt 0.943795 0.703313
vt 0.950758 0.801253
vt 0.943795 0.816028
vt 0.969348 0.791801
vt 0.960886 0.773846
vt 0.919125 0.668692
vt 0.859774 0.705745
vt 0.930905 0.842336
vt 0.850323 0.870074
vt 0.850323 0.842336
vt 0.900306 0.782640
vt 0.900306 0.802969
vt 0.890105 0.802969
vt 0.943795 0.668692
vt 0.960886 0.842336
vt 0.930905 0.871504
vt 0.962215 0.762044
vt 0.962215 0.772556
vt 0.958915 0.775856
vt 0.920635 0.731781
vt 0.919125 0.759670
vt 0.920635 0.741981
vt 0.890105 0.762311
vt 0.879976 0.782640
vt 0.958915 0.748232
vt 0.948403 0.762044
vt 0.943795 0.759670
vt 0.841188 0.805462
vt 0.850323 0.731773
vt 0.930905 0.731773
vt 0.948403 0.775856
vt 0.936705 0.777042
vt 0.960886 0.731773
vt 0.917275 0.755541
vt 0.936705 0.747046
vt 0.934591 0.762044
vt 0.916958 0.641185
vt 0.906906 0.652249
vt 0.906673 0.641185
vt 0.906906 0.699097
vt 0.872762 0.676361
vt 0.906906 0.676967
vt 0.861434 0.687490
vt 0.911072 0.757420
vt 0.951548 0.685891
vt 0.932562 0.813308
vt 0.861434 0.749529
vt 0.951548 0.751128
vt 0.872762 0.652855
vt 0.872762 0.641185
vt 0.919610 0.693629
vt 0.919610 0.682435
vt 0.930844 0.768409
vt 0.926491 0.777644
vt 0.966110 0.794662
vt 0.958725 0.778993
vt 0.906906 0.664608
vt 0.872762 0.664608
vt 0.932562 0.838761
vt 0.862241 0.862967
vt 0.862241 0.838761
vt 0.938877 0.782490
vt 0.938877 0.848148
vt 0.905933 0.848148
vt 0.919610 0.664608
vt 0.958725 0.838761
vt 0.932562 0.864215
vt 0.910176 0.629787
vt 0.918958 0.632392
vt 0.920897 0.635967
vt 0.872762 0.699703
vt 0.911072 0.742418
vt 0.869626 0.742418
vt 0.905933 0.716833
vt 0.873220 0.782490
vt 0.897819 0.629121
vt 0.906753 0.641326
vt 0.926491 0.742418
vt 0.854269 0.806583
vt 0.861434 0.718510
vt 0.951548 0.718510
vt 0.918292 0.644749
vt 0.916384 0.654815
vt 0.985076 0.718510
vt 0.864927 0.761383
vt 0.891324 0.647381
vt 0.903330 0.652865
vt 0.375000 0.625000
vt 0.375000 0.687720
vt 0.354343 0.791623
vt 0.625000 0.625000
vt 0.557209 0.690953
vt 0.557209 0.625000
vt 0.557209 0.559047
vt 0.975579 0.765533
vt 0.958181 0.765533
vt 0.919905 0.765533
vt 0.966793 0.777573
vt 0.341844 0.471731
vt 0.296822 0.485388
vt 0.250000 0.490000
vt 0.203178 0.485388
vt 0.907758 0.699134
vt 0.897292 0.695959
vt 0.887647 0.690804
vt 0.879193 0.683865
vt 0.872994 0.832737
vt 0.867441 0.825971
vt 0.863314 0.818251
vt 0.860773 0.809874
vt 0.859915 0.801163
vt 0.860773 0.792451
vt 0.863924 0.633532
vt 0.867099 0.623067
vt 0.867099 0.665766
vt 0.863314 0.784075
vt 0.867441 0.776355
vt 0.872994 0.769588
vt 0.080294 0.080294
vt 0.116663 0.050447
vt 0.158156 0.028269
vt 0.907758 0.589699
vt 0.939992 0.592874
vt 0.918642 0.588627
vt 0.904568 0.756510
vt 0.913280 0.757368
vt 0.921656 0.759909
vt 0.949637 0.598029
vt 0.958091 0.604967
vt 0.419706 0.080294
vt 0.449553 0.116663
vt 0.471731 0.158156
vt 0.973359 0.633532
vt 0.970185 0.665766
vt 0.974431 0.644416
vt 0.949221 0.801163
vt 0.948363 0.809874
vt 0.945822 0.818251
vt 0.941696 0.825971
vt 0.936143 0.832737
vt 0.929376 0.838290
vt 0.921656 0.842417
vt 0.879193 0.604967
vt 0.958091 0.683865
vt 0.964830 0.785997
vt 0.893345 0.841767
vt 0.905663 0.715724
vt 0.915389 0.714766
vt 0.924741 0.711930
vt 0.933360 0.707323
vt 0.940914 0.701123
vt 0.947114 0.693569
vt 0.949553 0.383337
vt 0.971731 0.341844
vt 0.985388 0.296822
vt 0.990000 0.250000
vt 0.985388 0.203178
vt 0.971731 0.158156
vt 0.949553 0.116663
vt 0.947114 0.638176
vt 0.940914 0.630622
vt 0.933360 0.624422
vt 0.924741 0.619815
vt 0.905663 0.616020
vt 0.895938 0.616978
vt 0.886586 0.619815
vt 0.877967 0.624422
vt 0.870413 0.630622
vt 0.864213 0.638176
vt 0.859606 0.646795
vt 0.855811 0.665872
vt 0.856769 0.675598
vt 0.859606 0.684950
vt 0.864213 0.693569
vt 0.870413 0.701123
vt 0.877967 0.707323
vt 0.886586 0.711930
vt 0.954557 0.675598
vt 0.954557 0.656147
vt 0.000000 1.000000
vt 0.898423 0.887003
vt 0.910490 0.958167
vt 0.891784 0.897617
vt 0.943795 0.634072
vt 0.879976 0.792840
vt 0.960886 0.884409
vt 0.879976 0.772440
vt 0.900306 0.762311
vt 0.948403 0.748232
vt 0.962215 0.751532
vt 0.934591 0.751532
vt 0.881585 0.645154
vt 0.936418 0.644182
vt 0.936418 0.664029
vt 0.934591 0.772556
vt 0.936418 0.683876
vt 0.875369 0.689120
vt 0.919610 0.646781
vt 0.873220 0.815434
vt 0.958725 0.875477
vt 0.873220 0.749546
vt 0.938877 0.716833
vt 0.895214 0.637903
vt 0.901394 0.627182
vt 0.912112 0.655470
vt 0.920613 0.797576
vt 0.932931 0.790730
vt 0.930220 0.806923
vt 0.894548 0.650259
vt 0.874798 0.563984
vt 0.884534 0.558703
vt 0.908451 0.565798
vt 0.125000 0.687720
vt 0.125000 0.625000
vt 0.187280 0.750000
vt 0.125000 0.562280
vt 0.187280 0.500000
s 1
usemtl Material.001
f 2/1/1 3/2/2 1/3/3
f 5/4/4 4/5/5 6/6/6
f 8/7/7 9/8/7 10/9/7
f 12/10/7 13/11/7 14/12/7
f 12/13/7 14/14/7 5/4/7
f 16/15/7 17/16/7 18/17/7
f 16/18/7 18/19/7 4/5/7
f 8/20/7 10/21/7 6/6/7
f 19/22/8 20/23/8 21/24/8
f 22/25/9 23/26/9 24/27/9
f 27/28/10 25/29/11 26/30/12
f 19/31/13 27/32/13 20/33/13
f 30/34/14 32/35/15 29/36/16
f 31/37/17 25/38/18 32/39/17
f 30/40/19 23/41/19 22/42/19
f 28/43/20 19/44/20 2/45/20
f 24/46/21 23/47/21 7/48/21
f 8/49/22 22/50/22 24/51/22
f 27/28/23 9/52/23 20/53/23
f 22/50/24 17/54/24 30/34/24
f 23/55/25 29/56/25 3/57/25
f 32/58/21 25/59/21 2/45/21
f 25/60/21 28/61/21 11/62/21
f 26/30/26 12/63/26 27/28/26
f 31/64/27 13/65/27 26/30/27
f 29/66/21 32/67/21 15/68/21
f 17/54/28 31/69/28 30/34/28
f 5/4/29 6/6/29 9/70/29
f 6/6/7 10/21/7 9/70/7
f 9/70/30 12/13/30 5/4/30
f 4/5/7 5/4/7 16/18/7
f 5/4/7 14/14/7 13/71/7
f 16/18/7 5/4/7 13/71/7
f 6/6/6 4/5/5 17/72/31
f 4/5/7 18/19/7 17/72/7
f 17/72/32 8/20/32 6/6/32
f 27/28/10 28/73/33 25/29/11
f 19/31/34 28/74/34 27/32/34
f 30/34/14 31/69/35 32/35/15
f 31/37/17 26/75/18 25/38/18
f 30/40/36 29/76/36 23/41/36
f 7/77/21 3/57/21 19/44/21
f 3/57/37 2/45/37 19/44/37
f 2/45/21 11/78/21 28/43/21
f 7/48/21 19/79/21 21/80/21
f 21/80/21 24/46/21 7/48/21
f 24/51/22 21/81/38 9/82/22
f 21/81/38 20/83/22 9/82/22
f 9/82/22 8/49/22 24/51/22
f 27/28/23 12/63/23 9/52/23
f 22/50/24 8/49/24 17/54/24
f 15/84/21 1/85/21 29/56/21
f 1/85/3 3/57/2 29/56/39
f 3/57/21 7/77/21 23/55/21
f 11/78/21 2/45/21 25/59/21
f 2/45/21 1/85/21 32/58/21
f 1/85/21 15/84/21 32/58/21
f 26/30/26 13/65/26 12/63/26
f 31/64/27 16/86/27 13/65/27
f 17/54/28 16/53/28 31/69/28
usemtl Material.002
f 34/87/40 35/88/40 33/89/40
f 36/90/41 37/91/41 35/92/41
f 38/93/42 39/94/43 37/91/44
f 40/95/45 41/96/45 39/94/45
f 42/97/46 43/98/46 41/96/46
f 44/99/47 45/100/47 43/101/48
f 46/102/49 47/103/49 45/104/49
f 48/105/50 49/106/50 47/103/51
f 50/107/52 51/108/52 49/106/53
f 52/109/54 53/110/54 51/108/54
f 54/111/55 55/112/55 53/110/56
f 56/113/57 57/114/57 55/112/57
f 58/115/58 59/116/58 57/114/58
f 60/117/59 61/118/60 59/116/61
f 62/119/62 63/120/62 61/118/62
f 64/121/63 65/122/63 63/120/63
f 66/123/64 67/124/64 65/125/64
f 68/126/65 69/127/65 67/128/65
f 70/129/66 71/130/67 69/127/68
f 72/131/69 73/132/69 71/130/70
f 74/133/71 75/134/71 73/132/71
f 76/135/72 77/136/73 75/134/72
f 78/137/74 79/138/74 77/136/74
f 80/139/75 81/140/75 79/138/75
f 82/141/76 83/142/76 81/140/76
f 84/143/77 85/144/77 83/142/77
f 86/145/78 87/146/79 85/144/79
f 88/147/80 89/148/80 87/146/80
f 90/149/81 91/150/81 89/148/81
f 92/151/82 93/152/83 91/150/84
f 70/153/85 54/154/85 38/155/85
f 94/156/86 95/157/86 93/152/86
f 96/158/87 33/159/87 95/160/87
f 63/161/88 79/162/88 95/163/88
f 100/164/89 138/164/89 135/164/89
f 101/165/90 104/166/90 103/167/90
f 103/167/91 106/168/91 105/169/91
f 105/169/92 108/170/92 107/171/92
f 107/171/93 110/172/93 109/173/93
f 109/173/94 112/174/94 111/175/94
f 111/175/95 114/176/95 113/177/95
f 114/176/75 115/178/75 113/177/75
f 116/179/76 117/180/76 115/178/76
f 118/181/96 119/182/96 117/180/96
f 120/183/97 121/184/97 119/182/97
f 122/185/98 123/186/99 121/184/99
f 124/187/100 125/188/100 123/186/101
f 126/189/102 127/190/102 125/188/102
f 128/191/103 129/192/103 127/190/103
f 98/164/104 133/164/104 130/164/104
f 133/193/105 131/194/105 134/195/105
f 130/196/106 134/192/106 129/192/106
f 98/164/107 131/164/107 132/164/107
f 97/164/108 134/164/108 131/164/108
f 135/197/109 137/198/109 136/199/109
f 100/164/110 136/164/110 99/164/110
f 102/200/111 137/165/111 138/200/111
f 99/164/112 137/164/112 101/164/112
f 142/164/89 180/164/89 177/164/89
f 143/201/90 146/202/90 145/203/90
f 145/203/91 148/204/91 147/205/91
f 147/205/92 150/206/92 149/207/92
f 149/207/93 152/208/93 151/209/93
f 151/209/94 154/210/94 153/211/94
f 153/211/95 156/212/95 155/213/95
f 156/212/75 157/214/75 155/213/75
f 158/215/76 159/216/76 157/214/76
f 160/217/96 161/218/96 159/216/96
f 162/219/97 163/220/97 161/218/97
f 164/221/98 165/222/98 163/220/98
f 166/223/100 167/224/100 165/222/100
f 168/225/102 169/226/102 167/224/102
f 170/227/103 171/228/103 169/226/103
f 140/164/104 175/164/104 172/164/104
f 175/229/105 173/230/105 176/231/105
f 172/232/106 176/228/106 171/228/106
f 140/164/107 173/164/107 174/164/107
f 139/164/108 176/164/108 173/164/108
f 177/233/109 179/234/109 178/235/109
f 142/164/110 178/164/110 141/164/110
f 144/236/111 179/201/111 180/236/111
f 141/164/112 179/164/112 143/164/112
f 198/237/113 211/238/114 212/239/115
f 214/240/116 199/241/116 213/242/116
f 208/243/117 215/244/118 216/245/119
f 218/246/120 203/247/121 217/248/120
f 212/239/122 196/249/123 195/250/124
f 201/251/125 213/242/126 202/252/125
f 216/245/127 210/253/128 209/254/129
f 205/255/130 217/248/131 206/256/132
f 196/249/133 192/257/133 187/258/133
f 185/259/134 195/260/134 183/261/134
f 194/262/21 183/263/21 195/264/21
f 211/238/135 188/265/135 192/257/135
f 184/266/136 212/267/136 185/259/136
f 188/268/7 197/269/7 198/270/7
f 200/271/137 186/272/137 181/273/137
f 200/274/21 194/262/21 187/275/21
f 192/257/133 199/241/138 187/258/133
f 201/276/7 188/268/7 193/277/7
f 188/265/135 213/242/135 192/257/135
f 214/240/139 182/278/139 186/272/139
f 204/279/134 185/259/134 183/261/134
f 189/280/21 203/247/21 204/279/21
f 191/281/140 203/247/140 189/280/140
f 193/277/7 184/282/7 205/283/7
f 190/284/141 217/248/141 191/281/141
f 218/246/136 184/266/136 185/259/136
f 208/243/140 191/281/140 189/280/140
f 207/285/21 189/280/21 194/262/21
f 186/272/137 207/285/137 181/273/137
f 210/286/7 193/277/7 190/287/7
f 182/278/139 215/244/139 186/272/139
f 216/245/141 190/284/141 191/281/141
f 236/237/113 249/238/114 250/239/115
f 252/240/116 237/241/116 251/242/116
f 246/243/117 253/244/142 254/245/119
f 256/246/120 241/247/143 255/248/120
f 250/239/122 234/249/123 233/250/124
f 239/251/125 251/242/126 240/252/125
f 254/245/144 248/253/128 247/254/129
f 243/255/145 255/248/146 244/256/145
f 234/249/133 230/257/133 225/258/133
f 223/259/134 233/260/134 221/261/134
f 232/262/21 221/263/21 233/264/21
f 249/238/135 226/265/135 230/257/135
f 222/266/136 250/267/136 223/259/136
f 226/268/7 235/269/7 236/270/7
f 238/271/137 224/272/137 219/273/137
f 238/274/21 232/262/21 225/275/21
f 230/257/133 237/241/138 225/258/133
f 239/276/7 226/268/7 231/277/7
f 226/265/135 251/242/135 230/257/135
f 252/240/139 220/278/139 224/272/139
f 242/279/134 223/259/134 221/261/134
f 227/280/21 241/247/21 242/279/21
f 229/281/140 241/247/140 227/280/140
f 231/277/7 222/282/7 243/283/7
f 228/284/147 255/248/148 229/281/147
f 256/246/136 222/266/136 223/259/136
f 246/243/140 229/281/140 227/280/140
f 245/285/21 227/280/21 232/262/21
f 224/272/137 245/285/137 219/273/137
f 248/286/7 231/277/7 228/287/7
f 220/278/139 253/244/139 224/272/139
f 254/245/148 228/284/147 229/281/147
f 274/288/149 287/289/150 288/290/151
f 290/291/152 275/292/153 289/293/154
f 284/294/155 291/295/156 292/296/156
f 294/297/121 279/298/121 293/299/121
f 288/290/157 272/300/122 271/301/158
f 277/302/159 289/293/125 278/303/125
f 292/296/129 286/304/129 285/305/129
f 281/306/160 293/299/161 282/307/160
f 272/300/162 268/308/162 263/309/162
f 261/310/134 271/311/134 259/312/134
f 270/313/21 259/314/21 271/315/21
f 287/289/135 264/316/135 268/308/135
f 260/317/136 288/318/136 261/310/136
f 264/319/7 273/320/7 274/321/7
f 276/322/137 262/323/137 257/324/137
f 276/325/21 270/313/21 263/326/21
f 268/308/162 275/292/162 263/309/162
f 277/327/7 264/319/7 269/328/7
f 264/316/135 289/293/135 268/308/135
f 290/291/139 258/329/139 262/323/139
f 280/330/134 261/310/134 259/312/134
f 265/331/21 279/298/21 280/330/21
f 267/332/163 279/298/164 265/331/163
f 269/328/7 260/333/7 281/334/7
f 266/335/141 293/299/141 267/332/141
f 294/297/136 260/317/136 261/310/136
f 284/294/163 267/332/163 265/331/163
f 283/336/21 265/331/21 270/313/21
f 262/323/137 283/336/137 257/324/137
f 286/337/7 269/328/7 266/338/7
f 258/329/139 291/295/139 262/323/139
f 292/296/141 266/335/141 267/332/141
f 312/288/165 325/289/166 326/290/167
f 328/291/152 313/292/153 327/293/154
f 322/294/155 329/295/156 330/296/156
f 332/297/121 317/298/121 331/299/121
f 326/290/168 310/300/122 309/301/123
f 315/302/169 327/293/125 316/303/170
f 330/296/129 324/304/129 323/305/129
f 319/306/160 331/299/161 320/307/160
f 310/300/162 306/308/162 301/309/162
f 299/310/134 309/311/134 297/312/134
f 308/313/21 297/314/21 309/315/21
f 325/289/171 302/316/171 306/308/171
f 298/317/136 326/318/136 299/310/136
f 302/319/7 311/320/7 312/321/7
f 314/322/137 300/323/137 295/324/137
f 314/325/21 308/313/21 301/326/21
f 306/308/162 313/292/162 301/309/162
f 315/327/7 302/319/7 307/328/7
f 302/316/171 327/293/171 306/308/171
f 328/291/139 296/329/139 300/323/139
f 318/330/134 299/310/134 297/312/134
f 303/331/21 317/298/21 318/330/21
f 305/332/163 317/298/164 303/331/163
f 307/328/7 298/333/7 319/334/7
f 304/335/141 331/299/141 305/332/141
f 332/297/136 298/317/136 299/310/136
f 322/294/163 305/332/163 303/331/163
f 321/336/21 303/331/21 308/313/21
f 300/323/137 321/336/137 295/324/137
f 324/337/7 307/328/7 304/338/7
f 296/329/139 329/295/139 300/323/139
f 330/296/141 304/335/141 305/332/141
f 337/339/21 342/340/21 343/341/21
f 338/342/147 345/343/147 339/344/147
f 344/345/147 338/342/147 339/344/147
f 34/346/40 36/90/40 35/92/40
f 36/90/41 38/93/41 37/91/41
f 38/93/42 40/95/44 39/94/43
f 40/95/45 42/97/45 41/96/45
f 42/97/46 44/347/46 43/98/46
f 44/347/47 46/102/47 45/104/47
f 46/102/49 48/105/49 47/103/49
f 48/105/50 50/107/51 49/106/50
f 50/107/52 52/109/53 51/108/52
f 52/109/54 54/111/54 53/110/54
f 54/111/55 56/113/172 55/112/55
f 56/113/57 58/115/57 57/114/57
f 58/115/58 60/117/58 59/116/58
f 60/117/59 62/119/61 61/118/60
f 62/119/62 64/121/62 63/120/62
f 64/121/63 66/348/63 65/122/63
f 66/123/64 68/349/64 67/124/64
f 68/126/65 70/129/65 69/127/65
f 70/129/66 72/131/67 71/130/67
f 72/131/69 74/133/69 73/132/69
f 74/133/71 76/135/71 75/134/71
f 76/135/72 78/137/72 77/136/73
f 78/137/74 80/139/74 79/138/74
f 80/139/75 82/141/75 81/140/75
f 82/141/76 84/143/76 83/142/76
f 84/143/77 86/145/77 85/144/77
f 86/145/78 88/147/79 87/146/79
f 88/147/80 90/149/80 89/148/80
f 90/149/81 92/151/81 91/150/81
f 92/151/82 94/156/82 93/152/83
f 38/350/85 36/351/85 34/352/85
f 34/352/85 96/353/85 38/350/85
f 96/354/85 94/355/85 38/155/85
f 94/355/85 92/356/85 90/357/85
f 90/358/85 88/359/85 86/360/85
f 86/360/85 84/361/85 82/362/85
f 82/362/85 80/363/85 86/360/85
f 80/364/85 78/365/85 86/366/85
f 78/367/85 76/368/85 74/369/85
f 74/370/85 72/371/85 70/372/85
f 70/153/85 68/373/85 62/374/85
f 68/373/85 66/375/85 62/374/85
f 66/376/85 64/377/85 62/378/85
f 62/374/85 60/379/85 58/380/85
f 58/381/85 56/382/85 54/383/85
f 54/154/85 52/384/85 46/385/85
f 52/384/85 50/386/85 46/385/85
f 50/387/85 48/388/85 46/389/85
f 46/389/85 44/390/85 42/391/85
f 42/391/85 40/392/85 38/393/85
f 94/355/85 90/357/85 38/155/85
f 90/357/85 86/366/85 38/155/85
f 78/365/85 74/394/85 86/366/85
f 74/394/85 70/153/85 86/366/85
f 62/374/85 58/380/85 70/153/85
f 58/380/85 54/154/85 70/153/85
f 46/385/85 42/395/85 54/154/85
f 42/395/85 38/155/85 54/154/85
f 38/155/85 86/366/85 70/153/85
f 94/156/86 96/396/86 95/157/86
f 96/158/87 34/397/87 33/159/87
f 95/163/88 33/398/88 35/399/88
f 35/399/88 37/400/173 39/401/88
f 39/401/88 41/402/88 43/403/88
f 43/404/88 45/405/174 47/406/88
f 47/406/88 49/407/88 51/408/88
f 51/408/88 53/409/175 55/410/88
f 55/411/88 57/412/88 59/413/176
f 59/413/176 61/414/177 63/161/88
f 63/161/88 65/415/88 67/416/88
f 67/416/88 69/417/88 71/418/88
f 71/418/88 73/419/88 75/420/88
f 75/420/88 77/421/176 79/162/88
f 79/162/88 81/422/88 83/423/88
f 83/423/88 85/424/178 87/425/176
f 87/425/176 89/426/88 91/427/174
f 91/427/174 93/428/88 95/163/88
f 95/163/88 35/399/88 47/429/88
f 35/399/88 39/401/88 47/429/88
f 39/401/88 43/403/88 47/429/88
f 47/429/88 51/430/88 63/161/88
f 51/430/88 55/411/88 63/161/88
f 55/411/88 59/413/176 63/161/88
f 63/161/88 67/416/88 79/162/88
f 67/416/88 71/418/88 79/162/88
f 71/418/88 75/420/88 79/162/88
f 79/162/88 83/423/88 95/163/88
f 83/423/88 87/425/176 95/163/88
f 87/425/176 91/427/174 95/163/88
f 95/163/88 47/429/88 63/161/88
f 100/164/179 102/164/179 138/164/179
f 101/165/90 102/200/90 104/166/90
f 103/167/91 104/166/91 106/168/91
f 105/169/92 106/168/92 108/170/92
f 107/171/93 108/170/93 110/172/93
f 109/173/94 110/172/94 112/174/94
f 111/175/95 112/174/95 114/176/95
f 114/176/75 116/179/75 115/178/75
f 116/179/76 118/181/76 117/180/76
f 118/181/96 120/183/96 119/182/96
f 120/183/97 122/185/97 121/184/97
f 122/185/98 124/187/98 123/186/99
f 124/187/100 126/189/100 125/188/100
f 126/189/102 128/191/102 127/190/102
f 128/191/103 130/196/103 129/192/103
f 98/164/180 132/164/180 133/164/180
f 133/193/105 132/431/105 131/194/105
f 130/196/106 133/196/106 134/192/106
f 98/164/107 97/164/107 131/164/107
f 97/164/181 129/164/181 134/164/181
f 135/197/109 138/432/109 137/198/109
f 100/164/110 135/164/110 136/164/110
f 102/200/111 101/165/111 137/165/111
f 99/164/182 136/164/182 137/164/182
f 142/164/179 144/164/179 180/164/179
f 143/201/90 144/236/90 146/202/90
f 145/203/91 146/202/91 148/204/91
f 147/205/92 148/204/92 150/206/92
f 149/207/93 150/206/93 152/208/93
f 151/209/183 152/208/183 154/210/183
f 153/211/95 154/210/95 156/212/95
f 156/212/75 158/215/75 157/214/75
f 158/215/76 160/217/76 159/216/76
f 160/217/96 162/219/96 161/218/96
f 162/219/97 164/221/97 163/220/97
f 164/221/98 166/223/98 165/222/98
f 166/223/100 168/225/100 167/224/100
f 168/225/102 170/227/102 169/226/102
f 170/227/103 172/232/103 171/228/103
f 140/164/180 174/164/180 175/164/180
f 175/229/105 174/433/105 173/230/105
f 172/232/106 175/232/106 176/228/106
f 140/164/107 139/164/107 173/164/107
f 139/164/184 171/164/184 176/164/184
f 177/233/109 180/434/109 179/234/109
f 142/164/110 177/164/110 178/164/110
f 144/236/111 143/201/111 179/201/111
f 141/164/185 178/164/185 179/164/185
f 198/237/113 197/435/186 211/238/114
f 214/240/116 200/271/116 199/241/116
f 208/243/117 207/285/187 215/244/118
f 218/246/120 204/279/120 203/247/121
f 212/239/122 211/238/122 196/249/123
f 201/251/125 214/240/126 213/242/126
f 216/245/127 215/244/188 210/253/128
f 205/255/130 218/246/131 217/248/131
f 196/249/133 211/238/133 192/257/133
f 185/259/134 212/267/134 195/260/134
f 196/436/21 187/275/21 195/264/21
f 187/275/21 194/262/21 195/264/21
f 211/238/135 197/435/135 188/265/135
f 184/266/136 198/437/136 212/267/136
f 184/282/7 193/277/7 198/270/7
f 193/277/7 188/268/7 198/270/7
f 200/271/137 214/240/137 186/272/137
f 187/275/21 199/438/21 200/274/21
f 200/274/21 181/439/21 194/262/21
f 192/257/133 213/242/133 199/241/138
f 193/277/7 182/440/7 201/276/7
f 201/276/7 202/441/7 188/268/7
f 188/265/135 202/252/135 213/242/135
f 214/240/139 201/251/139 182/278/139
f 204/279/134 218/246/134 185/259/134
f 183/263/21 194/262/21 204/279/21
f 194/262/21 189/280/21 204/279/21
f 191/281/140 217/248/140 203/247/140
f 206/256/7 190/284/7 205/255/7
f 190/287/7 193/277/7 205/283/7
f 190/284/141 206/256/141 217/248/141
f 218/246/136 205/255/136 184/266/136
f 208/243/140 216/245/140 191/281/140
f 194/262/21 181/439/21 207/285/21
f 207/285/21 208/243/21 189/280/21
f 186/272/137 215/244/137 207/285/137
f 190/287/7 209/442/7 210/286/7
f 210/286/7 182/440/7 193/277/7
f 182/278/139 210/253/139 215/244/139
f 216/245/141 209/254/141 190/284/141
f 236/237/113 235/435/186 249/238/114
f 252/240/116 238/271/116 237/241/116
f 246/243/117 245/285/187 253/244/142
f 256/246/120 242/279/121 241/247/143
f 250/239/122 249/238/122 234/249/123
f 239/251/125 252/240/126 251/242/126
f 254/245/144 253/244/188 248/253/128
f 243/255/145 256/246/131 255/248/146
f 234/249/133 249/238/133 230/257/133
f 223/259/134 250/267/134 233/260/134
f 234/436/21 225/275/21 233/264/21
f 225/275/21 232/262/21 233/264/21
f 249/238/135 235/435/135 226/265/135
f 222/266/136 236/437/136 250/267/136
f 222/282/7 231/277/7 236/270/7
f 231/277/7 226/268/7 236/270/7
f 238/443/137 252/444/137 224/445/137
f 225/275/21 237/438/21 238/274/21
f 238/274/21 219/439/21 232/262/21
f 230/257/133 251/242/133 237/241/138
f 231/277/7 220/440/7 239/276/7
f 239/276/7 240/441/7 226/268/7
f 226/265/135 240/252/135 251/242/135
f 252/240/139 239/251/139 220/278/139
f 242/279/134 256/246/134 223/259/134
f 221/263/21 232/262/21 242/279/21
f 232/262/21 227/280/21 242/279/21
f 229/281/140 255/248/140 241/247/140
f 244/446/7 228/287/7 243/283/7
f 228/287/7 231/277/7 243/283/7
f 228/284/147 244/256/147 255/248/148
f 256/246/136 243/255/136 222/266/136
f 246/243/140 254/245/140 229/281/140
f 232/262/21 219/439/21 245/285/21
f 245/285/21 246/243/21 227/280/21
f 224/445/137 253/447/137 245/448/137
f 228/287/7 247/442/7 248/286/7
f 248/286/7 220/440/7 231/277/7
f 220/278/139 248/253/139 253/244/139
f 254/245/148 247/254/147 228/284/147
f 274/288/149 273/449/151 287/289/150
f 290/291/152 276/322/153 275/292/153
f 284/294/155 283/336/155 291/295/156
f 294/297/121 280/330/121 279/298/121
f 288/290/157 287/289/189 272/300/122
f 277/302/159 290/291/190 289/293/125
f 292/296/129 291/295/191 286/304/129
f 281/306/160 294/297/161 293/299/161
f 272/300/162 287/289/162 268/308/162
f 261/310/134 288/318/134 271/311/134
f 272/450/21 263/326/21 271/315/21
f 263/326/21 270/313/21 271/315/21
f 287/289/135 273/449/135 264/316/135
f 260/317/136 274/451/136 288/318/136
f 260/333/7 269/328/7 274/321/7
f 269/328/7 264/319/7 274/321/7
f 276/322/137 290/291/137 262/323/137
f 263/326/21 275/452/21 276/325/21
f 276/325/21 257/453/21 270/313/21
f 268/308/162 289/293/162 275/292/162
f 269/328/7 258/454/7 277/327/7
f 277/327/7 278/455/7 264/319/7
f 264/316/135 278/303/135 289/293/135
f 290/291/139 277/302/139 258/329/139
f 280/330/134 294/297/134 261/310/134
f 259/314/21 270/313/21 280/330/21
f 270/313/21 265/331/21 280/330/21
f 267/332/163 293/299/163 279/298/164
f 282/456/7 266/338/7 281/334/7
f 266/338/7 269/328/7 281/334/7
f 266/335/141 282/307/141 293/299/141
f 294/457/136 281/458/136 260/459/136
f 284/294/163 292/296/163 267/332/163
f 270/313/21 257/453/21 283/336/21
f 283/336/21 284/294/21 265/331/21
f 262/323/137 291/295/137 283/336/137
f 266/338/7 285/460/7 286/337/7
f 286/337/7 258/454/7 269/328/7
f 258/329/139 286/304/139 291/295/139
f 292/296/141 285/305/141 266/335/141
f 312/288/165 311/449/192 325/289/166
f 328/291/152 314/322/153 313/292/153
f 322/294/155 321/336/155 329/295/156
f 332/297/121 318/330/121 317/298/121
f 326/290/168 325/289/189 310/300/122
f 315/302/169 328/291/193 327/293/125
f 330/296/129 329/295/129 324/304/129
f 319/306/160 332/297/161 331/299/161
f 310/300/162 325/289/162 306/308/162
f 299/310/134 326/318/134 309/311/134
f 310/450/21 301/326/21 309/315/21
f 301/326/21 308/313/21 309/315/21
f 325/289/171 311/449/171 302/316/171
f 298/317/136 312/451/136 326/318/136
f 298/333/7 307/328/7 312/321/7
f 307/328/7 302/319/7 312/321/7
f 314/322/137 328/291/137 300/323/137
f 301/326/21 313/452/21 314/325/21
f 314/325/21 295/453/21 308/313/21
f 306/308/162 327/293/162 313/292/162
f 307/328/7 296/454/7 315/327/7
f 315/461/7 316/462/7 302/463/7
f 302/316/171 316/303/171 327/293/171
f 328/291/139 315/302/139 296/329/139
f 318/330/134 332/297/134 299/310/134
f 297/314/21 308/313/21 318/330/21
f 308/313/21 303/331/21 318/330/21
f 305/332/163 331/299/163 317/298/164
f 320/307/7 304/335/7 319/306/7
f 304/338/7 307/328/7 319/334/7
f 304/335/141 320/307/141 331/299/141
f 332/297/136 319/306/136 298/317/136
f 322/294/163 330/296/163 305/332/163
f 308/313/21 295/453/21 321/336/21
f 321/336/21 322/294/21 303/331/21
f 300/323/137 329/295/137 321/336/137
f 304/335/7 323/305/7 324/304/7
f 324/337/7 296/454/7 307/328/7
f 296/329/139 324/304/139 329/295/139
f 330/296/141 323/305/141 304/335/141
f 335/464/21 333/465/21 334/466/21
f 336/465/21 340/467/21 341/468/21
