# Blender 4.5.4 LTS
# www.blender.org
mtllib player_car.mtl
o Cube
v 0.055889 0.198615 -0.083226
v -0.009339 -0.010446 -0.071385
v 0.055889 0.198615 -0.149484
v -0.009775 -0.008945 -0.161324
v 0.041234 0.198615 -0.083226
v -0.010334 0.026285 -0.071385
v 0.041234 0.198615 -0.149484
v -0.010334 0.026285 -0.161324
v 0.058507 0.140370 -0.071385
v 0.059814 0.121795 -0.071385
v 0.064904 0.083386 -0.071385
v 0.070805 0.038498 -0.071385
v 0.029023 -0.008524 -0.071385
v 0.018397 0.030717 -0.161324
v 0.034414 0.045460 -0.161324
v 0.032219 0.083386 -0.161324
v 0.037309 0.121795 -0.161324
v 0.038615 0.140370 -0.161324
v 0.058507 0.140370 -0.161324
v 0.059814 0.121795 -0.161324
v 0.064904 0.083386 -0.161324
v 0.070805 0.038498 -0.161324
v 0.029023 -0.008524 -0.161324
v 0.038615 0.140370 -0.071385
v 0.037309 0.121795 -0.071385
v 0.032219 0.083386 -0.071385
v 0.034414 0.045459 -0.071385
v 0.018397 0.030717 -0.071385
v -0.058440 0.023930 -0.071278
v -0.058440 0.023930 -0.161218
v -0.057445 -0.011629 -0.071278
v -0.057881 -0.010128 -0.161218
v 0.055889 0.198615 0.020963
v -0.009339 -0.010446 0.009122
v 0.055889 0.198615 0.087221
v -0.009775 -0.008945 0.099061
v 0.041234 0.198615 0.020963
v -0.010334 0.021926 0.009122
v 0.041234 0.198615 0.087221
v -0.010334 0.021926 0.099061
v 0.058507 0.140370 0.009122
v 0.059814 0.121795 0.009122
v 0.064904 0.083386 0.009122
v 0.070805 0.038498 0.009122
v 0.029023 -0.008524 0.009122
v 0.018397 0.029321 0.099061
v 0.034414 0.045460 0.099061
v 0.032219 0.083386 0.099061
v 0.037309 0.121795 0.099061
v 0.038615 0.140370 0.099061
v 0.058507 0.140370 0.099061
v 0.059814 0.121795 0.099061
v 0.064904 0.083386 0.099061
v 0.070805 0.038498 0.099061
v 0.029023 -0.008524 0.099061
v 0.038615 0.140370 0.009122
v 0.037309 0.121795 0.009122
v 0.032219 0.083386 0.009122
v 0.034414 0.045459 0.009122
v 0.018397 0.029321 0.009122
v -0.058440 0.022002 0.009015
v -0.058440 0.022002 0.098954
v -0.057445 -0.011629 0.009015
v -0.057881 -0.010128 0.098954
v -0.229604 -0.020584 0.127039
v -0.225711 -0.015278 0.127039
v -0.229604 -0.020584 -0.188825
v -0.225711 -0.015278 -0.188825
v 0.307579 -0.021222 0.127039
v 0.307579 -0.014640 0.127039
v 0.307579 -0.021222 -0.188825
v 0.307579 -0.014640 -0.188825
v -0.307159 -0.014146 -0.188825
v -0.307159 -0.014146 0.127039
v -0.229492 -0.014195 0.127039
v -0.229492 -0.014195 -0.188825
v -0.302129 0.091392 -0.188825
v -0.302129 0.091392 0.127039
v -0.226911 0.086269 0.127039
v -0.226911 0.086269 -0.188825
v -0.302129 0.091392 -0.188825
v -0.302129 0.091392 0.127039
v -0.226911 0.086269 0.127039
v -0.226911 0.086269 -0.188825
v -0.294996 0.096230 -0.188825
v -0.294996 0.096230 0.127039
v -0.223856 0.089648 0.127039
v -0.223856 0.089648 -0.188825
v -0.154355 0.140058 -0.188825
v -0.154355 0.140058 0.127039
v -0.152450 0.091124 0.127039
v -0.152450 0.091124 -0.188825
v -0.152897 0.098987 -0.188825
v -0.152897 0.098987 0.127039
v -0.146322 0.099301 0.127039
v -0.146322 0.099301 -0.188825
v -0.152900 0.099139 -0.188825
v -0.152900 0.099139 0.127039
v -0.146319 0.099149 0.127039
v -0.146319 0.099149 -0.188825
v -0.152359 0.140947 -0.188825
v -0.152359 0.140947 0.127039
v -0.146975 0.137160 0.127039
v -0.146975 0.137160 -0.188825
v -0.229604 -0.020584 -0.083429
v -0.229604 -0.020584 0.021859
v -0.225711 -0.015278 0.021859
v -0.225711 -0.015278 -0.083429
v 0.307579 -0.021222 0.021859
v 0.307579 -0.021222 -0.083429
v 0.307579 -0.014640 -0.083429
v 0.307579 -0.014640 0.021859
v -0.307159 -0.014146 -0.083429
v -0.307159 -0.014146 0.021859
v -0.229492 -0.014195 0.021859
v -0.229492 -0.014195 -0.083429
v -0.302129 0.091392 -0.083429
v -0.302129 0.091392 0.021859
v -0.226911 0.086269 0.021859
v -0.226911 0.086269 -0.083429
v -0.302129 0.091392 -0.083429
v -0.302129 0.091392 0.021859
v -0.226911 0.086269 0.021859
v -0.226911 0.086269 -0.083429
v -0.294996 0.096230 -0.083429
v -0.294996 0.096230 0.021859
v -0.223856 0.089648 0.021859
v -0.223856 0.089648 -0.083429
v -0.154355 0.140058 -0.083429
v -0.154355 0.140058 0.021859
v -0.152450 0.091124 0.021859
v -0.152450 0.091124 -0.083429
v -0.152897 0.098987 -0.083429
v -0.152897 0.098987 0.021859
v -0.146322 0.099301 0.021859
v -0.146322 0.099301 -0.083429
v -0.152900 0.099139 -0.083429
v -0.152900 0.099139 0.021859
v -0.146319 0.099149 0.021859
v -0.146319 0.099149 -0.083429
v -0.152359 0.140947 -0.168689
v -0.152359 0.140947 0.107119
v -0.146975 0.137160 0.107119
v -0.146975 0.137160 -0.168689
v -0.095049 0.222424 0.107119
v -0.095049 0.222424 0.127039
v -0.089665 0.218637 0.127039
v -0.089665 0.218637 -0.168689
v -0.089665 0.218637 -0.188825
v -0.095049 0.222424 -0.188825
v -0.095049 0.222424 -0.168689
v -0.089665 0.218637 0.107119
v -0.084518 0.237395 0.107119
v -0.084518 0.237395 0.127039
v -0.079135 0.233609 0.127039
v -0.079135 0.233609 -0.168689
v -0.079135 0.233609 -0.188825
v -0.084518 0.237395 -0.188825
v -0.084518 0.237395 -0.168689
v -0.079135 0.233609 0.107119
v -0.229604 -0.020584 0.074449
v 0.307579 -0.014640 0.074449
v -0.307159 -0.014146 0.074449
v -0.302129 0.091392 0.074449
v -0.302129 0.091392 0.074449
v -0.294996 0.096230 0.074449
v -0.154355 0.140058 0.074449
v -0.152897 0.098987 0.074449
v -0.152900 0.099139 0.074449
v -0.152359 0.140947 0.117079
v -0.225711 -0.015278 0.074449
v 0.307579 -0.021222 0.074449
v -0.229492 -0.014195 0.074449
v -0.226911 0.086269 0.074449
v -0.226911 0.086269 0.074449
v -0.223856 0.089648 0.074449
v -0.152450 0.091124 0.074449
v -0.146322 0.099301 0.074449
v -0.146319 0.099149 0.074449
v -0.146975 0.137160 0.117079
v -0.095049 0.222424 0.117079
v -0.089665 0.218637 0.117079
v -0.084518 0.237395 0.117079
v -0.079135 0.233609 0.117079
v -0.229604 -0.020584 0.100744
v 0.307579 -0.014640 0.100744
v -0.307159 -0.014146 0.100744
v -0.302129 0.091392 0.100744
v -0.302129 0.091392 0.100744
v -0.294996 0.096230 0.100744
v -0.154355 0.140058 0.100744
v -0.152897 0.098987 0.100744
v -0.152900 0.099139 0.100744
v -0.152359 0.140947 0.122059
v -0.095049 0.222424 0.122059
v -0.084518 0.237395 0.122059
v -0.225711 -0.015278 0.100744
v 0.307579 -0.021222 0.100744
v -0.229492 -0.014195 0.124387
v -0.226911 0.086269 0.124387
v -0.226911 0.086269 0.100744
v -0.223856 0.089648 0.100744
v -0.152450 0.091124 0.100744
v -0.146322 0.099301 0.100744
v -0.146319 0.099149 0.100744
v -0.146975 0.137160 0.122059
v -0.089665 0.218637 0.122059
v -0.079135 0.233609 0.122059
v -0.229492 -0.014195 0.124387
v -0.226911 0.090908 0.124387
v 0.309347 -0.014195 0.126989
v 0.311928 0.086269 0.126989
v -0.222211 0.093264 0.126242
v -0.221593 -0.014195 0.125688
v 0.311928 0.132844 0.126989
v -0.150860 0.137484 0.125688
v 0.028312 -0.014195 0.126199
v 0.030893 0.135662 0.126199
v 0.050664 -0.014195 0.126262
v 0.053244 0.135438 0.126262
v 0.030893 0.231391 0.126199
v 0.053244 0.231167 0.126262
v 0.309347 -0.014195 0.112333
v 0.311928 0.086269 0.112333
v 0.050664 -0.014195 0.111606
v 0.028950 0.090517 0.111879
v -0.222211 0.093264 0.111586
v -0.221593 -0.014195 0.111032
v 0.030893 0.135662 0.111543
v -0.150860 0.137484 0.111032
v 0.311928 0.132844 0.112333
v 0.028312 -0.014195 0.111543
v 0.051456 0.090179 0.111915
v 0.053244 0.135438 0.111606
v 0.053244 0.231167 0.111606
v 0.030893 0.231391 0.111543
v -0.157321 0.095550 0.127039
v -0.152450 0.091124 0.127039
v -0.152897 0.098987 0.127039
v -0.146322 0.099301 0.127039
v -0.152900 0.099139 0.127039
v -0.146319 0.099149 0.127039
v -0.152359 0.140947 0.127039
v -0.146975 0.137160 0.127039
v -0.229492 -0.014195 0.124387
v -0.226911 0.086269 0.124387
v -0.229492 -0.014195 0.124387
v -0.226911 0.090908 0.124387
v 0.309347 -0.014195 0.126989
v 0.311928 0.086269 0.126989
v -0.154059 0.093264 0.126242
v -0.153441 -0.014195 0.125688
v 0.311928 0.132844 0.126989
v -0.150860 0.137484 0.125688
v 0.028312 -0.014195 0.126199
v 0.030893 0.135662 0.126199
v 0.050664 -0.014195 0.126262
v 0.053244 0.135438 0.126262
v 0.030893 0.231391 0.126199
v 0.053244 0.231167 0.126262
v 0.309347 -0.014195 0.112333
v 0.311928 0.086269 0.112333
v 0.050664 -0.014195 0.111606
v 0.028950 0.090517 0.111879
v -0.154059 0.093264 0.111586
v -0.153441 -0.014195 0.111032
v 0.030893 0.135662 0.111543
v -0.150860 0.137484 0.111032
v 0.311928 0.132844 0.112333
v 0.028312 -0.014195 0.111543
v 0.051456 0.090179 0.111915
v 0.053244 0.135438 0.111606
v 0.053244 0.231167 0.111606
v 0.030893 0.231391 0.111543
v -0.157321 0.095550 -0.181753
v -0.152450 0.091124 -0.181753
v -0.152897 0.098987 -0.181753
v -0.146322 0.099301 -0.181753
v -0.152900 0.099139 -0.181753
v -0.146319 0.099149 -0.181753
v -0.152359 0.140947 -0.181753
v -0.146975 0.137160 -0.181753
v -0.229492 -0.014195 -0.184406
v -0.226911 0.086269 -0.184406
v -0.229492 -0.014195 -0.184406
v -0.226911 0.090908 -0.184406
v 0.309347 -0.014195 -0.181804
v 0.311928 0.086269 -0.181804
v -0.154059 0.093264 -0.182551
v -0.153441 -0.014195 -0.183105
v 0.311928 0.132844 -0.181804
v -0.150860 0.137484 -0.183105
v 0.028312 -0.014195 -0.182594
v 0.030893 0.135662 -0.182594
v 0.050664 -0.014195 -0.182531
v 0.053244 0.135438 -0.182531
v 0.030893 0.231391 -0.182594
v 0.053244 0.231167 -0.182531
v 0.309347 -0.014195 -0.196460
v 0.311928 0.086269 -0.196460
v 0.050664 -0.014195 -0.197187
v 0.028950 0.090517 -0.196913
v -0.154059 0.093264 -0.197207
v -0.153441 -0.014195 -0.197761
v 0.030893 0.135662 -0.197250
v -0.150860 0.137484 -0.197761
v 0.311928 0.132844 -0.196460
v 0.028312 -0.014195 -0.197250
v 0.051456 0.090179 -0.196877
v 0.053244 0.135438 -0.197187
v 0.053244 0.231167 -0.197187
v 0.030893 0.231391 -0.197250
v 0.053311 0.237840 -0.197187
v 0.053311 0.237840 -0.182531
v 0.030960 0.238064 -0.197250
v 0.030960 0.238064 -0.182594
v 0.389315 -0.010573 -0.188825
v 0.389315 -0.017155 -0.188825
v 0.389315 -0.017155 -0.083429
v 0.389315 -0.010573 0.100744
v 0.389315 -0.010573 0.127039
v 0.389315 -0.017155 0.127039
v 0.389315 -0.017155 0.074449
v 0.389315 -0.017155 0.021859
v 0.389315 -0.010573 -0.083429
v 0.389315 -0.010573 0.021859
v 0.389315 -0.010573 0.074449
v 0.389315 -0.017155 0.100744
v 0.391082 -0.010128 0.126989
v 0.393663 0.090336 0.126989
v 0.393663 0.136911 0.112333
v 0.393663 0.136911 0.126989
v 0.391082 -0.010128 0.112333
v 0.393663 0.090336 0.112333
v 0.391082 -0.010128 -0.181804
v 0.393663 0.090336 -0.181804
v 0.393663 0.136911 -0.196460
v 0.393663 0.136911 -0.181804
v 0.391082 -0.010128 -0.196460
v 0.393663 0.090336 -0.196460
v 0.234029 0.198615 -0.145079
v 0.167871 -0.010446 -0.168488
v 0.234029 0.198615 0.083874
v 0.167435 -0.008945 0.107284
v 0.217514 0.198615 -0.145079
v 0.166876 0.021926 -0.168488
v 0.217514 0.198615 0.083874
v 0.166876 0.021926 0.107284
v 0.235717 0.140370 -0.168488
v 0.237024 0.121795 -0.168488
v 0.242114 0.083386 -0.168488
v 0.248015 0.038498 -0.168488
v 0.206233 -0.008524 -0.168488
v 0.195607 0.030973 0.107284
v 0.211624 0.045460 0.107284
v 0.209429 0.083386 0.107284
v 0.214518 0.121795 0.107284
v 0.215825 0.140370 0.107284
v 0.235717 0.140370 0.107284
v 0.237024 0.121795 0.107284
v 0.242114 0.083386 0.107284
v 0.248015 0.038498 0.107284
v 0.206233 -0.008524 0.107284
v 0.215825 0.140370 -0.168488
v 0.214518 0.121795 -0.168488
v 0.209429 0.083386 -0.168488
v 0.211624 0.045459 -0.168488
v 0.195607 0.030973 -0.168488
v 0.118770 0.023134 -0.168816
v 0.118770 0.023134 0.106956
v 0.119765 -0.011629 -0.168816
v 0.119329 -0.010128 0.106956
v -0.101816 0.219050 0.143548
v -0.101816 0.236220 0.143548
v -0.101816 0.219050 -0.205812
v -0.101816 0.236220 -0.205812
v 0.384186 0.117103 0.143548
v 0.401351 0.116691 0.143548
v 0.384186 0.117103 -0.205812
v 0.401351 0.116691 -0.205812
v 0.264766 0.219050 -0.205812
v 0.264766 0.236220 -0.205812
v 0.264766 0.219050 0.143548
v 0.264766 0.236220 0.143548
v 0.398006 -0.022540 -0.205812
v 0.380841 -0.022128 -0.205812
v 0.380841 -0.022128 0.143548
v 0.398006 -0.022540 0.143548
vn -0.0000 1.0000 -0.0000
vn -0.0000 0.1992 -0.9800
vn -0.9990 0.0449 -0.0000
vn -0.0022 -0.0000 -1.0000
vn 0.9990 0.0449 -0.0000
vn -0.0000 0.1992 0.9800
vn -0.0000 -0.0000 1.0000
vn 0.0500 -0.9987 -0.0000
vn 0.7475 -0.6642 -0.0000
vn 0.9915 0.1303 -0.0000
vn 0.9913 0.1314 -0.0000
vn 0.9975 0.0702 -0.0000
vn -0.1524 0.9883 -0.0000
vn -0.6772 0.7358 -0.0000
vn -0.9983 -0.0578 -0.0000
vn -0.9913 0.1314 -0.0000
vn -0.9975 0.0702 -0.0000
vn -0.0000 -0.0000 -1.0000
vn -0.9996 -0.0280 0.0044
vn -0.0489 0.9988 -0.0000
vn 0.0245 -0.9996 -0.0168
vn 0.0022 0.0001 1.0000
vn -0.0022 -0.0000 1.0000
vn 0.0108 -0.9998 0.0167
vn -0.2493 0.9684 -0.0000
vn -0.7098 0.7044 -0.0000
vn -0.9998 -0.0174 -0.0000
vn 0.0016 1.0000 -0.0000
vn 0.0245 -0.9996 0.0168
vn 0.0022 0.0001 -1.0000
vn 0.2752 0.9614 -0.0000
vn -0.0012 -1.0000 -0.0000
vn -0.0012 1.0000 -0.0000
vn -0.0827 -0.9966 -0.0000
vn 0.9997 -0.0257 -0.0000
vn -0.9989 0.0476 -0.0000
vn 0.0207 -0.9998 -0.0000
vn 0.7417 -0.6707 -0.0000
vn -0.5613 0.8276 -0.0000
vn -0.2975 0.9547 -0.0000
vn 0.8003 -0.5997 -0.0000
vn 0.9994 0.0355 -0.0000
vn 0.9999 0.0173 -0.0000
vn -0.9997 -0.0246 -0.0000
vn 0.8179 -0.5753 -0.0000
vn -0.9999 0.0130 -0.0000
vn 0.5753 0.8179 -0.0000
vn 0.0497 -0.9988 -0.0000
vn -0.8179 0.5753 -0.0000
vn -0.9997 0.0257 -0.0000
vn -0.3641 -0.0069 0.9313
vn 1.0000 -0.0000 -0.0000
vn -0.0100 -0.9999 -0.0000
vn -0.0016 -0.0000 1.0000
vn -0.0015 0.0069 1.0000
vn -0.0010 0.0142 0.9999
vn -0.0012 -0.0032 1.0000
vn -0.0015 0.0075 1.0000
vn -0.0016 -0.0030 1.0000
vn -0.0028 -0.0000 1.0000
vn 0.5268 -0.8500 -0.0000
vn -1.0000 -0.0000 -0.0000
vn 1.0000 0.0057 -0.0000
vn 0.1625 -0.0042 -0.9867
vn -0.0014 0.0126 0.9999
vn -0.0017 -0.0032 1.0000
vn 0.0171 -0.0004 -0.9999
vn 0.0028 -0.0000 -1.0000
vn -0.9999 0.0100 -0.0000
vn 0.9999 -0.0100 -0.0000
vn -0.0497 0.9988 -0.0000
vn -0.0000 0.3729 0.9279
vn -0.9996 0.0290 -0.0000
vn -0.0068 -0.0001 1.0000
vn 0.9996 0.0290 -0.0000
vn -0.0000 0.3729 -0.9279
vn 0.0109 -0.9999 0.0055
vn -0.3004 0.9538 -0.0000
vn -0.6708 0.7417 -0.0000
vn -0.9999 -0.0168 -0.0000
vn 0.0251 0.9997 -0.0000
vn 0.0245 -0.9997 0.0055
vn 0.0068 0.0002 -1.0000
vn -0.6493 -0.7606 -0.0000
vn 0.6586 0.7525 -0.0000
vn -0.0000 -1.0000 -0.0000
vn -0.0240 -0.9997 -0.0000
vn -0.9997 0.0240 -0.0000
vn 0.9997 -0.0240 -0.0000
vn 0.0108 -0.9998 -0.0167
vn -0.9999 -0.0164 -0.0000
vn -0.9996 -0.0296 -0.0044
vn -0.0000 -0.0001 -1.0000
vn -0.1625 0.0040 0.9867
vn -0.0028 -0.0029 1.0000
vn -0.0027 0.0076 1.0000
vn -0.0020 -0.0052 1.0000
vn -0.0027 0.0069 1.0000
vn -0.0028 -0.0032 1.0000
vn 0.3671 -0.0000 -0.9302
vn -0.0109 0.0051 -0.9999
vn 0.0020 -0.0010 -1.0000
vn 0.3582 0.0069 -0.9336
vn -0.0028 -0.0052 1.0000
vn 0.0255 -0.0000 -0.9997
vn -0.2208 0.0038 -0.9753
vn 0.0249 0.0053 -0.9997
vn -0.0027 0.0070 1.0000
vn -0.9996 -0.0286 -0.0014
vt 0.258142 0.651167
vt 0.197682 0.711627
vt 0.258142 0.711627
vt 0.268219 0.590706
vt 0.268219 0.651167
vt 0.268219 0.772088
vt 0.258142 0.832549
vt 0.268219 0.832549
vt 0.318603 0.651167
vt 0.318603 0.590706
vt 0.268219 0.711627
vt 0.258142 0.772088
vt 0.318603 0.711627
vt 0.308526 0.772088
vt 0.318603 0.772088
vt 0.308526 0.711627
vt 0.298449 0.772088
vt 0.288373 0.711627
vt 0.288373 0.772088
vt 0.278296 0.772088
vt 0.278296 0.711627
vt 0.308526 0.651167
vt 0.298449 0.711627
vt 0.298449 0.651167
vt 0.288373 0.651167
vt 0.278296 0.651167
vt 0.308526 0.832549
vt 0.318603 0.832549
vt 0.298449 0.832549
vt 0.288373 0.832549
vt 0.278296 0.832549
vt 0.308526 0.590706
vt 0.298449 0.590706
vt 0.288373 0.590706
vt 0.379064 0.711627
vt 0.206666 0.691941
vt 0.270980 0.627627
vt 0.270980 0.691941
vt 0.281699 0.563313
vt 0.281699 0.627627
vt 0.270980 0.820569
vt 0.281699 0.756255
vt 0.281699 0.820569
vt 0.335294 0.563313
vt 0.335294 0.627627
vt 0.281699 0.691941
vt 0.270980 0.756255
vt 0.324575 0.756255
vt 0.335294 0.691941
vt 0.335294 0.756255
vt 0.313856 0.756255
vt 0.324575 0.691941
vt 0.303137 0.691941
vt 0.313856 0.691941
vt 0.292418 0.756255
vt 0.303137 0.756255
vt 0.292418 0.691941
vt 0.324575 0.627627
vt 0.313856 0.627627
vt 0.303137 0.627627
vt 0.292418 0.627627
vt 0.324575 0.820569
vt 0.335294 0.820569
vt 0.313856 0.820569
vt 0.303137 0.820569
vt 0.292418 0.820569
vt 0.324575 0.563313
vt 0.313856 0.563313
vt 0.303137 0.563313
vt 0.292418 0.563313
vt 0.399608 0.691941
vt 0.399608 0.627627
vt 0.881201 0.158957
vt 0.881201 0.242376
vt 0.881201 0.242375
vt 0.625000 0.250000
vt 0.375000 0.500000
vt 0.375000 0.250000
vt 0.875000 0.729188
vt 0.375000 0.750000
vt 0.625000 1.000000
vt 0.375000 1.000000
vt 0.375000 0.729188
vt 0.125000 0.750000
vt 0.125000 0.729188
vt 0.881201 0.388145
vt 0.631201 0.408957
vt 0.631201 0.388145
vt 0.125000 0.729188
vt 0.881201 0.242376
vt 0.713127 0.883086
vt 0.713127 0.893349
vt 0.875000 0.583419
vt 0.875000 0.500000
vt 0.875000 0.583419
vt 0.279361 0.388244
vt 0.279361 0.368224
vt 0.125000 0.729188
vt 0.280849 0.306396
vt 0.280849 0.286376
vt 0.875000 0.583419
vt 0.319913 0.245171
vt 0.319913 0.235181
vt 0.125000 0.729188
vt 0.125000 0.500000
vt 0.125000 0.583419
vt 0.125000 0.666752
vt 0.625000 0.083248
vt 0.375000 0.083248
vt 0.375000 0.166581
vt 0.875000 0.666752
vt 0.875000 0.708376
vt 0.875000 0.666752
vt 0.280849 0.256387
vt 0.280849 0.266377
vt 0.125000 0.583419
vt 0.279361 0.348225
vt 0.279361 0.338235
vt 0.279361 0.348225
vt 0.713127 0.811200
vt 0.713127 0.770062
vt 0.713127 0.852296
vt 0.713127 0.811200
vt 0.881201 0.325709
vt 0.881201 0.367333
vt 0.881201 0.367333
vt 0.881201 0.367333
vt 0.881201 0.325709
vt 0.875000 0.708376
vt 0.125000 0.583419
vt 0.125000 0.666752
vt 0.125000 0.583419
vt 0.631201 0.242376
vt 0.631201 0.158957
vt 0.631201 0.325709
vt 0.375000 0.583419
vt 0.000000 0.000000
vt 0.375000 0.708376
vt 0.881201 0.325709
vt 0.881201 0.367333
vt 0.125000 0.729188
vt 0.625000 0.166581
vt 0.625000 0.041624
vt 0.375000 0.041624
vt 0.203765 0.210113
vt 0.203765 0.293532
vt 0.203765 0.139685
vt 0.203765 0.181309
vt 0.203765 0.202121
vt 0.125000 0.708376
vt 0.125000 0.666752
vt 0.625000 0.020812
vt 0.375000 0.020812
vt 0.881201 0.388145
vt 0.279361 0.333241
vt 0.279361 0.333241
vt 0.280849 0.251393
vt 0.280849 0.251393
vt 0.875000 0.729188
vt 0.875000 0.729188
vt 0.125000 0.708376
vt 0.319913 0.230187
vt 0.713127 0.872823
vt 0.713127 0.872823
vt 0.125000 0.708376
vt 0.125000 0.708376
vt 0.631201 0.367333
vt 0.375000 0.666752
vt 0.683833 0.803143
vt 0.682169 0.825200
vt 0.682073 0.803146
vt 0.319913 0.225192
vt 0.875000 0.750000
vt 0.280849 0.246398
vt 0.279361 0.328246
vt 0.881201 0.408957
vt 0.625000 0.000000
vt 0.375000 0.000000
vt 0.203765 0.222933
vt 0.309178 0.366442
vt 0.686718 0.657114
vt 0.688478 0.661599
vt 0.686718 0.661599
vt 0.265773 0.354041
vt 0.625000 0.500000
vt 0.229538 0.262450
vt 0.231199 0.311467
vt 0.229440 0.311466
vt 0.682212 0.733366
vt 0.124904 0.252861
vt 0.128861 0.253444
vt 0.124913 0.270108
vt 0.276902 0.450829
vt 0.265946 0.145602
vt 0.276902 0.145588
vt 0.244679 0.409080
vt 0.233882 0.407492
vt 0.244642 0.362033
vt 0.625000 0.729188
vt 0.625000 0.583419
vt 0.625000 0.666752
vt 0.625000 0.708376
vt 0.625000 0.750000
vt 0.679990 0.825190
vt 0.679889 0.803140
vt 0.675286 0.824475
vt 0.675185 0.802431
vt 0.258142 0.590706
vt 0.278296 0.590706
vt 0.379064 0.651167
vt 0.288335 0.312679
vt 0.283811 0.317203
vt 0.283811 0.312679
vt 0.288335 0.320709
vt 0.283811 0.321727
vt 0.283811 0.320709
vt 0.283811 0.326252
vt 0.288335 0.326252
vt 0.288335 0.327270
vt 0.283811 0.330776
vt 0.283811 0.327270
vt 0.282792 0.326252
vt 0.282792 0.321727
vt 0.292859 0.321727
vt 0.289354 0.326252
vt 0.289354 0.321727
vt 0.288335 0.321727
vt 0.279287 0.326252
vt 0.279287 0.321727
vt 0.288335 0.317203
vt 0.197682 0.651167
vt 0.206666 0.627627
vt 0.270980 0.563313
vt 0.683929 0.825192
vt 0.688478 0.657114
vt 0.231297 0.262451
vt 0.683972 0.733367
vt 0.129044 0.253444
vt 0.129146 0.269966
vt 0.130888 0.270694
vt 0.130806 0.311910
vt 0.124903 0.311323
vt 0.134576 0.311911
vt 0.134566 0.316980
vt 0.130795 0.316979
vt 0.130679 0.375654
vt 0.124887 0.375053
vt 0.128842 0.375649
vt 0.124901 0.316392
vt 0.124887 0.252861
vt 0.265946 0.450843
vt 0.233384 0.407492
vt 0.233094 0.362423
vt 0.228343 0.360437
vt 0.228539 0.248004
vt 0.244642 0.249601
vt 0.218252 0.248004
vt 0.218276 0.234177
vt 0.228563 0.234177
vt 0.228841 0.074156
vt 0.244642 0.075752
vt 0.233846 0.074156
vt 0.244642 0.235774
vt 0.244726 0.409080
vt 0.288335 0.330776
vt 0.292859 0.326252
s 0
usemtl Material
f 3/1/1 5/2/1 1/3/1
f 18/4/2 3/1/2 19/5/2
f 24/6/3 7/7/3 18/8/3
f 32/9/4 8/10/4 4/9/4
f 19/5/5 1/3/5 9/11/5
f 9/11/6 5/12/6 24/6/6
f 2/13/7 28/14/7 6/15/7
f 13/16/7 27/17/7 28/14/7
f 27/17/7 11/18/7 26/19/7
f 11/18/7 25/20/7 26/19/7
f 10/21/7 24/6/7 25/20/7
f 2/13/8 23/22/8 13/16/8
f 23/22/9 12/23/9 13/16/9
f 22/24/10 11/18/10 12/23/10
f 21/25/11 10/21/11 11/18/11
f 20/26/12 9/11/12 10/21/12
f 6/15/13 14/27/13 8/28/13
f 28/14/14 15/29/14 14/27/14
f 27/17/15 16/30/15 15/29/15
f 26/19/16 17/31/16 16/30/16
f 25/20/17 18/8/17 17/31/17
f 4/9/18 14/32/18 23/22/18
f 23/22/18 15/33/18 22/24/18
f 15/33/18 21/25/18 22/24/18
f 16/34/18 20/26/18 21/25/18
f 20/26/18 18/4/18 19/5/18
f 29/35/19 32/9/19 31/13/19
f 30/28/20 6/15/20 8/28/20
f 31/13/21 4/9/21 2/13/21
f 6/15/22 31/13/22 2/13/22
f 37/36/1 35/37/1 33/38/1
f 35/37/6 50/39/6 51/40/6
f 39/41/3 56/42/3 50/43/3
f 40/44/23 64/45/23 36/45/23
f 33/38/5 51/40/5 41/46/5
f 37/47/2 41/46/2 56/42/2
f 60/48/18 34/49/18 38/50/18
f 59/51/18 45/52/18 60/48/18
f 59/51/18 43/53/18 44/54/18
f 57/55/18 43/53/18 58/56/18
f 56/42/18 42/57/18 57/55/18
f 34/49/24 55/58/24 36/45/24
f 44/54/9 55/58/9 45/52/9
f 43/53/10 54/59/10 44/54/10
f 42/57/11 53/60/11 43/53/11
f 41/46/12 52/61/12 42/57/12
f 46/62/25 38/50/25 40/63/25
f 47/64/26 60/48/26 46/62/26
f 48/65/15 59/51/15 47/64/15
f 49/66/16 58/56/16 48/65/16
f 50/43/17 57/55/17 49/66/17
f 36/45/7 46/67/7 40/44/7
f 55/58/7 47/68/7 46/67/7
f 53/60/7 47/68/7 54/59/7
f 52/61/7 48/69/7 53/60/7
f 51/40/7 49/70/7 52/61/7
f 61/71/27 64/45/27 62/72/27
f 38/50/28 62/63/28 40/63/28
f 36/45/29 63/49/29 34/49/29
f 38/50/30 63/49/30 61/50/30
f 68/73/31 116/74/31 108/75/31
f 68/76/18 71/77/18 67/78/18
f 262/79/7 333/79/7 334/79/7
f 69/80/7 66/81/7 65/82/7
f 198/83/32 65/84/32 185/85/32
f 197/86/33 70/87/33 186/88/33
f 76/76/18 77/78/18 80/76/18
f 65/84/34 187/89/34 185/85/34
f 67/78/18 76/76/18 68/76/18
f 65/82/7 75/81/7 74/82/7
f 188/85/1 82/84/1 189/85/1
f 75/81/7 78/82/7 74/82/7
f 76/73/35 120/90/35 116/74/35
f 187/91/36 78/92/36 188/91/36
f 84/76/18 85/78/18 88/76/18
f 80/76/1 81/78/1 84/76/1
f 78/82/1 83/81/1 82/82/1
f 120/93/1 84/94/1 124/95/1
f 88/73/37 132/90/37 128/75/37
f 83/81/7 86/82/7 82/82/7
f 84/73/38 128/75/38 124/75/38
f 189/91/39 86/92/39 190/91/39
f 92/76/18 93/78/18 96/76/18
f 86/92/40 191/91/40 190/91/40
f 88/76/18 89/78/18 92/76/18
f 87/81/7 90/82/7 86/82/7
f 94/82/7 99/81/7 98/82/7
f 90/82/18 95/81/18 94/82/18
f 92/96/41 136/97/41 132/97/41
f 191/85/42 94/84/42 192/98/42
f 100/99/43 144/100/43 140/100/43
f 136/93/44 100/94/44 140/101/44
f 192/98/44 98/84/44 193/85/44
f 96/76/7 97/78/7 100/76/7
f 143/102/45 182/103/45 180/103/45
f 98/84/46 194/104/46 193/85/46
f 97/78/18 104/76/18 100/76/18
f 98/82/7 103/81/7 102/82/7
f 97/105/46 141/106/46 101/105/46
f 138/107/46 141/106/46 137/106/46
f 143/108/18 145/109/18 152/108/18
f 143/108/47 141/110/47 142/109/47
f 133/106/44 97/105/44 93/105/44
f 133/106/44 138/107/44 137/106/44
f 135/111/44 179/112/44 178/112/44
f 136/93/44 139/113/44 135/111/44
f 179/114/43 143/115/43 180/114/43
f 140/100/43 143/115/43 139/115/43
f 129/116/42 93/105/42 89/105/42
f 130/107/42 133/106/42 129/116/42
f 131/117/41 178/118/41 177/118/41
f 132/97/41 135/119/41 131/117/41
f 125/120/40 89/121/40 85/121/40
f 126/122/40 129/120/40 125/120/40
f 121/123/39 85/121/39 81/121/39
f 122/122/39 125/120/39 121/123/39
f 123/124/38 176/125/38 175/126/38
f 124/75/38 127/124/38 123/124/38
f 127/124/37 177/127/37 176/125/37
f 128/75/37 131/128/37 127/124/37
f 174/129/1 123/113/1 175/129/1
f 119/113/1 124/95/1 123/111/1
f 113/120/36 77/121/36 73/121/36
f 113/120/36 118/122/36 117/123/36
f 115/128/35 174/126/35 173/126/35
f 116/74/35 119/128/35 115/128/35
f 77/105/1 121/106/1 81/105/1
f 117/106/1 122/107/1 121/106/1
f 105/130/34 73/105/34 67/105/34
f 106/131/34 113/132/34 105/130/34
f 68/73/33 111/133/33 72/134/33
f 108/75/33 112/135/33 111/133/33
f 71/77/32 105/130/32 67/105/32
f 110/136/32 106/131/32 105/130/32
f 307/137/48 338/137/48 291/137/48
f 172/138/48 328/83/48 198/83/48
f 107/139/31 173/126/31 171/140/31
f 108/75/31 115/128/31 107/139/31
f 151/106/49 158/105/49 150/105/49
f 152/108/18 153/109/18 160/108/18
f 104/99/45 148/100/45 144/100/45
f 141/106/49 150/105/49 101/105/49
f 102/84/49 195/141/49 194/104/49
f 144/142/7 151/110/7 141/110/7
f 104/76/18 150/78/18 149/76/18
f 103/81/7 146/82/7 102/82/7
f 156/142/47 158/78/47 159/110/47
f 184/143/47 153/109/47 183/144/47
f 149/145/45 156/146/45 148/146/45
f 146/84/49 196/85/49 195/141/49
f 148/142/7 159/110/7 151/110/7
f 152/147/45 184/148/45 182/148/45
f 149/76/18 158/78/18 157/76/18
f 147/81/7 154/82/7 146/82/7
f 182/148/45 208/149/45 207/149/45
f 181/150/49 153/151/49 145/151/49
f 208/152/47 183/144/47 196/153/47
f 170/150/49 145/151/49 142/151/49
f 197/86/31 173/126/31 199/154/31
f 173/126/35 200/154/35 199/154/35
f 200/79/1 175/129/1 201/79/1
f 176/125/37 203/154/37 202/154/37
f 175/126/38 202/154/38 201/154/38
f 177/118/41 204/155/41 203/156/41
f 205/157/43 180/114/43 206/158/43
f 178/112/44 205/159/44 204/160/44
f 169/161/46 142/151/46 138/107/46
f 180/103/45 207/162/45 206/162/45
f 134/151/44 169/161/44 138/107/44
f 130/107/42 168/150/42 134/151/42
f 166/163/40 130/122/40 126/122/40
f 165/164/39 126/122/39 122/122/39
f 114/122/36 164/164/36 118/122/36
f 118/151/1 165/165/1 122/151/1
f 161/166/34 114/107/34 106/131/34
f 107/139/33 162/167/33 112/135/33
f 109/168/32 161/166/32 106/131/32
f 269/169/48 332/170/48 253/171/48
f 206/162/45 147/172/45 103/172/45
f 204/160/44 99/173/44 95/173/44
f 99/174/43 206/158/43 103/174/43
f 203/156/41 95/175/41 91/175/41
f 201/154/38 87/176/38 83/176/38
f 202/154/37 91/176/37 87/176/37
f 79/173/1 201/79/1 83/173/1
f 199/79/35 79/173/35 75/173/35
f 66/176/31 199/154/31 75/176/31
f 155/177/47 196/153/47 154/178/47
f 207/149/45 155/179/45 147/179/45
f 195/141/49 183/150/49 181/150/49
f 194/104/49 181/150/49 170/150/49
f 193/85/46 170/150/46 169/161/46
f 168/150/44 193/85/44 169/161/44
f 167/165/42 192/98/42 168/150/42
f 190/91/40 167/164/40 166/163/40
f 189/91/39 166/163/39 165/164/39
f 163/164/36 188/91/36 164/164/36
f 164/150/1 189/85/1 165/150/1
f 185/85/34 163/165/34 161/166/34
f 171/140/33 186/88/33 162/167/33
f 172/138/32 185/85/32 161/166/32
f 109/168/48 323/138/48 172/138/48
f 200/79/18 209/79/18 210/79/18
f 212/137/50 223/137/50 211/137/50
f 210/180/51 214/180/51 213/180/51
f 218/181/52 236/182/52 221/183/52
f 216/137/53 229/137/53 218/137/53
f 220/137/53 231/137/53 215/137/53
f 214/137/1 232/137/1 228/137/1
f 219/137/1 223/137/1 225/137/1
f 221/137/53 235/137/53 222/137/53
f 233/79/54 223/79/54 224/79/54
f 224/79/55 234/79/55 233/79/55
f 226/79/56 230/79/56 227/79/56
f 227/184/57 232/184/57 226/184/57
f 233/79/58 229/79/58 226/79/58
f 226/79/59 225/79/59 233/79/59
f 229/79/60 235/79/60 236/79/60
f 216/137/61 227/137/61 230/137/61
f 217/137/1 225/137/1 232/137/1
f 222/137/62 234/137/62 220/137/62
f 215/137/62 224/137/62 212/137/62
f 214/154/63 227/154/63 213/154/63
f 199/137/64 200/137/64 214/137/64
f 238/81/7 239/82/7 237/82/7
f 241/82/7 244/81/7 243/82/7
f 72/185/18 318/77/18 71/77/18
f 254/186/53 267/187/53 256/188/53
f 258/189/53 269/169/53 253/171/53
f 259/137/53 273/137/53 260/137/53
f 271/180/54 261/180/54 262/180/54
f 262/180/55 272/180/55 271/180/55
f 264/180/65 268/180/65 265/180/65
f 265/180/66 270/180/66 264/180/66
f 271/180/58 267/180/58 264/180/58
f 264/180/59 263/180/59 271/180/59
f 267/180/60 273/180/60 274/180/60
f 260/137/62 272/137/62 258/137/62
f 307/79/7 340/79/7 337/79/7
f 245/190/67 246/191/67 252/192/67
f 276/81/7 277/82/7 275/82/7
f 279/82/7 282/81/7 281/82/7
f 269/79/7 334/79/7 331/79/7
f 292/193/53 305/194/53 294/195/53
f 296/137/53 307/137/53 291/137/53
f 298/137/68 316/137/68 314/137/68
f 309/79/54 299/79/54 300/79/54
f 300/79/55 310/79/55 309/79/55
f 302/79/65 306/79/65 303/79/65
f 303/79/66 308/79/66 302/79/66
f 309/79/58 305/79/58 302/79/58
f 302/79/59 301/79/59 309/79/59
f 305/79/60 311/79/60 312/79/60
f 298/137/62 310/137/62 296/137/62
f 198/83/48 322/80/48 69/80/48
f 283/196/67 284/197/67 290/198/67
f 316/137/53 313/137/53 314/137/53
f 298/137/69 313/137/69 311/137/69
f 311/79/60 315/79/60 312/79/60
f 312/137/70 316/137/70 297/137/70
f 320/199/52 322/80/52 328/83/52
f 317/185/52 319/136/52 318/77/52
f 325/200/52 324/168/52 319/136/52
f 326/201/52 323/138/52 324/168/52
f 327/202/52 328/83/52 323/138/52
f 330/137/50 333/137/50 329/137/50
f 332/137/62 334/137/62 330/137/62
f 336/137/50 339/137/50 335/137/50
f 338/137/62 340/137/62 336/137/62
f 300/79/7 339/79/7 340/79/7
f 110/136/48 324/168/48 109/168/48
f 71/77/48 319/136/48 110/136/48
f 249/137/71 333/137/71 261/137/71
f 287/137/71 339/137/71 299/137/71
f 186/199/71 327/202/71 162/202/71
f 70/203/71 320/199/71 186/199/71
f 111/200/71 317/185/71 72/185/71
f 70/203/7 322/80/7 321/203/7
f 112/201/71 325/200/71 111/200/71
f 253/171/18 330/204/18 250/205/18
f 291/137/18 336/137/18 288/137/18
f 250/205/18 329/206/18 249/207/18
f 288/137/18 335/137/18 287/137/18
f 162/202/71 326/201/71 112/201/71
f 345/2/1 343/1/1 341/3/1
f 359/5/72 347/208/72 358/4/72
f 358/8/73 345/12/73 364/6/73
f 348/10/74 372/9/74 344/9/74
f 349/11/75 343/1/75 359/5/75
f 345/12/76 349/11/76 364/6/76
f 368/14/18 342/13/18 346/15/18
f 367/17/18 353/16/18 368/14/18
f 367/17/18 351/18/18 352/23/18
f 365/20/18 351/18/18 366/19/18
f 364/6/18 350/21/18 365/20/18
f 342/13/77 363/22/77 344/9/77
f 352/23/9 363/22/9 353/16/9
f 351/18/10 362/24/10 352/23/10
f 350/21/11 361/25/11 351/18/11
f 349/11/12 360/26/12 350/21/12
f 354/27/78 346/15/78 348/28/78
f 355/29/79 368/14/79 354/27/79
f 356/30/15 367/17/15 355/29/15
f 357/31/16 366/19/16 356/30/16
f 358/8/17 365/20/17 357/31/17
f 344/9/7 354/32/7 348/10/7
f 363/22/7 355/33/7 354/32/7
f 361/25/7 355/33/7 362/24/7
f 360/26/7 356/34/7 361/25/7
f 360/26/7 358/4/7 357/209/7
f 369/35/80 372/9/80 370/210/80
f 346/15/81 370/28/81 348/28/81
f 344/9/82 371/13/82 342/13/82
f 346/15/83 371/13/83 369/15/83
f 374/211/62 375/212/62 373/213/62
f 382/214/18 379/215/18 381/216/18
f 377/217/7 388/218/7 378/218/7
f 384/219/7 373/220/7 383/221/7
f 379/215/84 383/222/84 381/223/84
f 376/224/1 384/225/1 382/226/1
f 382/226/85 378/218/85 380/227/85
f 381/223/86 373/228/86 375/229/86
f 377/217/7 384/219/7 383/221/7
f 376/230/18 381/216/18 375/212/18
f 385/227/87 387/217/87 386/215/87
f 379/215/88 387/217/88 377/217/88
f 378/218/89 385/227/89 380/227/89
f 379/215/18 385/227/18 386/215/18
f 3/1/1 7/231/1 5/2/1
f 18/4/2 7/208/2 3/1/2
f 24/6/3 5/12/3 7/7/3
f 32/9/4 30/10/4 8/10/4
f 19/5/5 3/1/5 1/3/5
f 9/11/6 1/3/6 5/12/6
f 2/13/7 13/16/7 28/14/7
f 13/16/7 12/23/7 27/17/7
f 27/17/7 12/23/7 11/18/7
f 11/18/7 10/21/7 25/20/7
f 10/21/7 9/11/7 24/6/7
f 2/13/90 4/9/90 23/22/90
f 23/22/9 22/24/9 12/23/9
f 22/24/10 21/25/10 11/18/10
f 21/25/11 20/26/11 10/21/11
f 20/26/12 19/5/12 9/11/12
f 6/15/13 28/14/13 14/27/13
f 28/14/14 27/17/14 15/29/14
f 27/17/15 26/19/15 16/30/15
f 26/19/16 25/20/16 17/31/16
f 25/20/17 24/6/17 18/8/17
f 4/9/18 8/10/18 14/32/18
f 23/22/18 14/32/18 15/33/18
f 15/33/18 16/34/18 21/25/18
f 16/34/18 17/209/18 20/26/18
f 20/26/18 17/209/18 18/4/18
f 29/35/91 30/210/91 32/9/91
f 30/28/20 29/15/20 6/15/20
f 31/13/21 32/9/21 4/9/21
f 6/15/22 29/15/22 31/13/22
f 37/36/1 39/232/1 35/37/1
f 35/37/6 39/233/6 50/39/6
f 39/41/3 37/47/3 56/42/3
f 40/44/23 62/44/23 64/45/23
f 33/38/5 35/37/5 51/40/5
f 37/47/2 33/38/2 41/46/2
f 60/48/18 45/52/18 34/49/18
f 59/51/18 44/54/18 45/52/18
f 59/51/18 58/56/18 43/53/18
f 57/55/18 42/57/18 43/53/18
f 56/42/18 41/46/18 42/57/18
f 34/49/8 45/52/8 55/58/8
f 44/54/9 54/59/9 55/58/9
f 43/53/10 53/60/10 54/59/10
f 42/57/11 52/61/11 53/60/11
f 41/46/12 51/40/12 52/61/12
f 46/62/25 60/48/25 38/50/25
f 47/64/26 59/51/26 60/48/26
f 48/65/15 58/56/15 59/51/15
f 49/66/16 57/55/16 58/56/16
f 50/43/17 56/42/17 57/55/17
f 36/45/7 55/58/7 46/67/7
f 55/58/7 54/59/7 47/68/7
f 53/60/7 48/69/7 47/68/7
f 52/61/7 49/70/7 48/69/7
f 51/40/7 50/39/7 49/70/7
f 61/71/92 63/49/92 64/45/92
f 38/50/28 61/50/28 62/63/28
f 36/45/29 64/45/29 63/49/29
f 38/50/30 34/49/30 63/49/30
f 68/73/31 76/73/31 116/74/31
f 68/76/18 72/185/18 71/77/18
f 262/79/7 261/79/7 333/79/7
f 69/80/7 70/203/7 66/81/7
f 198/83/32 69/80/32 65/84/32
f 197/86/33 66/176/33 70/87/33
f 76/76/18 73/78/18 77/78/18
f 65/84/34 74/84/34 187/89/34
f 67/78/18 73/78/18 76/76/18
f 65/82/7 66/81/7 75/81/7
f 188/85/1 78/84/1 82/84/1
f 75/81/7 79/81/7 78/82/7
f 76/73/35 80/73/35 120/90/35
f 187/91/36 74/92/36 78/92/36
f 84/76/18 81/78/18 85/78/18
f 80/76/1 77/78/1 81/78/1
f 78/82/1 79/81/1 83/81/1
f 120/93/1 80/94/1 84/94/1
f 88/73/37 92/73/37 132/90/37
f 83/81/7 87/81/7 86/82/7
f 84/73/38 88/73/38 128/75/38
f 189/91/39 82/92/39 86/92/39
f 92/76/7 89/78/7 93/78/7
f 86/92/40 90/92/40 191/91/40
f 88/76/18 85/78/18 89/78/18
f 87/81/7 91/81/7 90/82/7
f 94/82/18 95/81/18 99/81/18
f 90/82/7 91/81/7 95/81/7
f 92/96/41 96/96/41 136/97/41
f 191/85/42 90/84/42 94/84/42
f 100/99/43 104/99/43 144/100/43
f 136/93/44 96/94/44 100/94/44
f 192/98/44 94/84/44 98/84/44
f 96/76/93 93/78/93 97/78/93
f 143/102/45 152/102/45 182/103/45
f 98/84/46 102/84/46 194/104/46
f 97/78/18 101/78/18 104/76/18
f 98/82/7 99/81/7 103/81/7
f 97/105/46 137/106/46 141/106/46
f 138/107/46 142/151/46 141/106/46
f 143/108/18 142/109/18 145/109/18
f 143/108/47 144/142/47 141/110/47
f 133/106/44 137/106/44 97/105/44
f 133/106/44 134/151/44 138/107/44
f 135/111/44 139/113/44 179/112/44
f 136/93/44 140/101/44 139/113/44
f 179/114/43 139/115/43 143/115/43
f 140/100/43 144/100/43 143/115/43
f 129/116/42 133/106/42 93/105/42
f 130/107/42 134/151/42 133/106/42
f 131/117/41 135/119/41 178/118/41
f 132/97/41 136/97/41 135/119/41
f 125/120/40 129/120/40 89/121/40
f 126/122/40 130/122/40 129/120/40
f 121/123/39 125/120/39 85/121/39
f 122/122/39 126/122/39 125/120/39
f 123/124/38 127/124/38 176/125/38
f 124/75/38 128/75/38 127/124/38
f 127/124/37 131/128/37 177/127/37
f 128/75/37 132/90/37 131/128/37
f 174/129/1 119/113/1 123/113/1
f 119/113/1 120/93/1 124/95/1
f 113/120/36 117/123/36 77/121/36
f 113/120/36 114/122/36 118/122/36
f 115/128/35 119/128/35 174/126/35
f 116/74/35 120/90/35 119/128/35
f 77/105/1 117/106/1 121/106/1
f 117/106/1 118/151/1 122/107/1
f 105/130/34 113/132/34 73/105/34
f 106/131/34 114/107/34 113/132/34
f 68/73/33 108/75/33 111/133/33
f 108/75/33 107/139/33 112/135/33
f 71/77/32 110/136/32 105/130/32
f 110/136/32 109/168/32 106/131/32
f 307/137/48 337/137/48 338/137/48
f 172/138/48 323/138/48 328/83/48
f 107/139/31 115/128/31 173/126/31
f 108/75/31 116/74/31 115/128/31
f 151/106/49 159/106/49 158/105/49
f 152/108/18 145/109/18 153/109/18
f 104/99/45 149/99/45 148/100/45
f 141/106/49 151/106/49 150/105/49
f 102/84/49 146/84/49 195/141/49
f 144/142/7 148/142/7 151/110/7
f 104/76/18 101/78/18 150/78/18
f 103/81/7 147/81/7 146/82/7
f 156/142/47 157/76/47 158/78/47
f 184/143/47 160/108/47 153/109/47
f 149/145/45 157/145/45 156/146/45
f 146/84/49 154/84/49 196/85/49
f 148/142/7 156/142/7 159/110/7
f 152/147/45 160/147/45 184/148/45
f 149/76/18 150/78/18 158/78/18
f 147/81/7 155/81/7 154/82/7
f 182/148/45 184/148/45 208/149/45
f 181/150/49 183/150/49 153/151/49
f 208/152/47 184/143/47 183/144/47
f 170/150/49 181/150/49 145/151/49
f 197/86/31 171/140/31 173/126/31
f 173/126/35 174/126/35 200/154/35
f 200/79/1 174/129/1 175/129/1
f 176/125/37 177/127/37 203/154/37
f 175/126/38 176/125/38 202/154/38
f 177/118/41 178/118/41 204/155/41
f 205/157/43 179/114/43 180/114/43
f 178/112/44 179/112/44 205/159/44
f 169/161/46 170/150/46 142/151/46
f 180/103/45 182/103/45 207/162/45
f 134/151/44 168/150/44 169/161/44
f 130/107/42 167/165/42 168/150/42
f 166/163/40 167/164/40 130/122/40
f 165/164/39 166/163/39 126/122/39
f 114/122/36 163/164/36 164/164/36
f 118/151/1 164/150/1 165/165/1
f 161/166/34 163/165/34 114/107/34
f 107/139/33 171/140/33 162/167/33
f 109/168/32 172/138/32 161/166/32
f 269/169/48 331/234/48 332/170/48
f 206/162/45 207/162/45 147/172/45
f 204/160/44 205/159/44 99/173/44
f 99/174/43 205/157/43 206/158/43
f 203/156/41 204/155/41 95/175/41
f 201/154/38 202/154/38 87/176/38
f 202/154/37 203/154/37 91/176/37
f 79/173/1 200/79/1 201/79/1
f 199/79/35 200/79/35 79/173/35
f 66/176/31 197/86/31 199/154/31
f 155/177/47 208/152/47 196/153/47
f 207/149/45 208/149/45 155/179/45
f 195/141/49 196/85/49 183/150/49
f 194/104/49 195/141/49 181/150/49
f 193/85/46 194/104/46 170/150/46
f 168/150/44 192/98/44 193/85/44
f 167/165/42 191/85/42 192/98/42
f 190/91/40 191/91/40 167/164/40
f 189/91/39 190/91/39 166/163/39
f 163/164/36 187/91/36 188/91/36
f 164/150/1 188/85/1 189/85/1
f 185/85/34 187/89/34 163/165/34
f 171/140/33 197/86/33 186/88/33
f 172/138/32 198/83/32 185/85/32
f 109/168/48 324/168/48 323/138/48
f 200/79/1 199/79/1 209/79/1
f 212/137/50 224/137/50 223/137/50
f 210/180/94 209/180/94 214/180/94
f 218/181/52 229/235/52 236/182/52
f 216/137/53 230/137/53 229/137/53
f 220/137/53 234/137/53 231/137/53
f 214/137/1 217/137/1 232/137/1
f 219/137/1 211/137/1 223/137/1
f 221/137/53 236/137/53 235/137/53
f 233/79/95 225/79/95 223/79/95
f 224/79/60 231/79/60 234/79/60
f 226/79/96 229/79/96 230/79/96
f 227/184/97 228/184/97 232/184/97
f 233/79/98 234/79/98 229/79/98
f 226/79/99 232/79/99 225/79/99
f 229/79/60 234/79/60 235/79/60
f 216/137/61 213/137/61 227/137/61
f 217/137/1 219/137/1 225/137/1
f 222/137/62 235/137/62 234/137/62
f 215/137/62 231/137/62 224/137/62
f 214/154/63 228/154/63 227/154/63
f 200/137/100 210/137/100 213/137/100
f 213/137/101 216/137/101 214/137/101
f 216/137/68 218/137/68 217/137/68
f 214/137/102 216/137/102 217/137/102
f 218/137/68 221/137/68 222/137/68
f 220/137/68 215/137/68 211/137/68
f 215/137/18 212/137/18 211/137/18
f 218/137/68 222/137/68 220/137/68
f 200/137/103 213/137/103 214/137/103
f 218/137/68 220/137/68 219/137/68
f 219/137/68 217/137/68 218/137/68
f 220/137/68 211/137/68 219/137/68
f 214/137/1 209/137/1 199/137/1
f 238/81/7 240/81/7 239/82/7
f 241/82/7 242/81/7 244/81/7
f 72/185/18 317/185/18 318/77/18
f 254/186/53 268/236/53 267/187/53
f 258/189/53 272/237/53 269/169/53
f 259/137/53 274/137/53 273/137/53
f 271/180/95 263/180/95 261/180/95
f 262/180/60 269/180/60 272/180/60
f 264/180/96 267/180/96 268/180/96
f 265/180/104 266/180/104 270/180/104
f 271/180/98 272/180/98 267/180/98
f 264/180/99 270/180/99 263/180/99
f 267/180/60 272/180/60 273/180/60
f 260/137/62 273/137/62 272/137/62
f 307/79/7 300/79/7 340/79/7
f 246/191/105 248/238/105 251/239/105
f 251/239/106 254/240/106 252/192/106
f 254/240/68 256/241/68 255/242/68
f 256/241/68 259/243/68 260/244/68
f 258/245/68 253/246/68 249/247/68
f 253/246/18 250/248/18 249/247/18
f 256/241/68 260/244/68 258/245/68
f 254/240/68 255/242/68 252/192/68
f 256/241/68 258/245/68 257/249/68
f 255/242/68 256/241/68 257/249/68
f 249/247/68 257/249/68 258/245/68
f 246/191/107 251/239/107 252/192/107
f 252/192/1 247/250/1 245/190/1
f 276/81/7 278/81/7 277/82/7
f 279/82/7 280/81/7 282/81/7
f 269/79/7 262/79/7 334/79/7
f 292/193/53 306/251/53 305/194/53
f 296/137/53 310/137/53 307/137/53
f 298/137/68 297/137/68 316/137/68
f 309/79/95 301/79/95 299/79/95
f 300/79/60 307/79/60 310/79/60
f 302/79/96 305/79/96 306/79/96
f 303/79/104 304/79/104 308/79/104
f 309/79/108 310/79/108 305/79/108
f 302/79/99 308/79/99 301/79/99
f 305/79/60 310/79/60 311/79/60
f 298/137/62 311/137/62 310/137/62
f 198/83/48 328/83/48 322/80/48
f 284/197/105 286/252/105 289/253/105
f 289/253/106 292/254/106 290/198/106
f 292/254/68 294/255/68 293/256/68
f 294/255/68 297/257/68 298/258/68
f 296/259/68 291/260/68 287/261/68
f 291/260/18 288/262/18 287/261/18
f 294/255/68 298/258/68 296/259/68
f 292/254/68 293/256/68 290/198/68
f 294/255/68 296/259/68 295/263/68
f 293/256/68 294/255/68 295/263/68
f 287/261/68 295/263/68 296/259/68
f 284/197/107 289/253/107 290/198/107
f 290/198/1 285/264/1 283/196/1
f 316/137/53 315/137/53 313/137/53
f 298/137/69 314/137/69 313/137/69
f 311/79/60 313/79/60 315/79/60
f 312/137/70 315/137/70 316/137/70
f 320/199/52 321/203/52 322/80/52
f 317/185/52 325/200/52 319/136/52
f 325/200/52 326/201/52 324/168/52
f 326/201/52 327/202/52 323/138/52
f 327/202/52 320/199/52 328/83/52
f 330/137/50 334/137/50 333/137/50
f 332/137/62 331/137/62 334/137/62
f 336/137/50 340/137/50 339/137/50
f 338/137/62 337/137/62 340/137/62
f 300/79/7 299/79/7 339/79/7
f 110/136/48 319/136/48 324/168/48
f 71/77/48 318/77/48 319/136/48
f 249/137/71 329/137/71 333/137/71
f 287/137/71 335/137/71 339/137/71
f 186/199/71 320/199/71 327/202/71
f 70/203/71 321/203/71 320/199/71
f 111/200/71 325/200/71 317/185/71
f 70/203/7 69/80/7 322/80/7
f 112/201/71 326/201/71 325/200/71
f 253/171/18 332/170/18 330/204/18
f 291/137/18 338/137/18 336/137/18
f 250/205/18 330/204/18 329/206/18
f 288/137/18 336/137/18 335/137/18
f 162/202/71 327/202/71 326/201/71
f 345/2/1 347/231/1 343/1/1
f 359/5/72 343/1/72 347/208/72
f 358/8/73 347/7/73 345/12/73
f 348/10/74 370/10/74 372/9/74
f 349/11/75 341/3/75 343/1/75
f 345/12/76 341/3/76 349/11/76
f 368/14/18 353/16/18 342/13/18
f 367/17/18 352/23/18 353/16/18
f 367/17/18 366/19/18 351/18/18
f 365/20/18 350/21/18 351/18/18
f 364/6/18 349/11/18 350/21/18
f 342/13/8 353/16/8 363/22/8
f 352/23/9 362/24/9 363/22/9
f 351/18/10 361/25/10 362/24/10
f 350/21/11 360/26/11 361/25/11
f 349/11/12 359/5/12 360/26/12
f 354/27/78 368/14/78 346/15/78
f 355/29/79 367/17/79 368/14/79
f 356/30/15 366/19/15 367/17/15
f 357/31/16 365/20/16 366/19/16
f 358/8/17 364/6/17 365/20/17
f 344/9/7 363/22/7 354/32/7
f 363/22/7 362/24/7 355/33/7
f 361/25/7 356/34/7 355/33/7
f 360/26/7 357/209/7 356/34/7
f 360/26/7 359/5/7 358/4/7
f 369/35/109 371/13/109 372/9/109
f 346/15/81 369/15/81 370/28/81
f 344/9/82 372/9/82 371/13/82
f 346/15/83 342/13/83 371/13/83
f 374/211/62 376/230/62 375/212/62
f 382/214/18 380/227/18 379/215/18
f 377/217/7 387/217/7 388/218/7
f 384/219/7 374/265/7 373/220/7
f 379/215/84 377/217/84 383/222/84
f 376/224/1 374/266/1 384/225/1
f 382/226/85 384/225/85 378/218/85
f 381/223/86 383/222/86 373/228/86
f 377/217/7 378/218/7 384/219/7
f 376/230/18 382/214/18 381/216/18
f 385/227/87 388/218/87 387/217/87
f 379/215/88 386/215/88 387/217/88
f 378/218/89 388/218/89 385/227/89
f 379/215/18 380/227/18 385/227/18
