# Blender 4.5.4 LTS
# www.blender.org
mtllib priority_sign.mtl
o Cylinder
v 0.000000 1.161187 -0.011693
v 0.000000 -0.016093 -0.011693
v 0.002281 1.161187 -0.011468
v 0.002281 -0.016093 -0.011468
v 0.004475 1.161187 -0.010803
v 0.004475 -0.016093 -0.010803
v 0.006496 1.161187 -0.009722
v 0.006496 -0.016093 -0.009722
v 0.008268 1.161187 -0.008268
v 0.008268 -0.016093 -0.008268
v 0.009722 1.161187 -0.006496
v 0.009722 -0.016093 -0.006496
v 0.010803 1.161187 -0.004475
v 0.010803 -0.016093 -0.004475
v 0.011468 1.161187 -0.002281
v 0.011468 -0.016093 -0.002281
v 0.011693 1.161187 0.000000
v 0.011693 -0.016093 0.000000
v 0.011468 1.161187 0.002281
v 0.011468 -0.016093 0.002281
v 0.010803 1.161187 0.004475
v 0.010803 -0.016093 0.004475
v 0.009722 1.161187 0.006496
v 0.009722 -0.016093 0.006496
v 0.008268 1.161187 0.008268
v 0.008268 -0.016093 0.008268
v 0.006496 1.161187 0.009722
v 0.006496 -0.016093 0.009722
v 0.004475 1.161187 0.010803
v 0.004475 -0.016093 0.010803
v 0.002281 1.161187 0.011468
v 0.002281 -0.016093 0.011468
v 0.000000 1.161187 0.011693
v 0.000000 -0.016093 0.011693
v -0.002281 1.161187 0.011468
v -0.002281 -0.016093 0.011468
v -0.004475 1.161187 0.010803
v -0.004475 -0.016093 0.010803
v -0.006496 1.161187 0.009722
v -0.006496 -0.016093 0.009722
v -0.008268 1.161187 0.008268
v -0.008268 -0.016093 0.008268
v -0.009722 1.161187 0.006496
v -0.009722 -0.016093 0.006496
v -0.010803 1.161187 0.004475
v -0.010803 -0.016093 0.004475
v -0.011468 1.161187 0.002281
v -0.011468 -0.016093 0.002281
v -0.011693 1.161187 0.000000
v -0.011693 -0.016093 0.000000
v -0.011468 1.161187 -0.002281
v -0.011468 -0.016093 -0.002281
v -0.010803 1.161187 -0.004475
v -0.010803 -0.016093 -0.004475
v -0.009722 1.161187 -0.006496
v -0.009722 -0.016093 -0.006496
v -0.008268 1.161187 -0.008268
v -0.008268 -0.016093 -0.008268
v -0.006496 1.161187 -0.009722
v -0.006496 -0.016093 -0.009722
v -0.004475 1.161187 -0.010803
v -0.004475 -0.016093 -0.010803
v -0.002281 1.161187 -0.011468
v -0.002281 -0.016093 -0.011468
v 0.014401 0.864514 0.004222
v 0.014401 0.864514 -0.004222
v 0.008129 0.864514 -0.004222
v 0.008129 0.864514 0.004222
v 0.014401 1.033446 -0.173155
v 0.014401 1.041890 -0.173155
v 0.008129 1.041890 -0.173155
v 0.008129 1.033446 -0.173155
v 0.014401 1.041890 0.173155
v 0.014401 1.033446 0.173155
v 0.008129 1.033446 0.173155
v 0.008279 1.041890 0.173155
v 0.014401 1.210823 -0.004222
v 0.014401 1.210823 0.004222
v 0.008279 1.210823 0.004222
v 0.008129 1.210823 -0.004222
v 0.009182 1.119645 -0.026856
v 0.009182 1.111123 -0.026856
v 0.009182 1.119645 0.023911
v 0.009182 1.111123 0.023911
v 0.004655 1.119889 0.023443
v 0.004655 1.111368 0.023443
v 0.000364 1.120160 0.022020
v 0.000364 1.111639 0.022020
v -0.003537 1.120440 0.019696
v -0.003537 1.111919 0.019696
v -0.006921 1.120707 0.016561
v -0.006921 1.112185 0.016561
v -0.009685 1.120933 0.012732
v -0.009685 1.112411 0.012732
v -0.011758 1.121089 0.008356
v -0.011758 1.112568 0.008356
v -0.013102 1.121147 0.003599
v -0.013102 1.112626 0.003599
v -0.013589 1.121147 -0.001353
v -0.013589 1.112626 -0.001353
v -0.013102 1.121147 -0.006305
v -0.013102 1.112626 -0.006305
v -0.011758 1.121089 -0.011071
v -0.011758 1.112568 -0.011071
v -0.009685 1.120933 -0.015472
v -0.009685 1.112411 -0.015472
v -0.006921 1.120707 -0.019337
v -0.006921 1.112185 -0.019337
v -0.003537 1.120440 -0.022515
v -0.003537 1.111919 -0.022515
v 0.000364 1.120160 -0.024883
v 0.000364 1.111639 -0.024883
v 0.004655 1.119889 -0.026349
v 0.004655 1.111368 -0.026349
v 0.009239 1.119002 -0.065120
v 0.009239 1.110480 -0.065120
v 0.004287 1.110480 -0.064633
v 0.004287 1.119002 -0.064633
v 0.009239 1.110480 0.062073
v 0.009239 1.119002 0.062073
v 0.004287 1.119002 0.061585
v 0.004287 1.110480 0.061585
v 0.009182 0.974976 -0.026856
v 0.009182 0.966455 -0.026856
v 0.009182 0.974976 0.023911
v 0.009182 0.966455 0.023911
v 0.004655 0.975221 0.023443
v 0.004655 0.966699 0.023443
v 0.000364 0.975492 0.022020
v 0.000364 0.966971 0.022020
v -0.003537 0.975772 0.019696
v -0.003537 0.967251 0.019696
v -0.006921 0.976039 0.016561
v -0.006921 0.967517 0.016561
v -0.009685 0.976264 0.012732
v -0.009685 0.967743 0.012732
v -0.011758 0.976421 0.008356
v -0.011758 0.967900 0.008356
v -0.013102 0.976479 0.003599
v -0.013102 0.967958 0.003599
v -0.013589 0.976479 -0.001353
v -0.013589 0.967958 -0.001353
v -0.013102 0.976479 -0.006305
v -0.013102 0.967958 -0.006305
v -0.011758 0.976421 -0.011071
v -0.011758 0.967900 -0.011071
v -0.009685 0.976264 -0.015472
v -0.009685 0.967743 -0.015472
v -0.006921 0.976039 -0.019337
v -0.006921 0.967517 -0.019337
v -0.003537 0.975772 -0.022515
v -0.003537 0.967251 -0.022515
v 0.000364 0.975492 -0.024883
v 0.000364 0.966971 -0.024883
v 0.004655 0.975221 -0.026349
v 0.004655 0.966699 -0.026349
v 0.009239 0.974334 -0.065120
v 0.009239 0.965812 -0.065120
v 0.004287 0.965812 -0.064633
v 0.004287 0.974334 -0.064633
v 0.009239 0.965812 0.062073
v 0.009239 0.974334 0.062073
v 0.004287 0.974334 0.061585
v 0.004287 0.965812 0.061585
v 0.007836 0.971658 -0.059362
v 0.000350 0.973152 -0.059362
v 0.007836 0.968963 -0.059362
v 0.000350 0.967469 -0.059362
v 0.002500 0.968884 -0.059362
v 0.002500 0.971737 -0.059362
v 0.007836 0.970310 -0.060709
v 0.000350 0.970310 -0.062203
v 0.007836 0.970310 -0.058015
v 0.000350 0.970310 -0.056521
v 0.002500 0.970310 -0.057935
v 0.002500 0.970310 -0.060788
v 0.000350 0.970310 -0.059362
v 0.007836 0.970310 -0.059362
v 0.007836 0.968963 -0.060038
v 0.007836 0.969634 -0.060709
v 0.000350 0.968148 -0.062203
v 0.000350 0.967469 -0.061524
v 0.007836 0.970986 -0.060709
v 0.007836 0.971658 -0.060038
v 0.000350 0.973152 -0.061524
v 0.000350 0.972473 -0.062203
v 0.007836 0.969634 -0.058015
v 0.007836 0.968963 -0.058686
v 0.000350 0.967469 -0.057199
v 0.000350 0.968148 -0.056521
v 0.007836 0.971658 -0.058686
v 0.007836 0.970986 -0.058015
v 0.000350 0.972473 -0.056521
v 0.000350 0.973152 -0.057199
v 0.002500 0.969558 -0.060788
v 0.002500 0.968884 -0.060115
v 0.002500 0.971063 -0.060788
v 0.002500 0.971737 -0.060115
v 0.002500 0.971737 -0.058609
v 0.002500 0.971063 -0.057935
v 0.002500 0.969558 -0.057935
v 0.002500 0.968884 -0.058609
v 0.007836 0.971658 0.044165
v 0.000350 0.973152 0.044165
v 0.007836 0.968963 0.044165
v 0.000350 0.967469 0.044165
v 0.002500 0.968884 0.044165
v 0.002500 0.971737 0.044165
v 0.007836 0.970310 0.042818
v 0.000350 0.970310 0.041324
v 0.007836 0.970310 0.045512
v 0.000350 0.970310 0.047006
v 0.002500 0.970310 0.045592
v 0.002500 0.970310 0.042738
v 0.000350 0.970310 0.044165
v 0.007836 0.970310 0.044165
v 0.007836 0.968963 0.043489
v 0.007836 0.969634 0.042818
v 0.000350 0.968148 0.041324
v 0.000350 0.967469 0.042002
v 0.007836 0.970986 0.042818
v 0.007836 0.971658 0.043489
v 0.000350 0.973152 0.042002
v 0.000350 0.972473 0.041324
v 0.007836 0.969634 0.045512
v 0.007836 0.968963 0.044841
v 0.000350 0.967469 0.046327
v 0.000350 0.968148 0.047006
v 0.007836 0.971658 0.044841
v 0.007836 0.970986 0.045512
v 0.000350 0.972473 0.047006
v 0.000350 0.973152 0.046327
v 0.002500 0.969558 0.042738
v 0.002500 0.968884 0.043412
v 0.002500 0.971063 0.042738
v 0.002500 0.971737 0.043412
v 0.002500 0.971737 0.044918
v 0.002500 0.971063 0.045592
v 0.002500 0.969558 0.045592
v 0.002500 0.968884 0.044918
v 0.007836 1.116402 -0.049957
v 0.000350 1.117896 -0.049957
v 0.007836 1.113707 -0.049957
v 0.000350 1.112213 -0.049957
v 0.002500 1.113628 -0.049957
v 0.002500 1.116481 -0.049957
v 0.007836 1.115054 -0.051304
v 0.000350 1.115054 -0.052798
v 0.007836 1.115054 -0.048610
v 0.000350 1.115054 -0.047116
v 0.002500 1.115054 -0.048530
v 0.002500 1.115054 -0.051384
v 0.000350 1.115054 -0.049957
v 0.007836 1.115054 -0.049957
v 0.007836 1.113707 -0.050633
v 0.007836 1.114378 -0.051304
v 0.000350 1.112892 -0.052798
v 0.000350 1.112213 -0.052119
v 0.007836 1.115730 -0.051304
v 0.007836 1.116402 -0.050633
v 0.000350 1.117896 -0.052119
v 0.000350 1.117217 -0.052798
v 0.007836 1.114378 -0.048610
v 0.007836 1.113707 -0.049281
v 0.000350 1.112213 -0.047795
v 0.000350 1.112892 -0.047116
v 0.007836 1.116402 -0.049281
v 0.007836 1.115730 -0.048610
v 0.000350 1.117217 -0.047116
v 0.000350 1.117896 -0.047795
v 0.002500 1.114302 -0.051384
v 0.002500 1.113628 -0.050710
v 0.002500 1.115807 -0.051384
v 0.002500 1.116481 -0.050710
v 0.002500 1.116481 -0.049204
v 0.002500 1.115807 -0.048530
v 0.002500 1.114302 -0.048530
v 0.002500 1.113628 -0.049204
v 0.007836 1.116402 0.039898
v 0.000350 1.117896 0.039898
v 0.007836 1.113707 0.039898
v 0.000350 1.112213 0.039898
v 0.002500 1.113628 0.039898
v 0.002500 1.116481 0.039898
v 0.007836 1.115054 0.038551
v 0.000350 1.115054 0.037057
v 0.007836 1.115054 0.041245
v 0.000350 1.115054 0.042739
v 0.002500 1.115054 0.041325
v 0.002500 1.115054 0.038471
v 0.000350 1.115054 0.039898
v 0.007836 1.115054 0.039898
v 0.007836 1.113707 0.039222
v 0.007836 1.114378 0.038551
v 0.000350 1.112892 0.037057
v 0.000350 1.112213 0.037736
v 0.007836 1.115730 0.038551
v 0.007836 1.116402 0.039222
v 0.000350 1.117896 0.037736
v 0.000350 1.117217 0.037057
v 0.007836 1.114378 0.041245
v 0.007836 1.113707 0.040574
v 0.000350 1.112213 0.042061
v 0.000350 1.112892 0.042739
v 0.007836 1.116402 0.040574
v 0.007836 1.115730 0.041245
v 0.000350 1.117217 0.042739
v 0.000350 1.117896 0.042061
v 0.002500 1.114302 0.038471
v 0.002500 1.113628 0.039145
v 0.002500 1.115807 0.038471
v 0.002500 1.116481 0.039145
v 0.002500 1.116481 0.040651
v 0.002500 1.115807 0.041325
v 0.002500 1.114302 0.041325
v 0.002500 1.113628 0.040651
v 0.007836 0.616754 -0.060709
v 0.007836 0.615407 -0.060038
v 0.007836 0.616078 -0.060709
v 0.007836 0.616754 0.042818
v 0.007836 0.616754 0.045512
v 0.000350 0.616754 0.047006
v 0.002500 0.616754 0.045592
v 0.007836 0.617430 0.042818
v 0.007836 0.618101 0.043489
v 0.007836 0.616078 0.045512
v 0.007836 0.615407 0.044841
v 0.002500 0.617507 0.045592
v 0.002500 0.616001 0.045592
vn 0.0980 -0.0000 -0.9952
vn 0.2903 -0.0000 -0.9569
vn 0.4714 -0.0000 -0.8819
vn 0.6344 -0.0000 -0.7730
vn 0.7730 -0.0000 -0.6344
vn 0.8819 -0.0000 -0.4714
vn 0.9569 -0.0000 -0.2903
vn 0.9952 -0.0000 -0.0980
vn 0.9952 -0.0000 0.0980
vn 0.9569 -0.0000 0.2903
vn 0.8819 -0.0000 0.4714
vn 0.7730 -0.0000 0.6344
vn 0.6344 -0.0000 0.7730
vn 0.4714 -0.0000 0.8819
vn 0.2903 -0.0000 0.9569
vn 0.0980 -0.0000 0.9952
vn -0.0980 -0.0000 0.9952
vn -0.2903 -0.0000 0.9569
vn -0.4714 -0.0000 0.8819
vn -0.6344 -0.0000 0.7730
vn -0.7730 -0.0000 0.6344
vn -0.8819 -0.0000 0.4714
vn -0.9569 -0.0000 0.2903
vn -0.9952 -0.0000 0.0980
vn -0.9952 -0.0000 -0.0980
vn -0.9569 -0.0000 -0.2903
vn -0.8819 -0.0000 -0.4714
vn -0.7730 -0.0000 -0.6344
vn -0.6344 -0.0000 -0.7730
vn -0.4714 -0.0000 -0.8819
vn -0.0000 -1.0000 -0.0000
vn -0.2903 -0.0000 -0.9569
vn -0.0980 -0.0000 -0.9952
vn -0.0000 1.0000 -0.0000
vn -0.0000 -0.0000 1.0000
vn 0.9997 -0.0177 -0.0177
vn -0.0000 -0.0000 -1.0000
vn -1.0000 -0.0000 -0.0000
vn -0.0000 0.7071 0.7071
vn -0.0000 0.7071 -0.7071
vn 1.0000 -0.0000 -0.0000
vn -0.0000 -0.7071 0.7071
vn -0.0000 -0.7071 -0.7071
vn 0.0017 -0.9999 -0.0168
vn -0.3148 -0.0000 0.9492
vn -0.5117 -0.0000 0.8592
vn -0.6797 -0.0000 0.7335
vn -0.8108 -0.0000 0.5854
vn -0.9037 -0.0000 0.4282
vn -0.9624 -0.0000 0.2717
vn -0.9625 -0.0000 -0.2712
vn -0.9046 -0.0000 -0.4262
vn -0.8134 -0.0000 -0.5818
vn -0.6846 -0.0000 -0.7289
vn -0.5188 -0.0000 -0.8549
vn -0.3233 -0.0000 -0.9463
vn -0.0513 -0.9984 0.0236
vn -1.0000 -0.0000 0.0096
vn 1.0000 -0.0000 0.0015
vn -0.0016 0.9999 -0.0168
vn 1.0000 -0.0000 -0.0015
vn -1.0000 -0.0000 -0.0096
vn 0.0515 0.9984 0.0237
vn -0.5189 -0.0000 -0.8549
vn -1.0000 -0.0000 -0.0097
vn -0.6806 0.5181 0.5181
vn -0.0207 -0.7069 0.7070
vn -0.0207 -0.7069 -0.7070
vn -0.0207 0.7069 -0.7070
vn -0.0207 0.7069 0.7070
vn -0.6806 -0.5181 0.5181
vn -0.6806 -0.5181 -0.5180
vn -0.6806 0.5181 -0.5181
vn -0.0149 -0.0000 0.9999
vn -0.0149 0.9999 -0.0000
vn -0.5496 -0.0000 0.8354
vn -0.5496 0.8354 -0.0000
vn -0.0149 -0.9999 -0.0000
vn -0.5497 -0.0000 0.8354
vn -0.5496 -0.8354 -0.0000
vn -0.0149 -0.0000 -0.9999
vn -0.5497 -0.0000 -0.8354
vn -0.5496 -0.0000 -0.8354
vn -0.6805 0.5181 0.5181
vn -0.0207 -0.7070 0.7070
vn -0.0207 -0.7070 -0.7070
vn -0.0207 0.7070 -0.7070
vn -0.6806 -0.5180 0.5180
vn -0.6806 -0.5181 -0.5181
vn -0.0207 -0.7070 0.7069
vn -0.0207 -0.7070 -0.7069
vn -0.0207 0.7070 0.7069
vn -0.6805 -0.5181 0.5181
vn -0.6805 -0.5181 -0.5181
vn -0.0002 1.0000 -0.0000
vn -0.0004 1.0000 -0.0000
vn 0.0002 1.0000 -0.0000
vn 0.0004 1.0000 -0.0000
vn 0.0001 1.0000 -0.0000
vn -0.0001 1.0000 -0.0000
vn -0.0515 -0.9984 -0.0237
vn -0.5116 -0.0000 0.8592
vn 0.0017 -0.9999 0.0168
vn 0.0513 0.9984 -0.0236
vn -0.0017 0.9999 0.0168
vn 0.0016 -0.9999 0.0168
vn -0.6806 0.5180 0.5180
vn -0.5497 0.8354 -0.0000
vn -0.5497 -0.8354 -0.0000
vn -0.0207 0.7070 0.7070
vn -0.0207 0.7070 -0.7069
vn -0.6806 0.5180 -0.5181
vn -0.0150 0.9999 -0.0000
vt 0.958167 1.009843
vt 0.926917 0.509843
vt 0.958167 0.509843
vt 0.972099 0.765533
vt 0.968620 0.709859
vt 0.972099 0.709859
vt 0.968620 0.765533
vt 0.965140 0.709859
vt 0.965140 0.765533
vt 0.961661 0.709859
vt 0.961661 0.765533
vt 0.958181 0.709859
vt 0.843750 1.000000
vt 0.812500 0.500000
vt 0.843750 0.500000
vt 0.954701 0.765533
vt 0.951222 0.709859
vt 0.954701 0.709859
vt 0.951222 0.765533
vt 0.947742 0.709859
vt 0.947742 0.765533
vt 0.944263 0.709859
vt 0.944263 0.765533
vt 0.940783 0.709859
vt 0.940783 0.765533
vt 0.937303 0.709859
vt 0.937303 0.765533
vt 0.933824 0.709859
vt 0.933824 0.765533
vt 0.930344 0.709859
vt 0.930344 0.765533
vt 0.926864 0.709859
vt 0.926864 0.765533
vt 0.923385 0.709859
vt 0.923385 0.765533
vt 0.919905 0.709859
vt 0.967177 0.777573
vt 0.966793 0.771421
vt 0.967177 0.771421
vt 0.973058 0.785997
vt 0.972471 0.776593
vt 0.973058 0.776593
vt 0.972471 0.785997
vt 0.971883 0.776593
vt 0.971883 0.785997
vt 0.971295 0.776593
vt 0.971295 0.785997
vt 0.970707 0.776593
vt 0.970707 0.785997
vt 0.970120 0.776593
vt 0.970120 0.785997
vt 0.969532 0.776593
vt 0.969532 0.785997
vt 0.968944 0.776593
vt 0.968944 0.785997
vt 0.968356 0.776593
vt 0.968356 0.785997
vt 0.967769 0.776593
vt 0.967769 0.785997
vt 0.967181 0.776593
vt 0.967181 0.785997
vt 0.966593 0.776593
vt 0.966593 0.785997
vt 0.966006 0.776593
vt 0.966006 0.785997
vt 0.965418 0.776593
vt 0.897292 0.592874
vt 0.970185 0.623067
vt 0.939992 0.695959
vt 0.965418 0.785997
vt 0.964830 0.776593
vt 0.898664 0.841767
vt 0.893345 0.756664
vt 0.898664 0.756664
vt 0.915389 0.616978
vt 0.856769 0.656147
vt 0.895938 0.714766
vt 0.625000 0.000000
vt 0.375000 0.005950
vt 0.375000 0.000000
vt 0.022343 0.526311
vt 0.071419 0.523975
vt 0.071419 0.526311
vt 0.070251 0.575387
vt 0.021755 0.573639
vt 0.072010 0.573641
vt 0.923550 0.861125
vt 0.920261 0.770434
vt 0.923550 0.767170
vt 0.021755 0.623875
vt 0.070251 0.622127
vt 0.072010 0.623872
vt 0.038903 0.990401
vt 0.016876 0.970124
vt 0.822205 0.226152
vt 0.071419 0.477235
vt 0.022343 0.523975
vt 0.022343 0.477235
vt 0.022343 0.671203
vt 0.884001 0.926205
vt 0.875607 0.925604
vt 0.908957 0.577800
vt 0.022343 0.622127
vt 0.022343 0.575387
vt 0.000000 0.000000
vt 0.887512 0.663865
vt 0.932812 0.680442
vt 0.886656 0.666750
vt 0.931956 0.683327
vt 0.885800 0.669635
vt 0.931100 0.686212
vt 0.884945 0.672519
vt 0.930245 0.689097
vt 0.884089 0.675404
vt 0.929389 0.691981
vt 0.883233 0.678289
vt 0.928533 0.694866
vt 0.882377 0.681173
vt 0.881522 0.684058
vt 0.927677 0.697751
vt 0.880666 0.686943
vt 0.926821 0.700635
vt 0.879810 0.689828
vt 0.925966 0.703520
vt 0.878954 0.692712
vt 0.925110 0.706405
vt 0.878098 0.695597
vt 0.924254 0.709290
vt 0.877243 0.698482
vt 0.923398 0.712174
vt 0.876387 0.701367
vt 0.922542 0.715059
vt 0.875531 0.704251
vt 0.031250 1.000000
vt 0.000000 0.500000
vt 0.031250 0.500000
vt 0.921687 0.717944
vt 0.910483 0.887003
vt 0.890951 0.770851
vt 0.898059 0.770851
vt 0.933668 0.677558
vt 0.917326 0.748232
vt 0.913873 0.803481
vt 0.913873 0.748232
vt 0.910420 0.803481
vt 0.910420 0.748232
vt 0.906967 0.803481
vt 0.906967 0.748232
vt 0.903514 0.803481
vt 0.903514 0.748232
vt 0.900061 0.803481
vt 0.900061 0.748232
vt 0.896608 0.803481
vt 0.896608 0.748232
vt 0.893155 0.748232
vt 0.893155 0.803481
vt 0.889702 0.748232
vt 0.889702 0.803481
vt 0.886249 0.748232
vt 0.886249 0.803481
vt 0.882796 0.748232
vt 0.882796 0.803481
vt 0.879342 0.748232
vt 0.879342 0.803481
vt 0.875889 0.748232
vt 0.875889 0.803481
vt 0.872436 0.748232
vt 0.872436 0.803481
vt 0.868983 0.748232
vt 0.941740 0.958167
vt 0.876039 0.635343
vt 0.907289 0.635343
vt 0.868983 0.803481
vt 0.905605 0.897617
vt 0.935882 0.762311
vt 0.940964 0.762311
vt 0.917326 0.803481
vt 0.938645 0.623204
vt 0.919125 0.644692
vt 0.918672 0.623204
vt 0.919125 0.735669
vt 0.859774 0.768465
vt 0.919125 0.692693
vt 0.850323 0.704035
vt 0.919125 0.783671
vt 0.919125 0.826647
vt 0.930905 0.813168
vt 0.850323 0.759511
vt 0.930905 0.760941
vt 0.859774 0.643025
vt 0.859774 0.580745
vt 0.943795 0.725050
vt 0.943795 0.703313
vt 0.950758 0.801253
vt 0.943795 0.816028
vt 0.969348 0.791801
vt 0.960886 0.773846
vt 0.919125 0.668692
vt 0.859774 0.705745
vt 0.930905 0.842336
vt 0.850323 0.870074
vt 0.850323 0.842336
vt 0.900306 0.782640
vt 0.900306 0.802969
vt 0.890105 0.802969
vt 0.943795 0.668692
vt 0.960886 0.842336
vt 0.930905 0.871504
vt 0.962215 0.762044
vt 0.962215 0.772556
vt 0.958915 0.775856
vt 0.920635 0.731781
vt 0.919125 0.759670
vt 0.920635 0.741981
vt 0.890105 0.762311
vt 0.879976 0.782640
vt 0.958915 0.748232
vt 0.948403 0.762044
vt 0.943795 0.759670
vt 0.841188 0.805462
vt 0.850323 0.731773
vt 0.930905 0.731773
vt 0.948403 0.775856
vt 0.936705 0.777042
vt 0.960886 0.731773
vt 0.917275 0.755541
vt 0.936705 0.747046
vt 0.934591 0.762044
vt 0.916958 0.641185
vt 0.906906 0.652249
vt 0.906673 0.641185
vt 0.906906 0.699097
vt 0.872762 0.676361
vt 0.906906 0.676967
vt 0.861434 0.687490
vt 0.911072 0.757420
vt 0.951548 0.685891
vt 0.932562 0.813308
vt 0.861434 0.749529
vt 0.951548 0.751128
vt 0.872762 0.652855
vt 0.872762 0.641185
vt 0.919610 0.693629
vt 0.919610 0.682435
vt 0.930844 0.768409
vt 0.926491 0.777644
vt 0.966110 0.794662
vt 0.958725 0.778993
vt 0.906906 0.664608
vt 0.872762 0.664608
vt 0.932562 0.838761
vt 0.862241 0.862967
vt 0.862241 0.838761
vt 0.938877 0.782490
vt 0.938877 0.848148
vt 0.905933 0.848148
vt 0.919610 0.664608
vt 0.958725 0.838761
vt 0.932562 0.864215
vt 0.910176 0.629787
vt 0.918958 0.632392
vt 0.920897 0.635967
vt 0.872762 0.699703
vt 0.911072 0.742418
vt 0.869626 0.742418
vt 0.905933 0.716833
vt 0.873220 0.782490
vt 0.897819 0.629121
vt 0.906753 0.641326
vt 0.926491 0.742418
vt 0.854269 0.806583
vt 0.861434 0.718510
vt 0.951548 0.718510
vt 0.918292 0.644749
vt 0.916384 0.654815
vt 0.985076 0.718510
vt 0.864927 0.761383
vt 0.891324 0.647381
vt 0.903330 0.652865
vt 0.375000 0.625000
vt 0.375000 0.687720
vt 0.354343 0.791623
vt 0.625000 0.625000
vt 0.557209 0.690953
vt 0.557209 0.625000
vt 0.557209 0.559047
vt 0.975579 0.765533
vt 0.958181 0.765533
vt 0.919905 0.765533
vt 0.966793 0.777573
vt 0.341844 0.471731
vt 0.296822 0.485388
vt 0.250000 0.490000
vt 0.203178 0.485388
vt 0.907758 0.699134
vt 0.897292 0.695959
vt 0.887647 0.690804
vt 0.879193 0.683865
vt 0.872994 0.832737
vt 0.867441 0.825971
vt 0.863314 0.818251
vt 0.860773 0.809874
vt 0.859915 0.801163
vt 0.860773 0.792451
vt 0.863924 0.633532
vt 0.867099 0.623067
vt 0.867099 0.665766
vt 0.863314 0.784075
vt 0.867441 0.776355
vt 0.872994 0.769588
vt 0.080294 0.080294
vt 0.116663 0.050447
vt 0.158156 0.028269
vt 0.907758 0.589699
vt 0.939992 0.592874
vt 0.918642 0.588627
vt 0.904568 0.756510
vt 0.913280 0.757368
vt 0.921656 0.759909
vt 0.949637 0.598029
vt 0.958091 0.604967
vt 0.419706 0.080294
vt 0.449553 0.116663
vt 0.471731 0.158156
vt 0.973359 0.633532
vt 0.970185 0.665766
vt 0.974431 0.644416
vt 0.949221 0.801163
vt 0.948363 0.809874
vt 0.945822 0.818251
vt 0.941696 0.825971
vt 0.936143 0.832737
vt 0.929376 0.838290
vt 0.921656 0.842417
vt 0.879193 0.604967
vt 0.958091 0.683865
vt 0.964830 0.785997
vt 0.893345 0.841767
vt 0.905663 0.715724
vt 0.915389 0.714766
vt 0.924741 0.711930
vt 0.933360 0.707323
vt 0.940914 0.701123
vt 0.947114 0.693569
vt 0.949553 0.383337
vt 0.971731 0.341844
vt 0.985388 0.296822
vt 0.990000 0.250000
vt 0.985388 0.203178
vt 0.971731 0.158156
vt 0.949553 0.116663
vt 0.947114 0.638176
vt 0.940914 0.630622
vt 0.933360 0.624422
vt 0.924741 0.619815
vt 0.905663 0.616020
vt 0.895938 0.616978
vt 0.886586 0.619815
vt 0.877967 0.624422
vt 0.870413 0.630622
vt 0.864213 0.638176
vt 0.859606 0.646795
vt 0.855811 0.665872
vt 0.856769 0.675598
vt 0.859606 0.684950
vt 0.864213 0.693569
vt 0.870413 0.701123
vt 0.877967 0.707323
vt 0.886586 0.711930
vt 0.954557 0.675598
vt 0.954557 0.656147
vt 0.625000 0.005950
vt 0.935050 0.838038
vt 0.926091 0.829147
vt 0.926091 0.591047
vt 0.036639 0.745600
vt 0.036639 0.507501
vt 0.042589 0.501550
vt 0.037081 0.213076
vt 0.785388 0.202701
vt 0.815811 0.217918
vt 0.818432 0.950901
vt 0.809382 0.978618
vt 0.814823 0.986849
vt 0.071419 0.671203
vt 0.967671 0.785064
vt 0.967671 0.777916
vt 0.974405 0.784982
vt 0.963593 0.775741
vt 0.970326 0.775823
vt 0.970492 0.782641
vt 0.964005 0.756118
vt 0.964662 0.756775
vt 0.964662 0.783084
vt 0.000000 1.000000
vt 0.898423 0.887003
vt 0.910490 0.958167
vt 0.891784 0.897617
vt 0.943795 0.634072
vt 0.879976 0.792840
vt 0.960886 0.884409
vt 0.879976 0.772440
vt 0.900306 0.762311
vt 0.948403 0.748232
vt 0.962215 0.751532
vt 0.934591 0.751532
vt 0.881585 0.645154
vt 0.936418 0.644182
vt 0.936418 0.664029
vt 0.934591 0.772556
vt 0.936418 0.683876
vt 0.875369 0.689120
vt 0.919610 0.646781
vt 0.873220 0.815434
vt 0.958725 0.875477
vt 0.873220 0.749546
vt 0.938877 0.716833
vt 0.895214 0.637903
vt 0.901394 0.627182
vt 0.912112 0.655470
vt 0.920613 0.797576
vt 0.932931 0.790730
vt 0.930220 0.806923
vt 0.894548 0.650259
vt 0.874798 0.563984
vt 0.884534 0.558703
vt 0.908451 0.565798
vt 0.125000 0.687720
vt 0.125000 0.625000
vt 0.187280 0.750000
vt 0.125000 0.562280
vt 0.187280 0.500000
s 0
usemtl Material.001
f 2/1/1 1/3/1 3/2/1
f 4/4/2 3/6/2 5/5/2
f 6/7/3 5/5/3 7/8/3
f 8/9/4 7/8/4 9/10/4
f 10/11/5 9/10/5 11/12/5
f 12/13/6 11/15/6 13/14/6
f 14/16/7 13/18/7 15/17/7
f 16/19/8 15/17/8 17/20/8
f 18/21/9 17/20/9 19/22/9
f 20/23/10 19/22/10 21/24/10
f 22/25/11 21/24/11 23/26/11
f 24/27/12 23/26/12 25/28/12
f 26/29/13 25/28/13 27/30/13
f 28/31/14 27/30/14 29/32/14
f 30/33/15 29/32/15 31/34/15
f 32/35/16 31/34/16 33/36/16
f 34/37/17 33/39/17 35/38/17
f 36/40/18 35/42/18 37/41/18
f 38/43/19 37/41/19 39/44/19
f 40/45/20 39/44/20 41/46/20
f 42/47/21 41/46/21 43/48/21
f 44/49/22 43/48/22 45/50/22
f 46/51/23 45/50/23 47/52/23
f 48/53/24 47/52/24 49/54/24
f 50/55/25 49/54/25 51/56/25
f 52/57/26 51/56/26 53/58/26
f 54/59/27 53/58/27 55/60/27
f 56/61/28 55/60/28 57/62/28
f 58/63/29 57/62/29 59/64/29
f 60/65/30 59/64/30 61/66/30
f 38/67/31 6/69/31 22/68/31
f 62/70/32 61/66/32 63/71/32
f 64/72/33 63/74/33 1/73/33
f 31/75/34 63/77/34 47/76/34
f 68/78/34 65/80/34 66/79/34
f 70/81/35 71/83/35 72/82/35
f 79/84/31 80/86/31 77/85/31
f 75/87/36 80/89/36 79/88/36
f 74/90/37 75/92/37 76/91/37
f 65/93/38 78/95/38 66/94/38
f 67/96/39 66/98/39 69/97/39
f 75/92/40 74/90/40 65/99/40
f 67/100/41 80/102/41 68/101/41
f 71/83/42 70/81/42 77/85/42
f 79/84/43 78/104/43 73/103/43
f 84/105/44 119/105/44 122/105/44
f 85/106/45 87/108/45 88/107/45
f 87/108/46 89/110/46 90/109/46
f 89/110/47 91/112/47 92/111/47
f 91/112/48 93/114/48 94/113/48
f 93/114/49 95/116/49 96/115/49
f 95/116/50 97/118/50 98/117/50
f 98/117/24 97/118/24 99/119/24
f 100/120/25 99/119/25 101/121/25
f 102/122/51 101/121/51 103/123/51
f 104/124/52 103/123/52 105/125/52
f 106/126/53 105/125/53 107/127/53
f 108/128/54 107/127/54 109/129/54
f 110/130/55 109/129/55 111/131/55
f 112/132/56 111/131/56 113/133/56
f 82/105/57 114/105/57 117/105/57
f 117/134/33 118/136/33 115/135/33
f 114/137/58 113/133/58 118/133/58
f 82/105/59 116/105/59 115/105/59
f 81/105/60 115/105/60 118/105/60
f 119/138/17 120/140/17 121/139/17
f 84/105/61 83/105/61 120/105/61
f 86/141/62 122/141/62 121/106/62
f 83/105/63 85/105/63 121/105/63
f 126/105/44 161/105/44 164/105/44
f 127/142/45 129/144/45 130/143/45
f 129/144/46 131/146/46 132/145/46
f 131/146/47 133/148/47 134/147/47
f 133/148/48 135/150/48 136/149/48
f 135/150/49 137/152/49 138/151/49
f 137/152/50 139/154/50 140/153/50
f 140/153/24 139/154/24 141/155/24
f 142/156/25 141/155/25 143/157/25
f 144/158/51 143/157/51 145/159/51
f 146/160/52 145/159/52 147/161/52
f 148/162/53 147/161/53 149/163/53
f 150/164/54 149/163/54 151/165/54
f 152/166/64 151/165/64 153/167/64
f 154/168/56 153/167/56 155/169/56
f 124/105/57 156/105/57 159/105/57
f 159/170/33 160/172/33 157/171/33
f 156/173/58 155/169/58 160/169/58
f 124/105/59 158/105/59 157/105/59
f 123/105/60 157/105/60 160/105/60
f 161/174/17 162/176/17 163/175/17
f 126/105/61 125/105/61 162/105/61
f 128/177/65 164/177/65 163/142/65
f 125/105/63 127/105/63 163/105/63
f 182/178/66 196/180/66 195/179/66
f 198/181/67 197/183/67 183/182/67
f 192/184/68 200/186/68 199/185/68
f 202/187/69 201/189/69 187/188/69
f 196/180/70 179/191/70 180/190/70
f 185/192/71 186/193/71 197/183/71
f 200/186/72 193/195/72 194/194/72
f 189/196/73 190/197/73 201/189/73
f 180/190/74 171/199/74 176/198/74
f 169/200/75 167/202/75 179/201/75
f 178/203/38 179/205/38 167/204/38
f 195/179/76 176/198/76 172/206/76
f 168/207/77 169/200/77 196/208/77
f 172/209/41 182/211/41 181/210/41
f 184/212/78 165/214/78 170/213/78
f 184/215/38 171/216/38 178/203/38
f 176/198/74 171/199/74 183/182/74
f 185/217/41 177/218/41 172/209/41
f 172/206/79 176/198/79 197/183/79
f 198/181/80 170/213/80 166/219/80
f 188/220/75 167/202/75 169/200/75
f 173/221/38 188/220/38 187/188/38
f 175/222/81 173/221/81 187/188/81
f 177/218/41 189/224/41 168/223/41
f 174/225/82 175/222/82 201/189/82
f 202/187/77 169/200/77 168/207/77
f 192/184/81 173/221/81 175/222/81
f 191/226/38 178/203/38 173/221/38
f 170/213/78 165/214/78 191/226/78
f 194/227/41 174/228/41 177/218/41
f 166/219/80 170/213/80 199/185/80
f 200/186/83 175/222/83 174/225/83
f 220/178/84 234/180/84 233/179/84
f 236/181/85 235/183/85 221/182/85
f 230/184/86 238/186/86 237/185/86
f 240/187/87 239/189/87 225/188/87
f 234/180/70 217/191/70 218/190/70
f 223/192/88 224/193/88 235/183/88
f 238/186/89 231/195/89 232/194/89
f 227/196/73 228/197/73 239/189/73
f 218/190/74 209/199/74 214/198/74
f 207/200/75 205/202/75 217/201/75
f 216/203/38 217/205/38 205/204/38
f 233/179/79 214/198/79 210/206/79
f 206/207/77 207/200/77 234/208/77
f 210/209/41 220/211/41 219/210/41
f 222/212/78 203/214/78 208/213/78
f 222/215/38 209/216/38 216/203/38
f 214/198/74 209/199/74 221/182/74
f 223/217/41 215/218/41 210/209/41
f 210/206/76 214/198/76 235/183/76
f 236/181/80 208/213/80 204/219/80
f 226/220/75 205/202/75 207/200/75
f 211/221/38 226/220/38 225/188/38
f 213/222/81 211/221/81 225/188/81
f 215/218/41 227/224/41 206/223/41
f 212/225/83 213/222/83 239/189/83
f 240/187/77 207/200/77 206/207/77
f 230/184/81 211/221/81 213/222/81
f 229/226/38 216/203/38 211/221/38
f 208/213/78 203/214/78 229/226/78
f 232/227/41 212/228/41 215/218/41
f 204/219/80 208/213/80 237/185/80
f 238/186/82 213/222/82 212/225/82
f 258/229/66 272/231/66 271/230/66
f 274/232/90 273/234/90 259/233/90
f 268/235/91 276/237/91 275/236/91
f 278/238/69 277/240/69 263/239/69
f 272/231/92 255/242/92 256/241/92
f 261/243/93 262/244/93 273/234/93
f 276/237/89 269/246/89 270/245/89
f 265/247/73 266/248/73 277/240/73
f 256/241/74 247/250/74 252/249/74
f 245/251/75 243/253/75 255/252/75
f 254/254/38 255/256/38 243/255/38
f 271/230/79 252/249/79 248/257/79
f 244/258/77 245/251/77 272/259/77
f 248/260/41 258/262/41 257/261/41
f 260/263/78 241/265/78 246/264/78
f 260/266/38 247/267/38 254/254/38
f 252/249/74 247/250/74 259/233/74
f 261/268/41 253/269/41 248/260/41
f 248/257/79 252/249/79 273/234/79
f 274/232/80 246/264/80 242/270/80
f 264/271/75 243/253/75 245/251/75
f 249/272/38 264/271/38 263/239/38
f 251/273/81 249/272/81 263/239/81
f 253/269/41 265/275/41 244/274/41
f 250/276/83 251/273/83 277/240/83
f 278/238/77 245/251/77 244/258/77
f 268/235/81 249/272/81 251/273/81
f 267/277/38 254/254/38 249/272/38
f 246/264/78 241/265/78 267/277/78
f 270/278/41 250/279/41 253/269/41
f 242/270/80 246/264/80 275/236/80
f 276/237/82 251/273/82 250/276/82
f 296/229/66 310/231/66 309/230/66
f 312/232/90 311/234/90 297/233/90
f 306/235/91 314/237/91 313/236/91
f 316/238/69 315/240/69 301/239/69
f 310/231/92 293/242/92 294/241/92
f 299/243/71 300/244/71 311/234/71
f 314/237/94 307/246/94 308/245/94
f 303/247/73 304/248/73 315/240/73
f 294/241/74 285/250/74 290/249/74
f 283/251/75 281/253/75 293/252/75
f 292/254/38 293/256/38 281/255/38
f 309/230/79 290/249/79 286/257/79
f 282/258/77 283/251/77 310/259/77
f 286/260/41 296/262/41 295/261/41
f 298/263/78 279/265/78 284/264/78
f 298/266/38 285/267/38 292/254/38
f 290/249/74 285/250/74 297/233/74
f 299/268/41 291/269/41 286/260/41
f 286/257/76 290/249/76 311/234/76
f 312/232/80 284/264/80 280/270/80
f 302/271/75 281/253/75 283/251/75
f 287/272/38 302/271/38 301/239/38
f 289/273/81 287/272/81 301/239/81
f 291/269/41 303/275/41 282/274/41
f 288/276/82 289/273/82 315/240/82
f 316/238/77 283/251/77 282/258/77
f 306/235/81 287/272/81 289/273/81
f 305/277/38 292/254/38 287/272/38
f 284/264/78 279/265/78 305/277/78
f 308/278/41 288/279/41 291/269/41
f 280/270/80 284/264/80 313/236/80
f 314/237/82 289/273/82 288/276/82
f 321/280/38 327/282/38 326/281/38
f 322/283/82 323/285/82 329/284/82
f 328/286/83 323/285/83 322/283/83
f 2/287/1 3/6/1 4/4/1
f 4/4/2 5/5/2 6/7/2
f 6/7/3 7/8/3 8/9/3
f 8/9/4 9/10/4 10/11/4
f 10/11/5 11/12/5 12/288/5
f 12/288/6 13/18/6 14/16/6
f 14/16/7 15/17/7 16/19/7
f 16/19/8 17/20/8 18/21/8
f 18/21/9 19/22/9 20/23/9
f 20/23/10 21/24/10 22/25/10
f 22/25/11 23/26/11 24/27/11
f 24/27/12 25/28/12 26/29/12
f 26/29/13 27/30/13 28/31/13
f 28/31/14 29/32/14 30/33/14
f 30/33/15 31/34/15 32/35/15
f 32/35/16 33/36/16 34/289/16
f 34/37/17 35/38/17 36/290/17
f 36/40/18 37/41/18 38/43/18
f 38/43/19 39/44/19 40/45/19
f 40/45/20 41/46/20 42/47/20
f 42/47/21 43/48/21 44/49/21
f 44/49/22 45/50/22 46/51/22
f 46/51/23 47/52/23 48/53/23
f 48/53/24 49/54/24 50/55/24
f 50/55/25 51/56/25 52/57/25
f 52/57/26 53/58/26 54/59/26
f 54/59/27 55/60/27 56/61/27
f 56/61/28 57/62/28 58/63/28
f 58/63/29 59/64/29 60/65/29
f 60/65/30 61/66/30 62/70/30
f 6/291/31 2/293/31 4/292/31
f 2/293/31 6/291/31 64/294/31
f 64/295/31 6/69/31 62/296/31
f 62/296/31 58/298/31 60/297/31
f 58/299/31 54/301/31 56/300/31
f 54/301/31 50/303/31 52/302/31
f 50/303/31 54/301/31 48/304/31
f 48/305/31 54/307/31 46/306/31
f 46/308/31 42/310/31 44/309/31
f 42/311/31 38/313/31 40/312/31
f 38/67/31 30/315/31 36/314/31
f 36/314/31 30/315/31 34/316/31
f 34/317/31 30/319/31 32/318/31
f 30/315/31 26/321/31 28/320/31
f 26/322/31 22/324/31 24/323/31
f 22/68/31 14/326/31 20/325/31
f 20/325/31 14/326/31 18/327/31
f 18/328/31 14/330/31 16/329/31
f 14/330/31 10/332/31 12/331/31
f 10/332/31 6/334/31 8/333/31
f 62/296/31 6/69/31 58/298/31
f 58/298/31 6/69/31 54/307/31
f 46/306/31 54/307/31 42/335/31
f 42/335/31 54/307/31 38/67/31
f 30/315/31 38/67/31 26/321/31
f 26/321/31 38/67/31 22/68/31
f 14/326/31 22/68/31 10/336/31
f 10/336/31 22/68/31 6/69/31
f 6/69/31 38/67/31 54/307/31
f 62/70/32 63/71/32 64/337/32
f 64/72/33 1/73/33 2/338/33
f 63/77/34 3/340/34 1/339/34
f 3/340/95 7/342/95 5/341/95
f 7/342/34 11/344/34 9/343/34
f 11/345/96 15/347/96 13/346/96
f 15/347/34 19/349/34 17/348/34
f 19/349/96 23/351/96 21/350/96
f 23/352/95 27/354/95 25/353/95
f 27/354/95 31/75/95 29/355/95
f 31/75/34 35/357/34 33/356/34
f 35/357/97 39/359/97 37/358/97
f 39/359/34 43/361/34 41/360/34
f 43/361/98 47/76/98 45/362/98
f 47/76/34 51/364/34 49/363/34
f 51/364/98 55/366/98 53/365/98
f 55/366/97 59/368/97 57/367/97
f 59/368/97 63/77/97 61/369/97
f 63/77/34 15/370/34 3/340/34
f 3/340/99 15/370/99 7/342/99
f 7/342/100 15/370/100 11/344/100
f 15/370/100 31/75/100 19/371/100
f 19/371/99 31/75/99 23/352/99
f 23/352/99 31/75/99 27/354/99
f 31/75/34 47/76/34 35/357/34
f 35/357/100 47/76/100 39/359/100
f 39/359/99 47/76/99 43/361/99
f 47/76/99 63/77/99 51/364/99
f 51/364/100 63/77/100 55/366/100
f 55/366/100 63/77/100 59/368/100
f 63/77/34 31/75/34 15/370/34
f 68/78/34 66/79/34 67/372/34
f 70/81/35 72/82/35 69/97/35
f 79/84/31 77/85/31 78/104/31
f 75/373/36 79/375/36 76/374/36
f 74/90/37 76/91/37 73/103/37
f 66/376/38 70/378/38 69/377/38
f 70/379/38 66/94/38 77/380/38
f 77/380/38 66/94/38 78/95/38
f 78/381/38 74/383/38 73/382/38
f 74/384/38 78/95/38 65/93/38
f 67/96/39 69/97/39 72/82/39
f 75/92/40 65/99/40 68/385/40
f 75/386/41 68/388/41 80/387/41
f 80/389/41 67/391/41 71/390/41
f 71/392/41 67/394/41 72/393/41
f 71/83/42 77/85/42 80/86/42
f 79/84/43 73/103/43 76/91/43
f 84/105/101 122/105/101 86/105/101
f 85/106/45 88/107/45 86/141/45
f 87/108/102 90/109/102 88/107/102
f 89/110/47 92/111/47 90/109/47
f 91/112/48 94/113/48 92/111/48
f 93/114/49 96/115/49 94/113/49
f 95/116/50 98/117/50 96/115/50
f 98/117/24 99/119/24 100/120/24
f 100/120/25 101/121/25 102/122/25
f 102/122/51 103/123/51 104/124/51
f 104/124/52 105/125/52 106/126/52
f 106/126/53 107/127/53 108/128/53
f 108/128/54 109/129/54 110/130/54
f 110/130/64 111/131/64 112/132/64
f 112/132/56 113/133/56 114/137/56
f 82/105/103 117/105/103 116/105/103
f 117/134/33 115/135/33 116/395/33
f 114/137/58 118/133/58 117/137/58
f 82/105/59 115/105/59 81/105/59
f 81/105/104 118/105/104 113/105/104
f 119/138/17 121/139/17 122/396/17
f 84/105/61 120/105/61 119/105/61
f 86/141/62 121/106/62 85/106/62
f 83/105/105 121/105/105 120/105/105
f 126/105/101 164/105/101 128/105/101
f 127/142/45 130/143/45 128/177/45
f 129/144/102 132/145/102 130/143/102
f 131/146/47 134/147/47 132/145/47
f 133/148/48 136/149/48 134/147/48
f 135/150/49 138/151/49 136/149/49
f 137/152/50 140/153/50 138/151/50
f 140/153/24 141/155/24 142/156/24
f 142/156/25 143/157/25 144/158/25
f 144/158/51 145/159/51 146/160/51
f 146/160/52 147/161/52 148/162/52
f 148/162/53 149/163/53 150/164/53
f 150/164/54 151/165/54 152/166/54
f 152/166/55 153/167/55 154/168/55
f 154/168/56 155/169/56 156/173/56
f 124/105/106 159/105/106 158/105/106
f 159/170/33 157/171/33 158/397/33
f 156/173/58 160/169/58 159/173/58
f 124/105/59 157/105/59 123/105/59
f 123/105/104 160/105/104 155/105/104
f 161/174/17 163/175/17 164/398/17
f 126/105/61 162/105/61 161/105/61
f 128/177/62 163/142/62 127/142/62
f 125/105/105 163/105/105 162/105/105
f 182/178/107 195/179/107 181/399/107
f 198/181/67 183/182/67 184/212/67
f 192/184/68 199/185/68 191/226/68
f 202/187/69 187/188/69 188/220/69
f 196/180/70 180/190/70 195/179/70
f 185/192/93 197/183/93 198/181/93
f 200/186/89 194/194/89 199/185/89
f 189/196/73 201/189/73 202/187/73
f 180/190/74 176/198/74 195/179/74
f 169/200/75 179/201/75 196/208/75
f 180/400/38 179/205/38 171/216/38
f 171/216/38 179/205/38 178/203/38
f 195/179/76 172/206/76 181/399/76
f 168/207/108 196/208/108 182/401/108
f 168/223/41 182/211/41 177/218/41
f 177/218/41 182/211/41 172/209/41
f 184/212/78 170/213/78 198/181/78
f 171/216/38 184/215/38 183/402/38
f 184/215/38 178/203/38 165/403/38
f 176/198/74 183/182/74 197/183/74
f 177/218/41 185/217/41 166/404/41
f 185/217/41 172/209/41 186/405/41
f 172/206/76 197/183/76 186/193/76
f 198/181/109 166/219/109 185/192/109
f 188/220/75 169/200/75 202/187/75
f 167/204/38 188/220/38 178/203/38
f 178/203/38 188/220/38 173/221/38
f 175/222/81 187/188/81 201/189/81
f 190/197/41 189/196/41 174/225/41
f 174/228/41 189/224/41 177/218/41
f 174/225/83 201/189/83 190/197/83
f 202/187/108 168/207/108 189/196/108
f 192/184/81 175/222/81 200/186/81
f 178/203/38 191/226/38 165/403/38
f 191/226/38 173/221/38 192/184/38
f 170/213/78 191/226/78 199/185/78
f 174/228/41 194/227/41 193/406/41
f 194/227/41 177/218/41 166/404/41
f 166/219/80 199/185/80 194/194/80
f 200/186/83 174/225/83 193/195/83
f 220/178/66 233/179/66 219/399/66
f 236/181/67 221/182/67 222/212/67
f 230/184/68 237/185/68 229/226/68
f 240/187/69 225/188/69 226/220/69
f 234/180/110 218/190/110 233/179/110
f 223/192/71 235/183/71 236/181/71
f 238/186/89 232/194/89 237/185/89
f 227/196/73 239/189/73 240/187/73
f 218/190/74 214/198/74 233/179/74
f 207/200/75 217/201/75 234/208/75
f 218/400/38 217/205/38 209/216/38
f 209/216/38 217/205/38 216/203/38
f 233/179/76 210/206/76 219/399/76
f 206/207/108 234/208/108 220/401/108
f 206/223/41 220/211/41 215/218/41
f 215/218/41 220/211/41 210/209/41
f 222/407/78 208/409/78 236/408/78
f 209/216/38 222/215/38 221/402/38
f 222/215/38 216/203/38 203/403/38
f 214/198/74 221/182/74 235/183/74
f 215/218/41 223/217/41 204/404/41
f 223/217/41 210/209/41 224/405/41
f 210/206/76 235/183/76 224/193/76
f 236/181/80 204/219/80 223/192/80
f 226/220/75 207/200/75 240/187/75
f 205/204/38 226/220/38 216/203/38
f 216/203/38 226/220/38 211/221/38
f 213/222/81 225/188/81 239/189/81
f 228/410/41 227/224/41 212/228/41
f 212/228/41 227/224/41 215/218/41
f 212/225/83 239/189/83 228/197/83
f 240/187/108 206/207/108 227/196/108
f 230/184/81 213/222/81 238/186/81
f 216/203/38 229/226/38 203/403/38
f 229/226/38 211/221/38 230/184/38
f 208/409/78 229/412/78 237/411/78
f 212/228/41 232/227/41 231/406/41
f 232/227/41 215/218/41 204/404/41
f 204/219/80 237/185/80 232/194/80
f 238/186/83 212/225/83 231/195/83
f 258/229/66 271/230/66 257/413/66
f 274/232/67 259/233/67 260/263/67
f 268/235/68 275/236/68 267/277/68
f 278/238/111 263/239/111 264/271/111
f 272/231/70 256/241/70 271/230/70
f 261/243/71 273/234/71 274/232/71
f 276/237/89 270/245/89 275/236/89
f 265/247/112 277/240/112 278/238/112
f 256/241/74 252/249/74 271/230/74
f 245/251/113 255/252/113 272/259/113
f 256/414/38 255/256/38 247/267/38
f 247/267/38 255/256/38 254/254/38
f 271/230/79 248/257/79 257/413/79
f 244/258/77 272/259/77 258/415/77
f 244/274/41 258/262/41 253/269/41
f 253/269/41 258/262/41 248/260/41
f 260/263/78 246/264/78 274/232/78
f 247/267/38 260/266/38 259/416/38
f 260/266/38 254/254/38 241/417/38
f 252/249/74 259/233/74 273/234/74
f 253/269/41 261/268/41 242/418/41
f 261/268/41 248/260/41 262/419/41
f 248/257/79 273/234/79 262/244/79
f 274/232/109 242/270/109 261/243/109
f 264/271/113 245/251/113 278/238/113
f 243/255/38 264/271/38 254/254/38
f 254/254/38 264/271/38 249/272/38
f 251/273/81 263/239/81 277/240/81
f 266/420/41 265/275/41 250/279/41
f 250/279/41 265/275/41 253/269/41
f 250/276/82 277/240/82 266/248/82
f 278/421/108 244/423/108 265/422/108
f 268/235/81 251/273/81 276/237/81
f 254/254/38 267/277/38 241/417/38
f 267/277/38 249/272/38 268/235/38
f 246/264/78 267/277/78 275/236/78
f 250/279/41 270/278/41 269/424/41
f 270/278/41 253/269/41 242/418/41
f 242/270/109 275/236/109 270/245/109
f 276/237/82 250/276/82 269/246/82
f 296/229/66 309/230/66 295/413/66
f 312/232/67 297/233/67 298/263/67
f 306/235/68 313/236/68 305/277/68
f 316/238/111 301/239/111 302/271/111
f 310/231/70 294/241/70 309/230/70
f 299/243/71 311/234/71 312/232/71
f 314/237/89 308/245/89 313/236/89
f 303/247/112 315/240/112 316/238/112
f 294/241/74 290/249/74 309/230/74
f 283/251/113 293/252/113 310/259/113
f 294/414/38 293/256/38 285/267/38
f 285/267/38 293/256/38 292/254/38
f 309/230/79 286/257/79 295/413/79
f 282/258/77 310/259/77 296/415/77
f 282/274/41 296/262/41 291/269/41
f 291/269/41 296/262/41 286/260/41
f 298/263/78 284/264/78 312/232/78
f 285/267/38 298/266/38 297/416/38
f 298/266/38 292/254/38 279/417/38
f 290/249/74 297/233/74 311/234/74
f 291/269/41 299/268/41 280/418/41
f 299/425/41 286/427/41 300/426/41
f 286/257/79 311/234/79 300/244/79
f 312/232/109 280/270/109 299/243/109
f 302/271/113 283/251/113 316/238/113
f 281/255/38 302/271/38 292/254/38
f 292/254/38 302/271/38 287/272/38
f 289/273/81 301/239/81 315/240/81
f 304/248/41 303/247/41 288/276/41
f 288/279/41 303/275/41 291/269/41
f 288/276/82 315/240/82 304/248/82
f 316/238/108 282/258/108 303/247/108
f 306/235/81 289/273/81 314/237/81
f 292/254/38 305/277/38 279/417/38
f 305/277/38 287/272/38 306/235/38
f 284/264/78 305/277/78 313/236/78
f 288/276/41 308/245/41 307/246/41
f 308/278/41 291/269/41 280/418/41
f 280/270/109 313/236/109 308/245/109
f 314/237/82 288/276/82 307/246/82
f 319/428/38 318/430/38 317/429/38
f 320/429/38 325/432/38 324/431/38
